<svg width="182" height="37" viewBox="0 0 182 37" fill="none" xmlns="http://www.w3.org/2000/svg">
<path d="M161.063 25.6046C161.039 25.6097 161.015 25.608 160.991 25.6114L161.114 25.5943C161.097 25.596 161.08 25.6046 161.063 25.608V25.6046ZM78.2005 31.393C78.2055 31.7778 78.1308 32.1595 77.9813 32.5145C77.8317 32.8694 77.6105 33.19 77.3312 33.4564C77.0613 33.7333 76.7373 33.9523 76.3792 34.1002C76.0211 34.248 75.6363 34.3215 75.2486 34.3161H69.4013C68.2419 34.3339 67.0912 34.1156 66.0197 33.6747C64.9482 33.2337 63.9787 32.5795 63.1707 31.7522C61.4457 30.0412 60.6038 27.9829 60.6038 25.5722V13.8541C60.6038 13.0284 60.8896 12.3355 61.4645 11.772C62.0395 11.2085 62.7411 10.9292 63.5694 10.9292C63.9548 10.9236 64.3373 10.9971 64.693 11.145C65.0486 11.2929 65.3698 11.5121 65.6366 11.789C66.2115 12.361 66.5007 13.0488 66.5007 13.8524V18.0967H74.8037C75.5567 18.0967 76.2035 18.3622 76.7426 18.8934C77.2816 19.4246 77.5503 20.0613 77.5503 20.807C77.5551 21.1637 77.4862 21.5177 77.3478 21.8469C77.2095 22.176 77.0046 22.4734 76.746 22.7206C76.4948 22.9769 76.1939 23.1798 75.8615 23.3167C75.529 23.4537 75.1721 23.5219 74.8123 23.5173H66.5007V25.5705C66.5007 26.3758 66.7831 27.0602 67.3512 27.6237C67.9194 28.1872 68.6073 28.4681 69.4184 28.4681H75.2367C76.0461 28.4681 76.7426 28.7575 77.3193 29.3296C77.5985 29.5959 77.8198 29.9165 77.9693 30.2714C78.1189 30.6264 78.1935 31.0081 78.1886 31.393H78.2005ZM146.507 31.393C146.512 31.7777 146.437 32.1593 146.288 32.5143C146.139 32.8692 145.918 33.1899 145.639 33.4564C145.369 33.7331 145.046 33.9521 144.688 34.1C144.33 34.2478 143.946 34.3214 143.558 34.3161H140.909C139.75 34.3341 138.598 34.1159 137.527 33.675C136.455 33.2341 135.485 32.5797 134.677 31.7522C133.844 30.9529 133.185 29.992 132.74 28.929C132.296 27.8659 132.075 26.7234 132.093 25.5722V13.8541C132.093 13.0284 132.379 12.3355 132.954 11.772C133.529 11.2085 134.229 10.9292 135.058 10.9292C135.444 10.9236 135.826 10.9971 136.182 11.145C136.538 11.2929 136.859 11.5121 137.126 11.789C137.404 12.0559 137.624 12.3768 137.772 12.7317C137.92 13.0866 137.994 13.4681 137.988 13.8524V18.0967H143.11C143.47 18.0916 143.828 18.1596 144.161 18.2966C144.494 18.4336 144.795 18.6366 145.047 18.8934C145.586 19.4246 145.855 20.0613 145.855 20.807C145.86 21.1637 145.791 21.5177 145.652 21.8469C145.514 22.176 145.309 22.4734 145.05 22.7206C144.799 22.9769 144.498 23.1798 144.166 23.3167C143.833 23.4537 143.477 23.5219 143.117 23.5173H137.988V25.5705C137.988 26.3758 138.27 27.0602 138.839 27.6237C139.407 28.1872 140.095 28.4681 140.906 28.4681H143.558C144.368 28.4681 145.064 28.7575 145.641 29.3296C145.92 29.5961 146.141 29.9167 146.29 30.2717C146.439 30.6266 146.514 31.0082 146.508 31.393H146.507ZM131.105 31.393C131.105 32.1931 130.815 32.8826 130.238 33.4564C129.968 33.7333 129.644 33.9525 129.286 34.1003C128.928 34.2482 128.543 34.3216 128.155 34.3161H125.506C123.076 34.3161 121.001 33.4615 119.277 31.7522C118.444 30.9532 117.784 29.9924 117.339 28.9294C116.894 27.8663 116.673 26.7237 116.69 25.5722V13.8541C116.681 13.4667 116.753 13.0818 116.901 12.7235C117.05 12.3652 117.271 12.0412 117.551 11.772C118.126 11.2102 118.827 10.9292 119.656 10.9292C120.041 10.9236 120.423 10.9971 120.779 11.145C121.135 11.2929 121.456 11.5121 121.723 11.789C122.298 12.361 122.587 13.0488 122.587 13.8524V18.0967H127.707C128.46 18.0967 129.107 18.3622 129.646 18.8934C129.906 19.1398 130.111 19.437 130.25 19.7663C130.389 20.0956 130.457 20.45 130.452 20.807C130.457 21.1637 130.388 21.5177 130.249 21.8469C130.111 22.176 129.906 22.4734 129.648 22.7206C129.112 23.2313 128.45 23.5173 127.717 23.5173H122.57V25.5705C122.57 26.3758 122.852 27.0602 123.42 27.6237C123.988 28.1872 124.676 28.4681 125.487 28.4681H128.14C128.949 28.4681 129.646 28.7575 130.222 29.3296C130.501 29.5961 130.722 29.9167 130.872 30.2717C131.021 30.6266 131.095 31.0082 131.09 31.393H131.105ZM106.638 26.1357C106.638 28.3915 105.834 30.317 104.218 31.9173C103.463 32.6919 102.557 33.3043 101.555 33.7169C100.552 34.1294 99.476 34.3334 98.3916 34.3161C96.3141 34.3161 94.4848 33.6351 92.9036 32.2221C91.422 33.5885 89.47 34.3374 87.4498 34.3144C86.3653 34.3309 85.2888 34.1266 84.2865 33.7141C83.2842 33.3016 82.3772 32.6896 81.6213 31.9156C80.8418 31.168 80.225 30.2691 79.8091 29.2745C79.3931 28.28 79.187 27.2111 79.2033 26.134V20.4222C79.1946 20.0593 79.2623 19.6985 79.402 19.3631C79.5417 19.0277 79.7503 18.7251 80.0145 18.4746C80.5535 17.9639 81.2038 17.6847 81.9602 17.6847C82.3213 17.6785 82.68 17.7454 83.0144 17.8811C83.3489 18.0169 83.6521 18.2188 83.9059 18.4746C84.4466 18.9853 84.717 19.6663 84.717 20.4239V26.1391C84.7106 26.4958 84.7779 26.8501 84.9148 27.1798C85.0517 27.5096 85.2552 27.8078 85.5127 28.0561C85.7652 28.3101 86.0666 28.5109 86.3988 28.6463C86.7311 28.7817 87.0874 28.8491 87.4464 28.8444C88.1823 28.8444 88.8154 28.5839 89.3288 28.0561C89.586 27.8077 89.7892 27.5094 89.9258 27.1796C90.0624 26.8499 90.1294 26.4957 90.1228 26.1391V20.4529C90.1228 19.7038 90.3966 19.0534 90.9357 18.5053C91.1918 18.2396 91.5003 18.0294 91.8419 17.8879C92.1835 17.7464 92.5507 17.6766 92.9207 17.683C93.2838 17.6781 93.6441 17.747 93.9796 17.8855C94.315 18.024 94.6185 18.229 94.8715 18.4882C95.414 19.0262 95.6844 19.6697 95.6844 20.4222V26.1374C95.6705 26.4929 95.7299 26.8475 95.8591 27.1792C95.9882 27.511 96.1843 27.8129 96.4352 28.0664C96.6861 28.3199 96.9866 28.5195 97.3181 28.653C97.6495 28.7865 98.005 28.8511 98.3625 28.8427C99.1206 28.8427 99.7657 28.5822 100.296 28.0544C100.554 27.8061 100.757 27.5079 100.894 27.1781C101.031 26.8484 101.098 26.4941 101.092 26.1374V20.4222C101.092 19.6697 101.362 19.0262 101.903 18.4882C102.155 18.229 102.457 18.0237 102.792 17.8852C103.127 17.7468 103.486 17.6779 103.849 17.683C104.607 17.683 105.255 17.9519 105.796 18.4882C106.337 19.0245 106.606 19.668 106.606 20.4205V26.1323L106.638 26.1357ZM114.604 13.1969C114.609 13.5819 114.535 13.9639 114.386 14.3192C114.237 14.6744 114.015 14.9954 113.736 15.262C113.467 15.5388 113.143 15.7578 112.785 15.9057C112.427 16.0535 112.043 16.1271 111.655 16.1218C111.268 16.1265 110.883 16.0527 110.525 15.9049C110.167 15.7571 109.843 15.5384 109.573 15.262C109.294 14.9953 109.074 14.6745 108.925 14.3196C108.776 13.9647 108.702 13.5832 108.707 13.1986C108.707 12.3951 108.998 11.7073 109.573 11.1353C109.843 10.8583 110.167 10.6391 110.525 10.4913C110.883 10.3434 111.268 10.27 111.655 10.2755C112.043 10.27 112.427 10.3435 112.785 10.4913C113.143 10.6392 113.467 10.8583 113.736 11.1353C114.315 11.7073 114.604 12.3951 114.604 13.1986V13.1969ZM114.604 31.3742C114.609 31.7594 114.534 32.1414 114.385 32.4968C114.236 32.8522 114.015 33.1735 113.736 33.441C113.467 33.718 113.143 33.9371 112.785 34.0849C112.427 34.2328 112.043 34.3063 111.655 34.3008C110.846 34.3008 110.153 34.0148 109.573 33.441C109.294 33.1737 109.074 32.8524 108.925 32.4969C108.776 32.1414 108.702 31.7593 108.707 31.3742V20.5976C108.707 19.794 108.998 19.1045 109.573 18.5325C109.843 18.2552 110.166 18.0357 110.525 17.8876C110.883 17.7395 111.268 17.6658 111.655 17.671C112.043 17.6658 112.428 17.7395 112.785 17.8877C113.143 18.0358 113.467 18.2553 113.736 18.5325C114.315 19.1045 114.604 19.7923 114.604 20.5976V31.3742ZM181.574 20.79C181.574 21.5339 181.305 22.1724 180.766 22.7035C180.516 22.9605 180.215 23.1637 179.883 23.3008C179.55 23.4378 179.194 23.5057 178.834 23.5003H174.809C174.056 23.5003 173.418 23.7625 172.892 24.2834C172.636 24.5294 172.434 24.8252 172.298 25.1524C172.162 25.4796 172.095 25.8311 172.102 26.1851V31.5819C172.102 32.3276 171.835 32.9678 171.298 33.5006C171.048 33.7578 170.748 33.9614 170.416 34.099C170.085 34.2366 169.728 34.3053 169.369 34.3008C168.621 34.3008 167.974 34.0352 167.439 33.5006C167.18 33.2532 166.975 32.9555 166.837 32.626C166.698 32.2966 166.63 31.9424 166.634 31.5853V26.1885C166.618 25.121 166.822 24.0616 167.234 23.0759C167.647 22.0902 168.258 21.1991 169.03 20.458C169.78 19.6901 170.679 19.0828 171.673 18.6735C172.667 18.2642 173.735 18.0615 174.811 18.0779H178.832C179.192 18.0727 179.55 18.1411 179.882 18.2787C180.215 18.4163 180.516 18.6203 180.766 18.8781C181.026 19.1238 181.232 19.4207 181.37 19.7498C181.509 20.079 181.577 20.4332 181.57 20.79H181.574ZM155.739 34.2991C153.418 34.2991 151.231 33.4206 149.507 31.6671C147.782 29.9135 147.119 28.0016 147.119 25.5279C147.119 25.5279 146.952 17.6659 155.891 17.6659C162.885 17.6659 165.012 22.552 165.012 24.9661C165.012 26.8831 164.131 27.5641 162.124 27.5641H153.184C153.184 27.5641 152.842 29.5986 156.949 29.5986H162.048C162.358 29.5986 162.665 29.6593 162.952 29.7774C163.238 29.8955 163.499 30.0685 163.718 30.2867C163.937 30.5048 164.111 30.7638 164.23 31.0489C164.349 31.3339 164.41 31.6394 164.41 31.948C164.41 32.2565 164.349 32.562 164.23 32.847C164.111 33.1321 163.937 33.3911 163.718 33.6093C163.499 33.8274 163.238 34.0005 162.952 34.1185C162.665 34.2366 162.358 34.2974 162.048 34.2974H155.751L155.739 34.2991ZM153.244 23.8544H159.113C159.113 21.9357 156.194 21.9357 156.194 21.9357C156.194 21.9357 153.244 21.9357 153.244 23.8544ZM52.4257 16.9458C50.5998 17.2556 47.9542 16.9322 46.551 16.3499C49.4653 16.1116 51.4383 14.7939 52.1981 13.0046C51.1474 13.6481 47.8858 14.3665 46.089 13.6804L45.8015 12.4955C44.4325 7.48004 39.7317 3.43838 34.8119 3.92698L36.0183 3.48094C36.5573 3.28856 39.7368 2.77271 39.2354 1.65929C38.8128 0.675262 34.9282 2.39816 34.1975 2.62459C35.1627 2.2841 36.761 1.64397 36.9304 0.539062C35.4191 0.761772 34.0085 1.42669 32.8782 2.44924C33.2854 2.01511 33.5917 1.48734 33.6568 0.917011C29.7106 3.42816 27.4056 8.4862 25.542 13.3961C24.0772 11.9831 22.7767 10.868 21.613 10.2466C18.3479 8.50493 14.4258 6.68499 8.31148 4.4173C8.14035 6.43813 9.31427 9.12463 12.7607 10.9105C12.018 10.8084 10.6593 11.0331 9.57438 11.2902C10.0159 13.6055 11.4619 15.5123 15.3789 16.4316C13.589 16.5508 12.6632 16.9424 11.8264 17.8277C12.6409 19.4399 14.6328 21.3348 18.2093 20.9432C14.229 22.6525 16.5836 25.8157 19.8248 25.3441C14.3026 31.0269 5.59402 30.6217 0.59375 25.8548C13.6471 43.5724 42.0282 36.3318 46.255 19.2663C49.4276 19.2918 51.286 18.1733 52.4411 16.9407L52.4257 16.9458Z" fill="#FEFEFE"/>
</svg>
