<svg width="65" height="13" viewBox="0 0 65 13" fill="none" xmlns="http://www.w3.org/2000/svg">
<path d="M57.0504 8.91136C57.0418 8.91318 57.0333 8.91257 57.0248 8.91378L57.0686 8.90773C57.0625 8.90833 57.0564 8.91136 57.0504 8.91257V8.91136ZM27.591 10.9693C27.5927 11.1061 27.5662 11.2418 27.513 11.368C27.4599 11.4942 27.3812 11.6082 27.2819 11.7029C27.186 11.8013 27.0708 11.8792 26.9435 11.9317C26.8161 11.9843 26.6794 12.0104 26.5415 12.0085H24.4627C24.0505 12.0148 23.6414 11.9372 23.2604 11.7805C22.8795 11.6237 22.5348 11.3911 22.2475 11.097C21.6343 10.4887 21.3349 9.75692 21.3349 8.89986V4.7338C21.3349 4.44025 21.4365 4.1939 21.641 3.99356C21.8454 3.79321 22.0948 3.69395 22.3893 3.69395C22.5263 3.69195 22.6623 3.71806 22.7887 3.77065C22.9152 3.82324 23.0294 3.90118 23.1242 3.99961C23.3286 4.20298 23.4314 4.44751 23.4314 4.7332V6.24213H26.3833C26.651 6.24213 26.881 6.33655 27.0727 6.52539C27.2643 6.71424 27.3598 6.94061 27.3598 7.20571C27.3615 7.33255 27.337 7.45838 27.2878 7.57541C27.2386 7.69244 27.1658 7.79817 27.0739 7.88604C26.9846 7.97717 26.8776 8.04928 26.7594 8.09798C26.6412 8.14668 26.5143 8.17094 26.3864 8.1693H23.4314V8.89925C23.4314 9.18555 23.5318 9.42886 23.7338 9.62921C23.9358 9.82955 24.1804 9.92942 24.4687 9.92942H26.5373C26.825 9.92942 27.0726 10.0323 27.2777 10.2357C27.377 10.3304 27.4556 10.4444 27.5088 10.5705C27.562 10.6967 27.5885 10.8325 27.5867 10.9693H27.591ZM51.8754 10.9693C51.8772 11.106 51.8508 11.2417 51.7977 11.3679C51.7447 11.4941 51.6661 11.6081 51.567 11.7029C51.4711 11.8013 51.356 11.8791 51.2288 11.9317C51.1016 11.9842 50.9649 12.0104 50.8272 12.0085H49.8854C49.4731 12.0149 49.0638 11.9373 48.6828 11.7806C48.3018 11.6238 47.957 11.3912 47.6696 11.097C47.3735 10.8128 47.1391 10.4712 46.9811 10.0933C46.8231 9.71533 46.7448 9.30914 46.751 8.89986V4.7338C46.751 4.44025 46.8526 4.1939 47.057 3.99356C47.2614 3.79321 47.5102 3.69395 47.8053 3.69395C47.9423 3.69195 48.0783 3.71806 48.2047 3.77065C48.3312 3.82324 48.4454 3.90118 48.5402 3.99961C48.6391 4.09451 48.7173 4.20858 48.77 4.33476C48.8228 4.46094 48.8489 4.59655 48.8469 4.7332V6.24213H50.6678C50.7959 6.24032 50.923 6.2645 51.0414 6.31321C51.1598 6.36191 51.267 6.43411 51.3564 6.52539C51.5481 6.71424 51.6436 6.94061 51.6436 7.20571C51.6453 7.33255 51.6208 7.45838 51.5716 7.57541C51.5224 7.69244 51.4496 7.79817 51.3577 7.88604C51.2684 7.97717 51.1614 8.04928 51.0432 8.09798C50.925 8.14668 50.7981 8.17094 50.6702 8.1693H48.8469V8.89925C48.8469 9.18555 48.9472 9.42886 49.1492 9.62921C49.3512 9.82955 49.5958 9.92942 49.8842 9.92942H50.8272C51.1149 9.92942 51.3625 10.0323 51.5676 10.2357C51.6667 10.3304 51.7453 10.4444 51.7983 10.5706C51.8514 10.6968 51.8778 10.8325 51.876 10.9693H51.8754ZM46.3999 10.9693C46.3999 11.2537 46.2965 11.4989 46.0915 11.7029C45.9955 11.8013 45.8803 11.8792 45.753 11.9318C45.6257 11.9844 45.4889 12.0105 45.3511 12.0085H44.4093C43.5454 12.0085 42.8074 11.7047 42.1947 11.097C41.8984 10.8129 41.6638 10.4713 41.5056 10.0934C41.3474 9.71547 41.2688 9.30923 41.2749 8.89986V4.7338C41.2718 4.59609 41.2974 4.45924 41.3501 4.33185C41.4027 4.20445 41.4813 4.08928 41.5809 3.99356C41.7853 3.79382 42.0347 3.69395 42.3292 3.69395C42.4662 3.69195 42.6022 3.71806 42.7286 3.77065C42.8551 3.82324 42.9693 3.90118 43.0641 3.99961C43.2685 4.20298 43.3714 4.44751 43.3714 4.7332V6.24213H45.1917C45.4593 6.24213 45.6893 6.33655 45.881 6.52539C45.9733 6.61299 46.0465 6.71865 46.0958 6.83573C46.1451 6.95281 46.1695 7.07878 46.1675 7.20571C46.1692 7.33255 46.1447 7.45838 46.0955 7.57541C46.0464 7.69244 45.9735 7.79817 45.8816 7.88604C45.6911 8.06762 45.4557 8.1693 45.1953 8.1693H43.3653V8.89925C43.3653 9.18555 43.4657 9.42886 43.6676 9.62921C43.8696 9.82955 44.1142 9.92942 44.4026 9.92942H45.3456C45.6333 9.92942 45.881 10.0323 46.086 10.2357C46.1852 10.3304 46.2637 10.4444 46.3168 10.5706C46.3698 10.6968 46.3963 10.8325 46.3944 10.9693H46.3999ZM37.7012 9.1002C37.7012 9.90218 37.4152 10.5867 36.8409 11.1557C36.5725 11.4311 36.2502 11.6488 35.8939 11.7955C35.5376 11.9421 35.1549 12.0147 34.7694 12.0085C34.0308 12.0085 33.3804 11.7664 32.8183 11.264C32.2915 11.7498 31.5975 12.0161 30.8793 12.0079C30.4937 12.0138 30.111 11.9411 29.7547 11.7945C29.3983 11.6478 29.0759 11.4302 28.8072 11.1551C28.53 10.8893 28.3107 10.5697 28.1629 10.2161C28.015 9.86255 27.9417 9.48252 27.9475 9.0996V7.06892C27.9444 6.93989 27.9685 6.81163 28.0181 6.69239C28.0678 6.57315 28.142 6.46555 28.2359 6.3765C28.4275 6.19492 28.6587 6.09565 28.9276 6.09565C29.056 6.09347 29.1835 6.11724 29.3024 6.16551C29.4213 6.21378 29.5292 6.28556 29.6194 6.3765C29.8116 6.55808 29.9077 6.80018 29.9077 7.06953V9.10141C29.9055 9.22823 29.9294 9.35417 29.9781 9.4714C30.0267 9.58864 30.0991 9.69468 30.1906 9.78294C30.2804 9.87325 30.3875 9.94462 30.5057 9.99277C30.6238 10.0409 30.7505 10.0649 30.8781 10.0632C31.1397 10.0632 31.3648 9.97058 31.5473 9.78294C31.6388 9.69462 31.711 9.58856 31.7596 9.47133C31.8081 9.35409 31.832 9.22819 31.8296 9.10141V7.07982C31.8296 6.8135 31.927 6.58229 32.1186 6.38739C32.2097 6.29294 32.3194 6.21822 32.4408 6.16792C32.5622 6.11761 32.6928 6.0928 32.8243 6.09505C32.9534 6.09333 33.0815 6.11783 33.2008 6.16705C33.3201 6.21628 33.428 6.2892 33.5179 6.38134C33.7108 6.5726 33.8069 6.8014 33.8069 7.06892V9.10081C33.802 9.2272 33.8231 9.35325 33.869 9.4712C33.9149 9.58914 33.9846 9.69649 34.0738 9.7866C34.163 9.87671 34.2699 9.94769 34.3877 9.99516C34.5056 10.0426 34.6319 10.0656 34.759 10.0626C35.0285 10.0626 35.2579 9.96997 35.4465 9.78234C35.5381 9.69407 35.6104 9.58803 35.6591 9.47079C35.7077 9.35356 35.7317 9.22763 35.7294 9.10081V7.06892C35.7294 6.8014 35.8255 6.5726 36.0178 6.38134C36.1073 6.28916 36.2149 6.2162 36.3339 6.16697C36.4528 6.11773 36.5807 6.09325 36.7095 6.09505C36.979 6.09505 37.2096 6.19068 37.4019 6.38134C37.5941 6.572 37.6896 6.80079 37.6896 7.06832V9.09899L37.7012 9.1002ZM40.5332 4.50017C40.5351 4.63704 40.5087 4.77285 40.4557 4.89915C40.4026 5.02544 40.324 5.13954 40.2248 5.23436C40.1289 5.33275 40.0138 5.41062 39.8866 5.46318C39.7594 5.51574 39.6227 5.54189 39.485 5.54002C39.3472 5.54169 39.2105 5.51545 39.0832 5.4629C38.9559 5.41036 38.8407 5.3326 38.7446 5.23436C38.6456 5.13952 38.5672 5.02549 38.5142 4.89931C38.4613 4.77313 38.4349 4.63749 38.4367 4.50077C38.4367 4.21509 38.5401 3.97056 38.7446 3.76719C38.8405 3.66872 38.9557 3.59081 39.083 3.53824C39.2104 3.48568 39.3471 3.45957 39.485 3.46153C39.6227 3.45958 39.7594 3.4857 39.8866 3.53826C40.0139 3.59083 40.1289 3.66873 40.2248 3.76719C40.4304 3.97056 40.5332 4.21509 40.5332 4.50077V4.50017ZM40.5332 10.9626C40.5349 11.0995 40.5083 11.2353 40.4553 11.3617C40.4023 11.4881 40.3238 11.6023 40.2248 11.6974C40.1289 11.7959 40.0139 11.8738 39.8866 11.9263C39.7594 11.9789 39.6227 12.005 39.485 12.0031C39.1972 12.0031 38.9508 11.9014 38.7446 11.6974C38.6455 11.6024 38.5671 11.4881 38.5141 11.3617C38.4612 11.2354 38.4348 11.0995 38.4367 10.9626V7.13127C38.4367 6.84558 38.5401 6.60045 38.7446 6.39708C38.8405 6.2985 38.9556 6.22047 39.083 6.1678C39.2103 6.11514 39.3471 6.08893 39.485 6.09081C39.6228 6.08895 39.7595 6.11515 39.8867 6.16783C40.0139 6.2205 40.129 6.29851 40.2248 6.39708C40.4304 6.60045 40.5332 6.84498 40.5332 7.13127V10.9626ZM64.3425 7.19966C64.3425 7.46416 64.247 7.69114 64.0553 7.87998C63.9663 7.97133 63.8595 8.04359 63.7413 8.09231C63.6232 8.14102 63.4963 8.16517 63.3685 8.16325H61.9375C61.6698 8.16325 61.4429 8.25646 61.2561 8.44167C61.1651 8.52912 61.0932 8.63428 61.0448 8.7506C60.9965 8.86692 60.9727 8.9919 60.9751 9.11776V11.0365C60.9751 11.3016 60.8802 11.5291 60.6891 11.7186C60.6004 11.81 60.4938 11.8824 60.3758 11.9313C60.2579 11.9802 60.1312 12.0047 60.0035 12.0031C59.7376 12.0031 59.5076 11.9086 59.3172 11.7186C59.2252 11.6306 59.1524 11.5248 59.1032 11.4076C59.054 11.2905 59.0295 11.1646 59.0313 11.0377V9.11897C59.0255 8.73946 59.0981 8.36281 59.2446 8.01236C59.3911 7.66191 59.6084 7.34512 59.883 7.08163C60.1495 6.80863 60.4692 6.59273 60.8227 6.44721C61.1761 6.3017 61.5557 6.22964 61.9381 6.23547H63.3679C63.4959 6.23363 63.623 6.25792 63.7412 6.30685C63.8595 6.35578 63.9664 6.4283 64.0553 6.51995C64.1478 6.6073 64.221 6.71284 64.2702 6.82986C64.3194 6.94689 64.3436 7.07282 64.3413 7.19966H64.3425ZM55.1577 12.0025C54.3327 12.0025 53.5552 11.6901 52.9419 11.0667C52.3287 10.4433 52.0932 9.76358 52.0932 8.88412C52.0932 8.88412 52.0336 6.089 55.2118 6.089C57.6983 6.089 58.4545 7.82611 58.4545 8.68438C58.4545 9.36592 58.1412 9.60802 57.4276 9.60802H54.2493C54.2493 9.60802 54.1277 10.3313 55.5878 10.3313H57.4008C57.511 10.3313 57.6202 10.3529 57.7221 10.3949C57.8239 10.4369 57.9165 10.4984 57.9945 10.576C58.0724 10.6535 58.1343 10.7456 58.1764 10.8469C58.2186 10.9483 58.2404 11.0569 58.2404 11.1666C58.2404 11.2763 58.2186 11.3849 58.1764 11.4862C58.1343 11.5876 58.0724 11.6796 57.9945 11.7572C57.9165 11.8348 57.8239 11.8963 57.7221 11.9383C57.6202 11.9803 57.511 12.0019 57.4008 12.0019H55.1619L55.1577 12.0025ZM54.2706 8.28914H56.3574C56.3574 7.60701 55.3195 7.60701 55.3195 7.60701C55.3195 7.60701 54.2706 7.60701 54.2706 8.28914ZM18.4275 5.83297C17.7783 5.94313 16.8377 5.82812 16.3389 5.62112C17.3749 5.53639 18.0764 5.06791 18.3465 4.43177C17.973 4.66056 16.8134 4.91599 16.1746 4.67206L16.0724 4.2508C15.5857 2.46768 13.9144 1.03077 12.1653 1.20448L12.5942 1.0459C12.7859 0.977508 13.9163 0.794112 13.738 0.398267C13.5877 0.048422 12.2067 0.660953 11.9469 0.741453C12.29 0.6204 12.8583 0.392819 12.9185 0C12.3812 0.0791782 11.8797 0.315574 11.4778 0.679112C11.6226 0.524768 11.7315 0.337134 11.7547 0.13437C10.3517 1.02714 9.53222 2.82539 8.86969 4.57098C8.34891 4.06861 7.88653 3.67216 7.47283 3.45124C6.31202 2.83205 4.9176 2.18502 2.74383 1.3788C2.68299 2.09725 3.10034 3.05237 4.32564 3.68729C4.0616 3.65098 3.57854 3.73087 3.19282 3.82227C3.34978 4.64543 3.86387 5.32333 5.25647 5.65018C4.6201 5.69254 4.29096 5.83176 3.99346 6.1465C4.28305 6.71968 4.99121 7.39335 6.26274 7.25414C4.84763 7.86182 5.68478 8.98641 6.83706 8.81875C4.87379 10.8391 1.77771 10.6951 0 9.00033C4.64078 15.2994 14.7309 12.7252 16.2336 6.65795C17.3616 6.66703 18.0223 6.26937 18.4329 5.83115L18.4275 5.83297Z" fill="#FEFEFE"/>
</svg>
