<svg width="20" height="21" viewBox="0 0 20 21" fill="none" xmlns="http://www.w3.org/2000/svg">
<path d="M10.1302 9.55573C10.0469 9.5474 9.94688 9.5474 9.85521 9.55573C7.87187 9.48906 6.29688 7.86406 6.29688 5.86406C6.29687 3.8224 7.94688 2.16406 9.99688 2.16406C12.0385 2.16406 13.6969 3.8224 13.6969 5.86406C13.6885 7.86406 12.1135 9.48906 10.1302 9.55573Z" stroke="#535353" stroke-width="1.5" stroke-linecap="round" stroke-linejoin="round"/>
<path d="M5.96563 12.6359C3.94896 13.9859 3.94896 16.1859 5.96563 17.5276C8.25729 19.0609 12.0156 19.0609 14.3073 17.5276C16.324 16.1776 16.324 13.9776 14.3073 12.6359C12.024 11.1109 8.26562 11.1109 5.96563 12.6359Z" stroke="#535353" stroke-width="1.5" stroke-linecap="round" stroke-linejoin="round"/>
</svg>
