<svg width="36" height="36" viewBox="0 0 36 36" fill="none" xmlns="http://www.w3.org/2000/svg">
<path d="M18.2334 16.352C18.0875 16.3375 17.9125 16.3375 17.7521 16.352C14.2813 16.2354 11.525 13.3916 11.525 9.89163C11.525 6.31871 14.4125 3.41663 18 3.41663C21.5729 3.41663 24.475 6.31871 24.475 9.89163C24.4604 13.3916 21.7042 16.2354 18.2334 16.352Z" stroke="#1D1DD8" stroke-width="3" stroke-linecap="round" stroke-linejoin="round"/>
<path d="M10.9417 21.7334C7.41251 24.0959 7.41251 27.9459 10.9417 30.2938C14.9521 32.9771 21.5292 32.9771 25.5396 30.2938C29.0688 27.9313 29.0688 24.0813 25.5396 21.7334C21.5438 19.0646 14.9667 19.0646 10.9417 21.7334Z" stroke="#1D1DD8" stroke-width="3" stroke-linecap="round" stroke-linejoin="round"/>
</svg>
