<svg width="53" height="50" viewBox="0 0 53 50" fill="none" xmlns="http://www.w3.org/2000/svg">
<path d="M25.8462 1.56347C24.0398 0.21918 21.7691 -0.179638 19.6126 0.467178L5.02537 4.84325C2.02025 5.74534 0 8.45843 0 11.5972V42.775C0 45.0263 1.0357 47.0879 2.84189 48.4301C4.6484 49.7745 6.92161 50.1732 9.07563 49.5265L19.9651 46.2589C19.6245 45.1357 19.452 43.9638 19.452 42.775V28.6157C19.452 25.6424 20.5364 22.8026 22.5104 20.6243C23.9594 19.0196 25.8389 17.8357 27.9394 17.2036L28.6882 16.9897V7.22092C28.6882 4.96956 27.6525 2.90793 25.846 1.56347H25.8462Z" fill="#492B7C"/>
<path d="M53.0009 24.2367V38.396C53.0009 41.5324 50.983 44.2479 47.9755 45.1476L33.3883 49.5238C32.7125 49.7279 32.0245 49.8278 31.3437 49.8278C29.8532 49.8278 28.3945 49.3513 27.1546 48.4273C26.588 48.0044 26.097 47.5156 25.6934 46.9687C25.2023 46.3122 24.8352 45.5805 24.6042 44.7951C24.6017 44.7951 24.5994 44.7951 24.5969 44.7974L24.6017 44.7926C24.4146 44.1483 24.3125 43.47 24.3125 42.7722V28.6129C24.3125 27.1591 24.7453 25.7952 25.5088 24.6622C26.2722 23.5291 27.3661 22.6249 28.6887 22.0875C28.9003 22.0024 29.1167 21.9244 29.338 21.859L31.1225 21.3241L43.9254 17.4828C46.0817 16.836 48.3526 17.2348 50.159 18.5793C51.9655 19.9237 53.001 21.9853 53.001 24.2367H53.0009Z" fill="#8C68CA"/>
</svg>
