<svg width="34" height="31" viewBox="0 0 34 31" fill="none" xmlns="http://www.w3.org/2000/svg">
<path d="M16.1117 0.872347C14.9857 0.0343583 13.5702 -0.214252 12.2259 0.188953L3.13265 2.91685C1.25936 3.47919 0 5.17044 0 7.12702V26.5623C0 27.9657 0.645623 29.2509 1.77154 30.0875C2.89767 30.9256 4.31471 31.1741 5.65746 30.771L12.4456 28.734C12.2333 28.0339 12.1258 27.3034 12.1258 26.5623V17.7358C12.1258 15.8824 12.8017 14.1122 14.0323 12.7542C14.9355 11.7539 16.1071 11.0159 17.4165 10.6219L17.8833 10.4886V4.39902C17.8833 2.9956 17.2377 1.71044 16.1116 0.872347H16.1117Z" fill="#C47AFF"/>
<path d="M33.0392 15.0079V23.8344C33.0392 25.7895 31.7813 27.4823 29.9065 28.0431L20.8133 30.7711C20.3921 30.8984 19.9632 30.9606 19.5388 30.9606C18.6097 30.9606 17.7004 30.6636 16.9274 30.0876C16.5743 29.8239 16.2682 29.5193 16.0166 29.1783C15.7105 28.7691 15.4816 28.313 15.3376 27.8234C15.3361 27.8234 15.3346 27.8234 15.3331 27.8248L15.3361 27.8218C15.2194 27.4202 15.1558 26.9974 15.1558 26.5624V17.736C15.1558 16.8296 15.4255 15.9795 15.9015 15.2732C16.3773 14.5669 17.0593 14.0032 17.8838 13.6682C18.0157 13.6152 18.1505 13.5665 18.2885 13.5258L19.4009 13.1923L27.3818 10.7978C28.726 10.3946 30.1416 10.6432 31.2676 11.4813C32.3938 12.3194 33.0393 13.6045 33.0393 15.0079H33.0392Z" fill="#1D1DD8"/>
</svg>
