<svg width="51" height="49" viewBox="0 0 51 49" fill="none" xmlns="http://www.w3.org/2000/svg">
<path d="M24.8123 2.03093C23.0782 0.740412 20.8983 0.357548 18.828 0.97849L4.82434 5.1795C1.93943 6.04552 0 8.65007 0 11.6632V41.5939C0 43.7552 0.99427 45.7343 2.7282 47.0228C4.46246 48.3134 6.64473 48.6962 8.71258 48.0754L19.1664 44.9384C18.8395 43.8602 18.6739 42.7351 18.6739 41.5939V28.001C18.6739 25.1466 19.7149 22.4205 21.61 20.3293C23.0009 18.7887 24.8053 17.6522 26.8218 17.0454L27.5406 16.8401V7.46207C27.5406 5.30077 26.5463 3.32161 24.8121 2.03093H24.8123Z" fill="#C47AFF"/>
<path d="M50.8767 23.7982V37.391C50.8767 40.402 48.9395 43.0089 46.0524 43.8725L32.0487 48.0737C31.3999 48.2697 30.7394 48.3655 30.0859 48.3655C28.655 48.3655 27.2547 47.9081 26.0643 47.0211C25.5204 46.615 25.0491 46.1459 24.6616 45.6208C24.1902 44.9906 23.8377 44.2881 23.616 43.5342C23.6136 43.5342 23.6114 43.5342 23.609 43.5364L23.6136 43.5318C23.434 42.9132 23.3359 42.2621 23.3359 41.5922V27.9993C23.3359 26.6036 23.7514 25.2943 24.4844 24.2066C25.2172 23.1189 26.2674 22.2508 27.5371 21.7349C27.7402 21.6532 27.9479 21.5784 28.1604 21.5156L29.8736 21.0021L42.1643 17.3144C44.2344 16.6935 46.4144 17.0763 48.1485 18.367C49.8828 19.6577 50.8769 21.6369 50.8769 23.7982H50.8767Z" fill="white"/>
</svg>
