<svg width="20" height="19" viewBox="0 0 20 19" fill="none" xmlns="http://www.w3.org/2000/svg">
<path d="M17.83 6.20005L13.3 1.67005C12.35 0.720049 11.04 0.210049 9.69998 0.280049L4.69998 0.520049C2.69998 0.610049 1.10998 2.20005 1.00998 4.19005L0.769975 9.19005C0.709975 10.53 1.20998 11.84 2.15998 12.79L6.68997 17.32C8.54997 19.18 11.57 19.18 13.44 17.32L17.83 12.93C19.7 11.08 19.7 8.06005 17.83 6.20005ZM7.49998 9.88005C5.90998 9.88005 4.61998 8.59005 4.61998 7.00005C4.61998 5.41005 5.90998 4.12005 7.49998 4.12005C9.08998 4.12005 10.38 5.41005 10.38 7.00005C10.38 8.59005 9.08998 9.88005 7.49998 9.88005Z" fill="currentColor"/>
</svg>
