<svg width="20" height="21" viewBox="0 0 20 21" fill="none" xmlns="http://www.w3.org/2000/svg">
<path d="M9.97007 0.400041C4.45007 0.420041 -0.0199331 4.91004 6.68532e-05 10.43C0.0200669 15.95 4.51007 20.42 10.0301 20.4C15.5501 20.38 20.0201 15.89 20.0001 10.37C19.9801 4.85004 15.4901 0.390041 9.97007 0.400041ZM12.2601 10.5C13.0401 10.77 14.0901 11.35 14.0901 13.14C14.0901 14.68 12.8801 15.92 11.4001 15.92H10.7501V16.5C10.7501 16.91 10.4101 17.25 10.0001 17.25C9.59007 17.25 9.25007 16.91 9.25007 16.5V15.92H8.89007C7.25007 15.92 5.92007 14.54 5.92007 12.84C5.92007 12.43 6.26007 12.09 6.67007 12.09C7.08007 12.09 7.42007 12.43 7.42007 12.84C7.42007 13.71 8.08007 14.42 8.89007 14.42H9.25007V11.04L7.74007 10.5C6.96007 10.23 5.91007 9.65004 5.91007 7.86004C5.91007 6.32004 7.12007 5.08004 8.60007 5.08004H9.25007V4.50004C9.25007 4.09004 9.59007 3.75004 10.0001 3.75004C10.4101 3.75004 10.7501 4.09004 10.7501 4.50004V5.08004H11.1101C12.7501 5.08004 14.0801 6.46004 14.0801 8.16004C14.0801 8.57004 13.7401 8.91004 13.3301 8.91004C12.9201 8.91004 12.5801 8.57004 12.5801 8.16004C12.5801 7.29004 11.9201 6.58004 11.1101 6.58004H10.7501V9.96004L12.2601 10.5Z" fill="currentColor"/>
</svg>
