<svg width="12" height="15" viewBox="0 0 12 15" fill="none" xmlns="http://www.w3.org/2000/svg">
<path d="M0.956563 14.6914C0.809896 14.6914 0.689896 14.6447 0.596563 14.5514C0.503229 14.4581 0.456563 14.3381 0.456563 14.1914V1.19141C0.456563 1.04474 0.503229 0.924739 0.596563 0.831406C0.689896 0.738072 0.809896 0.691405 0.956563 0.691405H6.89656C8.00323 0.691405 8.9099 0.851405 9.61656 1.17141C10.3232 1.49141 10.8432 1.94474 11.1766 2.53141C11.5232 3.11807 11.6966 3.80474 11.6966 4.59141C11.6966 5.08474 11.6032 5.51807 11.4166 5.89141C11.2432 6.26474 11.0232 6.57141 10.7566 6.81141C10.5032 7.05141 10.2566 7.23141 10.0166 7.35141C10.5366 7.59141 10.9899 7.99141 11.3766 8.55141C11.7766 9.09807 11.9766 9.75141 11.9766 10.5114C11.9766 11.3514 11.7899 12.0847 11.4166 12.7114C11.0432 13.3381 10.4899 13.8247 9.75656 14.1714C9.02323 14.5181 8.1299 14.6914 7.07656 14.6914H0.956563ZM3.63656 12.3514H6.69656C7.3499 12.3514 7.84323 12.1714 8.17656 11.8114C8.5099 11.4381 8.67656 10.9981 8.67656 10.4914C8.67656 9.97141 8.50323 9.53807 8.15656 9.19141C7.82323 8.83141 7.33656 8.65141 6.69656 8.65141H3.63656V12.3514ZM3.63656 6.35141H6.51656C7.14323 6.35141 7.6099 6.19807 7.91656 5.89141C8.23656 5.57141 8.39656 5.16474 8.39656 4.67141C8.39656 4.17807 8.23656 3.78474 7.91656 3.49141C7.6099 3.18474 7.14323 3.03141 6.51656 3.03141H3.63656V6.35141Z" fill="black"/>
</svg>
