<svg width="20" height="20" viewBox="0 0 20 20" fill="none" xmlns="http://www.w3.org/2000/svg">
<path d="M12.418 1.66797H7.58464C7.01797 1.66797 6.21797 2.00131 5.81797 2.40131L2.40131 5.81798C2.00131 6.21798 1.66797 7.01797 1.66797 7.58464V12.418C1.66797 12.9846 2.00131 13.7846 2.40131 14.1846L5.81797 17.6013C6.21797 18.0013 7.01797 18.3346 7.58464 18.3346H12.418C12.9846 18.3346 13.7846 18.0013 14.1846 17.6013L17.6013 14.1846C18.0013 13.7846 18.3346 12.9846 18.3346 12.418V7.58464C18.3346 7.01797 18.0013 6.21798 17.6013 5.81798L14.1846 2.40131C13.7846 2.00131 12.9846 1.66797 12.418 1.66797Z" stroke="#757575" stroke-width="1.25" stroke-linecap="round" stroke-linejoin="round"/>
<path d="M7.08203 12.9154L12.9154 7.08203" stroke="#757575" stroke-width="1.25" stroke-linecap="round" stroke-linejoin="round"/>
<path d="M12.9154 12.9154L7.08203 7.08203" stroke="#757575" stroke-width="1.25" stroke-linecap="round" stroke-linejoin="round"/>
</svg>
