<svg width="26" height="15" viewBox="0 0 26 15" fill="none" xmlns="http://www.w3.org/2000/svg">
<path d="M4.29656 14.8914C3.5899 14.8914 2.95656 14.7581 2.39656 14.4914C1.83656 14.2114 1.3899 13.8381 1.05656 13.3714C0.723229 12.9047 0.556563 12.3847 0.556563 11.8114C0.556563 10.8647 0.936563 10.1181 1.69656 9.57141C2.4699 9.02474 3.48323 8.65141 4.73656 8.45141L7.35656 8.07141V7.71141C7.35656 7.19141 7.23656 6.79141 6.99656 6.51141C6.75656 6.23141 6.33656 6.09141 5.73656 6.09141C5.29656 6.09141 4.94323 6.17807 4.67656 6.35141C4.4099 6.52474 4.20323 6.75141 4.05656 7.03141C3.9499 7.20474 3.79656 7.29141 3.59656 7.29141H1.69656C1.5499 7.29141 1.43656 7.25141 1.35656 7.17141C1.27656 7.07807 1.24323 6.97141 1.25656 6.85141C1.25656 6.62474 1.34323 6.35807 1.51656 6.05141C1.6899 5.74474 1.95656 5.44474 2.31656 5.15141C2.67656 4.84474 3.13656 4.59141 3.69656 4.39141C4.25656 4.19141 4.94323 4.09141 5.75656 4.09141C6.59656 4.09141 7.31656 4.19141 7.91656 4.39141C8.51656 4.59141 8.99656 4.87141 9.35656 5.23141C9.71656 5.59141 9.98323 6.01141 10.1566 6.49141C10.3299 6.95807 10.4166 7.46474 10.4166 8.01141V14.1914C10.4166 14.3381 10.3699 14.4581 10.2766 14.5514C10.1832 14.6447 10.0632 14.6914 9.91656 14.6914H7.95656C7.82323 14.6914 7.7099 14.6447 7.61656 14.5514C7.52323 14.4581 7.47656 14.3381 7.47656 14.1914V13.4514C7.30323 13.7047 7.0699 13.9447 6.77656 14.1714C6.48323 14.3847 6.1299 14.5581 5.71656 14.6914C5.31656 14.8247 4.84323 14.8914 4.29656 14.8914ZM5.09656 12.8114C5.53656 12.8114 5.9299 12.7181 6.27656 12.5314C6.62323 12.3447 6.89656 12.0581 7.09656 11.6714C7.29656 11.2847 7.39656 10.7981 7.39656 10.2114V9.87141L5.53656 10.1714C4.81656 10.2914 4.2899 10.4714 3.95656 10.7114C3.62323 10.9514 3.45656 11.2447 3.45656 11.5914C3.45656 11.8447 3.5299 12.0647 3.67656 12.2514C3.83656 12.4381 4.04323 12.5781 4.29656 12.6714C4.5499 12.7647 4.81656 12.8114 5.09656 12.8114ZM12.2381 14.6914C12.1181 14.6914 12.0181 14.6514 11.9381 14.5714C11.8581 14.4781 11.8181 14.3781 11.8181 14.2714C11.8181 14.2047 11.8248 14.1447 11.8381 14.0914L16.5981 1.23141C16.6381 1.08474 16.7181 0.958073 16.8381 0.851406C16.9581 0.744739 17.1248 0.691405 17.3381 0.691405H19.8981C20.1115 0.691405 20.2781 0.744739 20.3981 0.851406C20.5181 0.958073 20.5981 1.08474 20.6381 1.23141L25.3981 14.0914C25.4115 14.1447 25.4181 14.2047 25.4181 14.2714C25.4181 14.3781 25.3781 14.4781 25.2981 14.5714C25.2181 14.6514 25.1181 14.6914 24.9981 14.6914H22.9181C22.7181 14.6914 22.5715 14.6447 22.4781 14.5514C22.3848 14.4581 22.3248 14.3714 22.2981 14.2914L21.4381 12.0514H15.7981L14.9381 14.2914C14.9115 14.3714 14.8515 14.4581 14.7581 14.5514C14.6648 14.6447 14.5181 14.6914 14.3181 14.6914H12.2381ZM16.5381 9.47141H20.6781L18.6181 3.71141L16.5381 9.47141Z" fill="black"/>
</svg>
