<svg width="25" height="25" viewBox="0 0 25 25" fill="none" xmlns="http://www.w3.org/2000/svg">
<path d="M16.8847 13.0628H21.5747C21.4947 17.7328 20.5747 18.5028 17.7047 20.2028C17.3747 20.4028 17.2647 20.8228 17.4647 21.1628C17.6647 21.4928 18.0847 21.6028 18.4247 21.4028C21.8047 19.4028 22.9847 18.1828 22.9847 12.3628V6.97281C22.9847 5.26281 21.5947 3.88281 19.8947 3.88281H16.8947C15.1347 3.88281 13.8047 5.21281 13.8047 6.97281V9.97281C13.7947 11.7328 15.1247 13.0628 16.8847 13.0628Z" fill="#444444"/>
<path d="M6.06656 13.0628H10.7566C10.6766 17.7328 9.75656 18.5028 6.88656 20.2028C6.55656 20.4028 6.44656 20.8228 6.64656 21.1628C6.84656 21.4928 7.26656 21.6028 7.60656 21.4028C10.9866 19.4028 12.1666 18.1828 12.1666 12.3628V6.97281C12.1666 5.26281 10.7766 3.88281 9.07656 3.88281H6.07656C4.30656 3.88281 2.97656 5.21281 2.97656 6.97281V9.97281C2.97656 11.7328 4.30656 13.0628 6.06656 13.0628Z" fill="#444444"/>
</svg>
