<svg width="19" height="21" viewBox="0 0 19 21" fill="none" xmlns="http://www.w3.org/2000/svg">
<path d="M13.9766 0.691406H5.97656C2.47656 0.691406 0.976562 2.69141 0.976562 5.69141V15.6914C0.976562 18.6914 2.47656 20.6914 5.97656 20.6914H13.9766C17.4766 20.6914 18.9766 18.6914 18.9766 15.6914V5.69141C18.9766 2.69141 17.4766 0.691406 13.9766 0.691406ZM8.50656 15.1614C8.79656 15.4514 8.79656 15.9314 8.50656 16.2214C8.35656 16.3714 8.16656 16.4414 7.97656 16.4414C7.78656 16.4414 7.59656 16.3714 7.44656 16.2214L5.44656 14.2214C5.15656 13.9314 5.15656 13.4514 5.44656 13.1614L7.44656 11.1614C7.73656 10.8714 8.21656 10.8714 8.50656 11.1614C8.79656 11.4514 8.79656 11.9314 8.50656 12.2214L7.03656 13.6914L8.50656 15.1614ZM14.5066 14.2214L12.5066 16.2214C12.3566 16.3714 12.1666 16.4414 11.9766 16.4414C11.7866 16.4414 11.5966 16.3714 11.4466 16.2214C11.1566 15.9314 11.1566 15.4514 11.4466 15.1614L12.9166 13.6914L11.4466 12.2214C11.1566 11.9314 11.1566 11.4514 11.4466 11.1614C11.7366 10.8714 12.2166 10.8714 12.5066 11.1614L14.5066 13.1614C14.7966 13.4514 14.7966 13.9314 14.5066 14.2214ZM16.4766 7.94141H14.4766C12.9566 7.94141 11.7266 6.71141 11.7266 5.19141V3.19141C11.7266 2.78141 12.0666 2.44141 12.4766 2.44141C12.8866 2.44141 13.2266 2.78141 13.2266 3.19141V5.19141C13.2266 5.88141 13.7866 6.44141 14.4766 6.44141H16.4766C16.8866 6.44141 17.2266 6.78141 17.2266 7.19141C17.2266 7.60141 16.8866 7.94141 16.4766 7.94141Z" fill="#444444"/>
</svg>
