<svg width="56" height="56" viewBox="0 0 56 56" fill="none" xmlns="http://www.w3.org/2000/svg">
<path d="M29.332 26.8672H21.332" stroke="white" stroke-width="1.5" stroke-linecap="round" stroke-linejoin="round"/>
<path d="M14.668 26.8691V20.7091C14.668 17.9891 16.868 15.7891 19.588 15.7891H27.0813C29.8013 15.7891 32.0013 17.4824 32.0013 20.2024" stroke="white" stroke-width="1.5" stroke-linecap="round" stroke-linejoin="round"/>
<path d="M35.3079 28.2698C34.6413 28.9098 34.3213 29.8964 34.588 30.9097C34.9213 32.1497 36.148 32.9364 37.428 32.9364H38.668V34.8698C38.668 37.8165 36.2813 40.2031 33.3346 40.2031H20.0013C17.0546 40.2031 14.668 37.8165 14.668 34.8698V25.5365C14.668 22.5898 17.0546 20.2031 20.0013 20.2031H33.3346C36.268 20.2031 38.668 22.6031 38.668 25.5365V27.4697H37.2279C36.4813 27.4697 35.8013 27.7631 35.3079 28.2698Z" stroke="white" stroke-width="1.5" stroke-linecap="round" stroke-linejoin="round"/>
<path d="M41.3349 28.8288V31.5754C41.3349 32.3221 40.7215 32.9355 39.9615 32.9355H37.3882C35.9482 32.9355 34.6283 31.8821 34.5083 30.4421C34.4283 29.6021 34.7482 28.8155 35.3082 28.2688C35.8016 27.7621 36.4816 27.4688 37.2282 27.4688H39.9615C40.7215 27.4688 41.3349 28.0821 41.3349 28.8288Z" stroke="white" stroke-width="1.5" stroke-linecap="round" stroke-linejoin="round"/>
<rect x="0.5" y="0.5" width="55" height="55" rx="27.5" stroke="white"/>
</svg>
