<svg width="83" height="22" viewBox="0 0 83 22" fill="none" xmlns="http://www.w3.org/2000/svg">
<path d="M8.60933 1.18718C8.71062 1.18718 8.81092 1.21151 8.90449 1.25879C8.99807 1.30607 9.0831 1.37537 9.15472 1.46273C9.22634 1.55009 9.28315 1.6538 9.32191 1.76794C9.36067 1.88208 9.38062 2.00442 9.38062 2.12796C9.38062 2.25151 9.36067 2.37385 9.32191 2.48799C9.28315 2.60213 9.22634 2.70584 9.15472 2.7932C9.0831 2.88056 8.99807 2.94986 8.90449 2.99714C8.81092 3.04442 8.71062 3.06875 8.60933 3.06875H8.56887C8.37705 3.06138 8.19475 2.96514 8.05905 2.79962C7.92334 2.63409 7.84445 2.41172 7.8384 2.17775C7.84399 1.9264 7.91511 1.68375 8.04143 1.48504C8.11282 1.38834 8.20057 1.3117 8.29863 1.26043C8.39668 1.20915 8.50269 1.18445 8.60933 1.18804M8.60933 4.59378e-05C8.15122 -0.00362158 7.71027 0.212442 7.38154 0.601658C7.05282 0.990873 6.86265 1.52207 6.85203 2.08072C6.84142 2.63937 7.0112 3.18075 7.32479 3.58812C7.63837 3.9955 8.07064 4.23625 8.52841 4.25848H8.60933C9.0723 4.25848 9.5163 4.03415 9.84366 3.63485C10.171 3.23554 10.3549 2.69397 10.3549 2.12926C10.3549 1.56456 10.171 1.02298 9.84366 0.623679C9.5163 0.224374 9.0723 4.59378e-05 8.60933 4.59378e-05Z" fill="#FF4F1F"/>
<path d="M7.42095 14.9513C7.89464 14.9513 8.34893 15.1808 8.68388 15.5894C9.01884 15.9979 9.20701 16.552 9.20701 17.1298C9.20701 17.7076 9.01884 18.2618 8.68388 18.6703C8.34893 19.0789 7.89464 19.3084 7.42095 19.3084H5.51633C5.04264 19.3084 4.58835 19.0789 4.2534 18.6703C3.91844 18.2618 3.73027 17.7076 3.73027 17.1298C3.73027 16.552 3.91844 15.9979 4.2534 15.5894C4.58835 15.1808 5.04264 14.9513 5.51633 14.9513H7.42095ZM7.42095 13.5156H5.51633C4.74122 13.5156 3.99785 13.8912 3.44975 14.5597C2.90166 15.2283 2.59375 16.135 2.59375 17.0805C2.59375 18.0259 2.90166 18.9327 3.44975 19.6012C3.99785 20.2698 4.74122 20.6453 5.51633 20.6453H7.42095C8.19606 20.6453 8.93944 20.2698 9.48753 19.6012C10.0356 18.9327 10.3435 18.0259 10.3435 17.0805C10.3435 16.135 10.0356 15.2283 9.48753 14.5597C8.93944 13.8912 8.19606 13.5156 7.42095 13.5156Z" fill="#FF4F1F"/>
<path d="M7.42892 6.58408C7.90261 6.58408 8.3569 6.81361 8.69185 7.22217C9.0268 7.63073 9.21498 8.18486 9.21498 8.76265C9.21498 9.34044 9.0268 9.89457 8.69185 10.3031C8.3569 10.7117 7.90261 10.9412 7.42892 10.9412H2.92258C2.44889 10.9412 1.9946 10.7117 1.65965 10.3031C1.3247 9.89457 1.13652 9.34044 1.13652 8.76265C1.13652 8.18486 1.3247 7.63073 1.65965 7.22217C1.9946 6.81361 2.44889 6.58408 2.92258 6.58408H7.42821M7.42821 5.14844H2.92258C2.14747 5.14844 1.4041 5.52402 0.856005 6.19256C0.307914 6.8611 0 7.76784 0 8.7133C0 9.65875 0.307914 10.5655 0.856005 11.234C1.4041 11.9026 2.14747 12.2782 2.92258 12.2782H7.42821C7.81201 12.2782 8.19205 12.1859 8.54663 12.0068C8.90122 11.8276 9.2234 11.5651 9.49479 11.234C9.76617 10.903 9.98145 10.51 10.1283 10.0775C10.2752 9.645 10.3508 9.18144 10.3508 8.7133C10.3508 8.24515 10.2752 7.78159 10.1283 7.34908C9.98145 6.91657 9.76617 6.52359 9.49479 6.19256C9.2234 5.86153 8.90122 5.59895 8.54663 5.4198C8.19205 5.24065 7.81201 5.14844 7.42821 5.14844Z" fill="#FF4F1F"/>
<path d="M26.0156 20.6954V5.14844H33.2003V6.68366H27.3147V12.0807H32.592V13.5657H27.3147V19.1611H33.2011V20.6963L26.0156 20.6954Z" fill="#4E5054"/>
<path d="M47.0859 20.6954V5.14844H54.2707V6.68366H48.385V12.0807H53.6623V13.5657H48.385V19.1611H54.2714V20.6963L47.0859 20.6954Z" fill="#4E5054"/>
<path d="M68.5213 20.6954V14.2593L64.2188 5.14844H65.6804L69.1716 12.6254L72.6628 5.14844H74.0826L69.8233 14.2593V20.6963L68.5213 20.6954Z" fill="#4E5054"/>
<path d="M44.49 20.6954V5.14844H43.2314V17.8242L36.9397 5.14844H35.6406V20.6954H36.9397V8.02059L43.2314 20.6963L44.49 20.6954Z" fill="#4E5054"/>
<path d="M19.3182 14.0128H22.3629V15.251C22.3629 18.2713 20.7799 19.3605 19.3182 19.3605C17.8566 19.3605 16.2735 18.2713 16.2735 15.251V10.596C16.2735 7.57582 17.8566 6.48653 19.3182 6.48653C20.056 6.44723 20.7781 6.75358 21.3367 7.34281C21.8953 7.93203 22.2479 8.75951 22.3224 9.65568H23.5811C23.5114 8.35027 23.0278 7.12922 22.2327 6.25124C21.4377 5.37326 20.3936 4.90733 19.3218 4.95218C16.7193 4.95131 15.0156 7.2286 15.0156 10.596V15.2502C15.0156 18.6167 16.7612 20.8949 19.3182 20.8949C21.9164 20.8949 23.6208 18.6176 23.6208 15.2502V12.4793H19.3182V14.0128Z" fill="#4E5054"/>
<path d="M57.112 15.9937C57.1108 16.4445 57.1841 16.8909 57.3274 17.3063C57.4707 17.7218 57.6811 18.0978 57.9461 18.4119C58.2111 18.7261 58.5252 18.972 58.8697 19.1349C59.2143 19.2978 59.5821 19.3745 59.9515 19.3603C61.575 19.3603 62.4276 18.42 62.4276 16.6371C62.4331 16.0254 62.2608 15.4311 61.9413 14.9597C61.6217 14.4883 61.1755 14.1702 60.682 14.062L58.5303 13.3692C57.7787 13.1445 57.1154 12.6057 56.6556 11.8464C56.1959 11.0871 55.9688 10.1553 56.0138 9.21298C56.0138 6.68806 57.4754 5.00391 59.6668 5.00391C62.1834 5.00391 63.2794 7.13312 63.5229 9.26234H62.2643C62.203 8.49667 61.9044 7.78842 61.4294 7.28229C60.9545 6.77615 60.339 6.51033 59.7087 6.53912C58.2471 6.53912 57.3136 7.57819 57.3136 9.21298C57.2901 9.826 57.4439 10.4296 57.7482 10.9183C58.0524 11.4071 58.4878 11.7499 58.9782 11.8868L61.2108 12.6298C61.958 12.8546 62.6194 13.3853 63.0845 14.1332C63.5496 14.8811 63.7903 15.801 63.7664 16.7393C63.7664 19.3638 62.3047 20.9977 59.9912 20.9977C59.4536 21.026 58.9169 20.9193 58.4143 20.6842C57.9118 20.4492 57.4543 20.0908 57.0699 19.6313C56.6856 19.1718 56.3827 18.6209 56.18 18.0127C55.9774 17.4046 55.8792 16.7522 55.8917 16.0959L57.112 15.9937Z" fill="#4E5054"/>
<path d="M75.9061 15.9938C75.9049 16.4445 75.9782 16.8909 76.1215 17.3063C76.2648 17.7218 76.4752 18.0978 76.7402 18.4119C77.0052 18.7261 77.3193 18.972 77.6638 19.1349C78.0083 19.2978 78.3763 19.3745 78.7456 19.3603C80.3691 19.3603 81.2217 18.42 81.2217 16.6371C81.2272 16.0254 81.0549 15.4311 80.7354 14.9597C80.4158 14.4883 79.9696 14.1702 79.4761 14.062L77.3244 13.3692C76.5728 13.1445 75.9095 12.6057 75.4497 11.8464C74.99 11.0871 74.7629 10.1553 74.8079 9.21298C74.8079 6.68806 76.2695 5.00391 78.4609 5.00391C80.9775 5.00391 82.0735 7.13312 82.317 9.26234H81.0584C80.9971 8.49667 80.6985 7.78842 80.2235 7.28229C79.7486 6.77615 79.1331 6.51033 78.5028 6.53912C77.0412 6.53912 76.1077 7.57819 76.1077 9.21298C76.0842 9.826 76.238 10.4296 76.5423 10.9183C76.8465 11.4071 77.2819 11.7499 77.7723 11.8868L80.0049 12.6298C80.7521 12.8546 81.4135 13.3853 81.8786 14.1332C82.3437 14.8811 82.5844 15.801 82.5605 16.7393C82.5605 19.3638 81.0988 20.9977 78.7853 20.9977C78.2476 21.0255 77.711 20.9184 77.2086 20.6829C76.7063 20.4474 76.2489 20.0886 75.8648 19.6288C75.4808 19.1689 75.1782 18.6178 74.9759 18.0095C74.7736 17.4012 74.6758 16.7487 74.6886 16.0925L75.9061 15.9938Z" fill="#4E5054"/>
</svg>
