<svg width="62" height="22" viewBox="0 0 62 22" fill="none" xmlns="http://www.w3.org/2000/svg">
<path d="M7.75554 7.85V10.2H12.7634C12.6305 11.5 12.2316 12.5 11.6112 13.15C10.9021 13.95 9.74982 14.85 7.75554 14.85C4.69764 14.85 2.3045 12.05 2.3045 8.6C2.3045 5.15 4.65332 2.35 7.75554 2.35C9.39528 2.35 10.6362 3.1 11.5225 4.05L12.985 2.4C11.7441 1.05 10.06 0 7.75554 0C3.54539 0 0 3.85 0 8.6C0 13.35 3.54539 17.2 7.75554 17.2C10.0157 17.2 11.7441 16.35 13.0736 14.8C14.4475 13.25 14.8906 11.05 14.8906 9.3C14.8906 8.75 14.8463 8.25 14.802 7.85H7.75554Z" fill="#4285F4"/>
<path d="M21.0964 5.89844C18.393 5.89844 16.1328 8.24844 16.1328 11.4484C16.1328 14.6484 18.3487 16.9984 21.0964 16.9984C23.844 16.9984 26.0599 14.6984 26.0599 11.4984C26.0599 8.24844 23.844 5.89844 21.0964 5.89844ZM21.0964 14.8484C19.5896 14.8484 18.3044 13.4484 18.3044 11.4984C18.3044 9.49844 19.5896 8.14844 21.0964 8.14844C22.6031 8.14844 23.8884 9.49844 23.8884 11.4984C23.8884 13.4484 22.6031 14.8484 21.0964 14.8484Z" fill="#EA4335"/>
<path d="M45.3358 7.14844H45.2472C44.7597 6.49844 43.829 5.89844 42.6324 5.89844C40.1507 5.89844 38.0234 8.29844 38.0234 11.4484C38.0234 14.5484 40.1507 16.9984 42.6324 16.9984C43.829 16.9984 44.7597 16.3984 45.2472 15.7484H45.3358V16.5484C45.3358 18.6484 44.3165 19.7984 42.7211 19.7984C41.3916 19.7984 40.5938 18.7484 40.2393 17.7984L38.378 18.6984C38.9098 20.1484 40.3723 21.9984 42.7654 21.9984C45.2915 21.9984 47.463 20.2984 47.463 16.1984V6.19844H45.4244V7.14844H45.3358ZM42.854 14.8484C41.3472 14.8484 40.2393 13.3984 40.2393 11.4984C40.2393 9.54844 41.3916 8.14844 42.854 8.14844C44.3165 8.14844 45.4688 9.59844 45.4688 11.5484C45.5131 13.4484 44.3608 14.8484 42.854 14.8484Z" fill="#4285F4"/>
<path d="M32.1276 5.89844C29.4242 5.89844 27.1641 8.24844 27.1641 11.4484C27.1641 14.6484 29.3799 16.9984 32.1276 16.9984C34.8753 16.9984 37.0912 14.6984 37.0912 11.4984C37.0912 8.24844 34.8753 5.89844 32.1276 5.89844ZM32.1276 14.8484C30.6208 14.8484 29.3356 13.4484 29.3356 11.4984C29.3356 9.49844 30.6208 8.14844 32.1276 8.14844C33.6344 8.14844 34.9196 9.49844 34.9196 11.4984C34.9196 13.4484 33.6344 14.8484 32.1276 14.8484Z" fill="#FBBC05"/>
<path d="M49.1016 0.25H51.2288V17.05H49.1016V0.25Z" fill="#34A853"/>
<path d="M57.789 14.8484C56.681 14.8484 55.9276 14.2984 55.3958 13.1484L61.9991 10.0984L61.7775 9.44844C61.3787 8.19844 60.0935 5.89844 57.5674 5.89844C55.0413 5.89844 52.9141 8.14844 52.9141 11.4484C52.9141 14.5484 54.997 16.9984 57.789 16.9984C60.0492 16.9984 61.3344 15.4484 61.9105 14.5484L60.2264 13.2984C59.6503 14.2484 58.8969 14.8484 57.789 14.8484ZM57.656 7.99844C58.5424 7.99844 59.2958 8.49844 59.5174 9.19844L55.0856 11.2984C55.0413 8.99844 56.5481 7.99844 57.656 7.99844Z" fill="#EA4335"/>
</svg>
