<svg width="101" height="80" viewBox="0 0 101 80" fill="none" xmlns="http://www.w3.org/2000/svg">
<path d="M90.5 0H10.5C5 0 0.55 4.5 0.55 10L0.5 70C0.5 75.5 5 80 10.5 80H90.5C96 80 100.5 75.5 100.5 70V10C100.5 4.5 96 0 90.5 0ZM88.5 21.25L53.15 43.35C51.55 44.35 49.45 44.35 47.85 43.35L12.5 21.25C11.9986 20.9686 11.5596 20.5883 11.2094 20.1323C10.8593 19.6762 10.6053 19.1539 10.4629 18.5969C10.3204 18.0398 10.2925 17.4597 10.3808 16.8915C10.4691 16.3234 10.6717 15.7791 10.9764 15.2915C11.2811 14.8039 11.6816 14.3833 12.1536 14.055C12.6256 13.7267 13.1594 13.4976 13.7225 13.3815C14.2856 13.2654 14.8664 13.2648 15.4298 13.3797C15.9931 13.4946 16.5273 13.7227 17 14.05L50.5 35L84 14.05C84.4727 13.7227 85.0069 13.4946 85.5702 13.3797C86.1336 13.2648 86.7144 13.2654 87.2775 13.3815C87.8406 13.4976 88.3744 13.7267 88.8464 14.055C89.3184 14.3833 89.7189 14.8039 90.0236 15.2915C90.3283 15.7791 90.531 16.3234 90.6192 16.8915C90.7075 17.4597 90.6796 18.0398 90.5371 18.5969C90.3947 19.1539 90.1407 19.6762 89.7906 20.1323C89.4404 20.5883 89.0014 20.9686 88.5 21.25Z" fill="#492B7C"/>
</svg>
