<svg width="101" height="27" viewBox="0 0 101 27" fill="none" xmlns="http://www.w3.org/2000/svg">
<path d="M13.5517 1.57236C12.6515 0.902466 11.5199 0.703726 10.4453 1.02605L3.17614 3.20675C1.67861 3.65629 0.671875 5.00829 0.671875 6.57239V22.1091C0.671875 23.231 1.18799 24.2583 2.08806 24.9271C2.98829 25.5971 4.12108 25.7958 5.19448 25.4735L10.6209 23.8452C10.4512 23.2855 10.3653 22.7015 10.3653 22.1091V15.0531C10.3653 13.5715 10.9057 12.1563 11.8894 11.0708C12.6114 10.2712 13.548 9.68121 14.5948 9.36622L14.9679 9.25964V4.39161C14.9679 3.2697 14.4518 2.24234 13.5516 1.57236H13.5517Z" fill="#C47AFF"/>
<path d="M27.0852 12.8722V19.9281C27.0852 21.491 26.0796 22.8442 24.5809 23.2925L17.3118 25.4733C16.975 25.5751 16.6321 25.6248 16.2929 25.6248C15.5501 25.6248 14.8232 25.3874 14.2053 24.9269C13.923 24.7162 13.6783 24.4726 13.4772 24.2C13.2325 23.8729 13.0495 23.5083 12.9344 23.1169C12.9332 23.1169 12.932 23.1169 12.9308 23.1181L12.9332 23.1157C12.84 22.7946 12.7891 22.4566 12.7891 22.1088V15.0529C12.7891 14.3284 13.0047 13.6488 13.3852 13.0842C13.7656 12.5196 14.3108 12.0689 14.9698 11.8011C15.0753 11.7587 15.1831 11.7199 15.2934 11.6873L16.1827 11.4207L22.5627 9.50652C23.6372 9.18419 24.7689 9.38293 25.669 10.0529C26.5692 10.7229 27.0853 11.7502 27.0853 12.8722H27.0852Z" fill="#1D1DD8"/>
<path d="M35.8291 19.75C35.7 19.75 35.5943 19.7089 35.5122 19.6267C35.43 19.5446 35.3889 19.4389 35.3889 19.3098V7.86484C35.3889 7.73572 35.43 7.63008 35.5122 7.54791C35.5943 7.46574 35.7 7.42465 35.8291 7.42465H40.2486C41.4225 7.42465 42.4026 7.61247 43.1891 7.9881C43.9756 8.35199 44.5742 8.89196 44.9851 9.608C45.4076 10.3123 45.6307 11.1868 45.6542 12.2315C45.6659 12.748 45.6718 13.2 45.6718 13.5873C45.6718 13.9747 45.6659 14.4208 45.6542 14.9255C45.6189 16.0172 45.4018 16.921 45.0027 17.6371C44.6036 18.3531 44.0166 18.8872 43.2419 19.2394C42.4672 19.5798 41.4988 19.75 40.3366 19.75H35.8291ZM38.1885 17.4786H40.2486C40.8355 17.4786 41.3168 17.3906 41.6924 17.2145C42.0681 17.0384 42.3439 16.7626 42.52 16.3869C42.7078 15.9996 42.8076 15.5007 42.8193 14.8903C42.8311 14.5499 42.8369 14.2447 42.8369 13.9747C42.8487 13.7047 42.8487 13.4347 42.8369 13.1647C42.8369 12.8948 42.8311 12.5954 42.8193 12.2668C42.7958 11.3864 42.5669 10.7408 42.1326 10.3299C41.71 9.90733 41.0527 9.69604 40.1606 9.69604H38.1885V17.4786ZM51.7637 19.9261C50.4138 19.9261 49.3397 19.5504 48.5415 18.7992C47.7551 18.0479 47.3383 16.9563 47.2914 15.5242C47.2914 15.4303 47.2914 15.307 47.2914 15.1544C47.2914 14.9901 47.2914 14.8609 47.2914 14.767C47.3383 13.8632 47.5438 13.0884 47.9077 12.4428C48.2715 11.7855 48.7822 11.2866 49.4395 10.9462C50.0969 10.594 50.8657 10.418 51.7461 10.418C52.7322 10.418 53.5538 10.6234 54.2112 11.0342C54.8803 11.4333 55.3792 11.985 55.7078 12.6893C56.0483 13.3819 56.2185 14.1801 56.2185 15.084V15.489C56.2185 15.6063 56.1715 15.7061 56.0776 15.7883C55.9954 15.8705 55.8957 15.9115 55.7783 15.9115H50.0206C50.0206 15.9233 50.0206 15.9468 50.0206 15.982C50.0206 16.0054 50.0206 16.0289 50.0206 16.0524C50.0323 16.428 50.1027 16.7743 50.2319 17.0912C50.3727 17.3964 50.5664 17.643 50.8129 17.8308C51.0712 18.0186 51.3764 18.1125 51.7285 18.1125C52.022 18.1125 52.2626 18.0714 52.4504 17.9892C52.6382 17.9071 52.7908 17.8073 52.9082 17.6899C53.0373 17.5725 53.1313 17.4727 53.1899 17.3906C53.2956 17.2732 53.3778 17.2028 53.4365 17.1793C53.5069 17.1441 53.6125 17.1265 53.7534 17.1265H55.5846C55.702 17.1265 55.7959 17.1617 55.8663 17.2321C55.9485 17.2908 55.9837 17.3788 55.972 17.4962C55.9602 17.684 55.8604 17.9188 55.6726 18.2005C55.4965 18.4705 55.2324 18.7405 54.8803 19.0105C54.5281 19.2687 54.0879 19.4859 53.5597 19.662C53.0432 19.838 52.4446 19.9261 51.7637 19.9261ZM50.0206 14.3092H53.4717V14.274C53.4717 13.8514 53.4012 13.4876 53.2604 13.1824C53.1313 12.8654 52.9376 12.6189 52.6793 12.4428C52.4211 12.2668 52.11 12.1787 51.7461 12.1787C51.3822 12.1787 51.0712 12.2668 50.8129 12.4428C50.5547 12.6189 50.3551 12.8654 50.2143 13.1824C50.0851 13.4876 50.0206 13.8514 50.0206 14.274V14.3092ZM60.8744 19.75C60.6984 19.75 60.5634 19.7089 60.4695 19.6267C60.3873 19.5328 60.3169 19.4272 60.2582 19.3098L56.9479 11.1399C56.9245 11.0929 56.9127 11.0401 56.9127 10.9814C56.9127 10.8758 56.9479 10.7877 57.0184 10.7173C57.1005 10.6351 57.1944 10.594 57.3001 10.594H59.008C59.1606 10.594 59.2721 10.6351 59.3426 10.7173C59.4247 10.7995 59.4776 10.8758 59.501 10.9462L61.6668 16.7567L63.8325 10.9462C63.8677 10.8758 63.9206 10.7995 63.991 10.7173C64.0732 10.6351 64.1847 10.594 64.3255 10.594H66.0335C66.1391 10.594 66.2272 10.6351 66.2976 10.7173C66.3798 10.7877 66.4209 10.8758 66.4209 10.9814C66.4209 11.0401 66.415 11.0929 66.4032 11.1399L63.0754 19.3098C63.0284 19.4272 62.958 19.5328 62.8641 19.6267C62.7702 19.7089 62.6352 19.75 62.4591 19.75H60.8744ZM66.7528 19.75C66.6471 19.75 66.5591 19.7148 66.4887 19.6444C66.4182 19.5622 66.383 19.4741 66.383 19.3802C66.383 19.3215 66.3889 19.2687 66.4006 19.2218L70.5912 7.90006C70.6265 7.77094 70.6969 7.65942 70.8025 7.56551C70.9082 7.47161 71.0549 7.42465 71.2427 7.42465H73.4965C73.6843 7.42465 73.8311 7.47161 73.9367 7.56551C74.0423 7.65942 74.1128 7.77094 74.148 7.90006L78.3386 19.2218C78.3503 19.2687 78.3562 19.3215 78.3562 19.3802C78.3562 19.4741 78.321 19.5622 78.2506 19.6444C78.1801 19.7148 78.0921 19.75 77.9865 19.75H76.1553C75.9792 19.75 75.8501 19.7089 75.7679 19.6267C75.6857 19.5446 75.6329 19.4683 75.6094 19.3978L74.8523 17.4258H69.8869L69.1298 19.3978C69.1063 19.4683 69.0535 19.5446 68.9713 19.6267C68.8892 19.7089 68.7601 19.75 68.584 19.75H66.7528ZM70.5384 15.1544H74.1832L72.3696 10.0834L70.5384 15.1544ZM83.2881 19.9261C82.5604 19.9261 81.9324 19.8439 81.4041 19.6796C80.8876 19.5035 80.465 19.2922 80.1364 19.0457C79.8194 18.7992 79.5788 18.5527 79.4145 18.3062C79.2619 18.0479 79.1797 17.8308 79.168 17.6547C79.1562 17.5256 79.1973 17.4199 79.2912 17.3378C79.3851 17.2556 79.479 17.2145 79.5729 17.2145H81.2809C81.3161 17.2145 81.3513 17.2204 81.3865 17.2321C81.4217 17.2438 81.4569 17.2732 81.4922 17.3201C81.6448 17.4258 81.8032 17.549 81.9676 17.6899C82.1319 17.819 82.3197 17.9305 82.531 18.0245C82.754 18.1184 83.0299 18.1653 83.3586 18.1653C83.7459 18.1653 84.0746 18.089 84.3446 17.9364C84.6146 17.7721 84.7496 17.5432 84.7496 17.2497C84.7496 17.0384 84.685 16.8623 84.5559 16.7215C84.4385 16.5806 84.2096 16.4515 83.8692 16.3341C83.5288 16.2167 83.024 16.0876 82.3549 15.9468C81.7211 15.8059 81.1811 15.6181 80.735 15.3833C80.289 15.1485 79.9544 14.8551 79.7314 14.5029C79.5084 14.139 79.3969 13.7047 79.3969 13.2C79.3969 12.7422 79.5377 12.302 79.8194 11.8794C80.1129 11.4568 80.5413 11.1105 81.1048 10.8405C81.6682 10.5588 82.3725 10.418 83.2177 10.418C83.8633 10.418 84.4268 10.5001 84.908 10.6645C85.4011 10.8171 85.8119 11.0166 86.1406 11.2631C86.4693 11.4979 86.7158 11.7444 86.8801 12.0026C87.0562 12.2491 87.1501 12.4663 87.1618 12.6541C87.1736 12.7715 87.1383 12.8713 87.0562 12.9535C86.974 13.0356 86.8801 13.0767 86.7745 13.0767H85.2074C85.1487 13.0767 85.0959 13.0708 85.0489 13.0591C85.002 13.0356 84.9609 13.0063 84.9257 12.9711C84.7848 12.8772 84.6381 12.7715 84.4855 12.6541C84.3446 12.525 84.1744 12.4135 83.9748 12.3196C83.7753 12.2257 83.517 12.1787 83.2001 12.1787C82.8127 12.1787 82.5134 12.2668 82.3021 12.4428C82.1026 12.6072 82.0028 12.8185 82.0028 13.0767C82.0028 13.241 82.0556 13.3936 82.1613 13.5345C82.2669 13.6754 82.4841 13.8045 82.8127 13.9219C83.1414 14.0393 83.6403 14.1625 84.3094 14.2916C85.1076 14.4325 85.7415 14.6438 86.211 14.9255C86.6805 15.2072 87.0151 15.5359 87.2146 15.9115C87.4259 16.2754 87.5316 16.6687 87.5316 17.0912C87.5316 17.643 87.3672 18.136 87.0386 18.5703C86.7099 18.9929 86.2286 19.3274 85.5947 19.5739C84.9726 19.8087 84.2037 19.9261 83.2881 19.9261ZM89.662 19.75C89.5328 19.75 89.4272 19.7089 89.345 19.6267C89.2629 19.5446 89.2218 19.4389 89.2218 19.3098V7.68877C89.2218 7.55964 89.2629 7.454 89.345 7.37183C89.4272 7.28966 89.5328 7.24858 89.662 7.24858H91.3875C91.5049 7.24858 91.6047 7.28966 91.6868 7.37183C91.769 7.454 91.8101 7.55964 91.8101 7.68877V13.6401L94.5217 10.8934C94.6156 10.8112 94.6978 10.7408 94.7682 10.6821C94.8504 10.6234 94.9736 10.594 95.1379 10.594H97.1276C97.245 10.594 97.3389 10.6351 97.4093 10.7173C97.4798 10.7877 97.515 10.8758 97.515 10.9814C97.515 11.0283 97.5032 11.0812 97.4798 11.1399C97.4563 11.1986 97.4152 11.2455 97.3565 11.2807L93.9582 14.6966L97.7967 19.0809C97.9023 19.1748 97.9552 19.2687 97.9552 19.3626C97.9552 19.4683 97.9141 19.5622 97.8319 19.6444C97.7615 19.7148 97.6734 19.75 97.5678 19.75H95.5253C95.3492 19.75 95.2201 19.7207 95.1379 19.662C95.0675 19.6033 94.9853 19.5328 94.8914 19.4507L91.8101 15.9996V19.3098C91.8101 19.4389 91.769 19.5446 91.6868 19.6267C91.6047 19.7089 91.5049 19.75 91.3875 19.75H89.662Z" fill="#0A0A48"/>
</svg>
