<svg width="43" height="24" viewBox="0 0 43 24" fill="none" xmlns="http://www.w3.org/2000/svg">
<path d="M41.8145 21.0227C42.3286 21.757 42.2184 22.7115 41.5942 23.2255C40.8599 23.7395 39.7951 23.6294 39.2811 23.0052L35.6095 18.2691L32.0112 22.8951C31.4972 23.6294 30.4324 23.6294 29.6981 23.1154C28.9638 22.6014 28.8536 21.6468 29.3677 20.9125L33.59 15.4421L29.4044 9.93488C28.8903 9.20059 29.0739 8.13587 29.7348 7.62187C30.4692 7.10786 31.5339 7.29144 32.048 7.9523L35.6462 12.6885L39.3178 8.17259C39.8318 7.43829 40.7865 7.32815 41.6309 7.84215C42.3653 8.35616 42.3653 9.42088 41.8512 10.1552L37.739 15.5155L41.8145 21.0227ZM22.6853 20.3618C19.9315 20.3618 17.7286 18.2691 17.7286 15.5155C17.7286 12.872 19.9315 10.6692 22.6853 10.6692C25.439 10.6692 27.642 12.872 27.642 15.5155C27.4951 18.2691 25.2921 20.3618 22.6853 20.3618ZM8.14558 20.3618C5.39185 20.3618 3.18886 18.2691 3.18886 15.5155C3.18886 12.872 5.39185 10.6692 8.14558 10.6692C10.8993 10.6692 13.1023 12.872 13.1023 15.5155C13.1023 18.2691 10.8626 20.3618 8.14558 20.3618ZM22.6853 7.54844C19.6378 7.54844 16.8841 9.23731 15.5256 11.7706C14.1304 9.20059 11.4133 7.54844 8.25573 7.54844C6.34647 7.54844 4.65752 8.17259 3.29901 9.12716V2.37169C3.29901 1.52726 2.56468 0.792969 1.7202 0.792969C0.765578 0.792969 0.03125 1.52726 0.03125 2.37169V15.6256C0.141399 20.0314 3.70289 23.5193 8.14558 23.5193C11.3032 23.5193 14.0569 21.7202 15.4154 19.1869C16.7739 21.7202 19.5277 23.5193 22.5751 23.5193C27.0912 23.5193 30.7996 19.9212 30.7996 15.4053C30.873 11.1097 27.2014 7.54844 22.6853 7.54844Z" fill="#0061D5"/>
</svg>
