<svg width="24" height="24" viewBox="0 0 24 24" fill="none" xmlns="http://www.w3.org/2000/svg">
<path d="M21.0763 8.58003V15.42C21.0763 16.54 20.4763 17.58 19.5063 18.15L13.5662 21.58C12.5962 22.14 11.3963 22.14 10.4163 21.58L4.47625 18.15C3.50625 17.59 2.90625 16.55 2.90625 15.42V8.58003C2.90625 7.46003 3.50625 6.41999 4.47625 5.84999L10.4163 2.42C11.3863 1.86 12.5862 1.86 13.5662 2.42L19.5063 5.84999C20.4763 6.41999 21.0763 7.45003 21.0763 8.58003Z" stroke="#8E8EEC" stroke-width="1.5" stroke-linecap="round" stroke-linejoin="round"/>
<path d="M12.0019 10.9998C13.2887 10.9998 14.3319 9.95662 14.3319 8.6698C14.3319 7.38298 13.2887 6.33984 12.0019 6.33984C10.7151 6.33984 9.67188 7.38298 9.67188 8.6698C9.67188 9.95662 10.7151 10.9998 12.0019 10.9998Z" stroke="#8E8EEC" stroke-width="1.5" stroke-linecap="round" stroke-linejoin="round"/>
<path d="M16 16.6603C16 14.8603 14.21 13.4004 12 13.4004C9.79 13.4004 8 14.8603 8 16.6603" stroke="#8E8EEC" stroke-width="1.5" stroke-linecap="round" stroke-linejoin="round"/>
</svg>
