<svg width="133" height="71" viewBox="0 0 133 71" fill="none" xmlns="http://www.w3.org/2000/svg">
<path d="M20.0904 63.7179C24.931 63.7179 28.8605 59.5175 28.8605 54.3433V44.9688H20.0904C15.2498 44.9688 11.3203 49.1691 11.3203 54.3433C11.3203 59.5175 15.2498 63.7179 20.0904 63.7179Z" fill="#0ACF83"/>
<path d="M11.3125 35.5855C11.3125 30.4113 15.242 26.2109 20.0826 26.2109H28.8527V44.9699H20.0826C15.242 44.9699 11.3125 40.7696 11.3125 35.5953V35.5855Z" fill="#A259FF"/>
<path d="M11.3125 16.8277C11.3125 11.6535 15.242 7.45312 20.0826 7.45312H28.8527V26.2121H20.0826C15.242 26.2121 11.3125 22.0117 11.3125 16.8375V16.8277Z" fill="#F24E1E"/>
<path d="M28.7734 7.45312H37.5436C42.3841 7.45312 46.3137 11.6535 46.3137 16.8277C46.3137 22.0019 42.3841 26.2023 37.5436 26.2023H28.7734V7.45312Z" fill="#FF7262"/>
<path d="M46.4057 35.5855C46.4057 40.7597 42.4762 44.9601 37.6356 44.9601C32.795 44.9601 28.7734 40.7597 28.7734 35.5855C28.7734 30.4113 32.703 26.2109 37.5436 26.2109C42.3841 26.2109 46.3137 30.4113 46.3137 35.5855H46.4057Z" fill="#1ABCFE"/>
<path d="M56 22.9922V42.6463H58.3651V33.2619H64.0523V30.8224H58.3651V25.4514H65.7548V22.9922H56ZM70.034 26.986C70.8899 26.986 71.5801 26.2482 71.5801 25.3334C71.5801 24.4185 70.8807 23.7791 70.034 23.7791C69.1874 23.7791 68.488 24.5169 68.488 25.4317C68.488 25.8744 68.6536 26.2875 68.9481 26.6122C69.2426 26.9368 69.6291 27.104 70.0524 27.104L70.034 26.986ZM68.8377 29.4649V42.6463H71.1107V29.4649H68.7641H68.8377ZM79.9913 29.0714C76.844 29.0714 74.6537 32.0225 74.6537 35.2883C74.6537 38.5542 76.8624 41.4856 79.9913 41.4856C80.6423 41.4977 81.2886 41.365 81.8891 41.0957C82.4896 40.8264 83.031 40.4266 83.4791 39.9215V41.6725C83.4725 42.7245 83.0907 43.7342 82.4116 44.4957C82.0685 44.8698 81.6589 45.1669 81.207 45.3696C80.755 45.5723 80.2697 45.6765 79.7796 45.6761C79.027 45.6507 78.2978 45.3908 77.6814 44.9285L76.4851 47.1221C77.4038 47.7537 78.4649 48.1087 79.5565 48.1499C80.6482 48.191 81.73 47.9167 82.688 47.3558C83.6461 46.7949 84.4449 45.9682 85.0003 44.9628C85.5558 43.9575 85.8473 42.8106 85.8442 41.643V29.4452H83.4791V30.6256C83.031 30.1206 82.4896 29.7207 81.8891 29.4514C81.2886 29.1821 80.6423 29.0494 79.9913 29.0616V29.0714ZM77.028 35.2883C76.9741 34.6488 77.0886 34.0059 77.3586 33.4323C77.6285 32.8586 78.0432 32.3771 78.5557 32.0421C79.6048 31.3536 80.9207 31.3536 81.9606 32.0421C83.0005 32.7307 83.5895 33.9898 83.4883 35.2883C83.5422 35.9278 83.4277 36.5707 83.1577 37.1444C82.8878 37.718 82.4731 38.1995 81.9606 38.5345C80.9115 39.2231 79.5956 39.2231 78.5557 38.5345C77.5158 37.8459 76.9268 36.5868 77.028 35.2883Z" fill="black"/>
<path d="M94.3701 31.6489C93.6899 31.6515 93.0383 31.9414 92.5573 32.4556C92.0763 32.9697 91.805 33.6663 91.8026 34.3934V42.7351H89.4375V29.5536H91.8026V30.6652C92.5204 29.6421 93.6615 29.0519 94.8579 29.0716C96.3671 29.0323 97.7751 29.8979 98.5205 31.3046C99.4408 29.9274 100.766 29.0913 102.202 29.0716C104.898 29.0716 106.573 31.3931 106.582 34.2655V42.6564H104.217V34.295C104.286 33.7741 104.215 33.243 104.01 32.7643C103.806 32.2856 103.478 31.8795 103.065 31.5939C102.651 31.3083 102.17 31.1552 101.678 31.1528C101.186 31.1503 100.703 31.2986 100.287 31.58C99.8739 31.8682 99.5465 32.2772 99.3442 32.7586C99.1419 33.2399 99.0732 33.7732 99.1463 34.295V42.6367H96.8732V34.3048C96.8708 33.5777 96.5995 32.8812 96.1185 32.367C95.6376 31.8529 94.9859 31.5629 94.3057 31.5603L94.3701 31.6489ZM119.217 30.9603C118.679 30.3598 118.031 29.8834 117.314 29.5603C116.598 29.2372 115.826 29.0742 115.048 29.0814C111.524 29.0814 109.067 32.2686 109.067 35.9673C109.067 39.6659 111.551 42.8531 115.048 42.8531C115.826 42.8603 116.598 42.6973 117.314 42.3742C118.031 42.0511 118.679 41.5747 119.217 40.9742V42.4695H121.582V29.288H119.217V30.9603ZM111.395 36.0755C111.275 34.5016 111.993 32.9867 113.254 32.1604C114.515 31.3341 116.015 31.3341 117.358 32.1604C117.974 32.5686 118.472 33.1496 118.8 33.8399C119.128 34.5303 119.272 35.3035 119.217 36.0755C119.337 37.6494 118.619 39.1643 117.358 39.9906C116.098 40.8169 114.598 40.8169 113.254 39.9906C112.639 39.5823 112.14 39.0014 111.812 38.311C111.484 37.6207 111.34 36.8474 111.395 36.0755Z" fill="black"/>
</svg>
