<svg width="203" height="48" viewBox="0 0 203 48" fill="none" xmlns="http://www.w3.org/2000/svg">
<path d="M24.8123 1.49968C23.0782 0.209162 20.8983 -0.173702 18.828 0.44724L4.82434 4.64825C1.93943 5.51427 0 8.11882 0 11.132V41.0626C0 43.2239 0.99427 45.2031 2.7282 46.4915C4.46246 47.7822 6.64473 48.1649 8.71258 47.5441L19.1664 44.4071C18.8395 43.329 18.6739 42.2039 18.6739 41.0626V27.4697C18.6739 24.6153 19.7149 21.8892 21.61 19.798C23.0009 18.2575 24.8053 17.121 26.8218 16.5142L27.5406 16.3088V6.93082C27.5406 4.76952 26.5463 2.79036 24.8121 1.49968H24.8123Z" fill="#C47AFF"/>
<path d="M50.8767 23.2669V36.8598C50.8767 39.8707 48.9395 42.4777 46.0524 43.3413L32.0487 47.5425C31.3999 47.7384 30.7394 47.8342 30.0859 47.8342C28.655 47.8342 27.2547 47.3768 26.0643 46.4899C25.5204 46.0838 25.0491 45.6146 24.6616 45.0895C24.1902 44.4594 23.8377 43.7569 23.616 43.0029C23.6136 43.0029 23.6114 43.0029 23.609 43.0051L23.6136 43.0005C23.434 42.382 23.3359 41.7308 23.3359 41.0609V27.4681C23.3359 26.0724 23.7514 24.7631 24.4844 23.6754C25.2172 22.5876 26.2674 21.7196 27.5371 21.2037C27.7402 21.122 27.9479 21.0471 28.1604 20.9843L29.8736 20.4708L42.1643 16.7832C44.2344 16.1622 46.4144 16.5451 48.1485 17.8358C49.8828 19.1264 50.8769 21.1056 50.8769 23.2669H50.8767Z" fill="#1D1DD8"/>
<path d="M80.1052 36C79.8565 36 79.653 35.9209 79.4947 35.7626C79.3364 35.6043 79.2572 35.4007 79.2572 35.152V13.1038C79.2572 12.8551 79.3364 12.6516 79.4947 12.4933C79.653 12.335 79.8565 12.2558 80.1052 12.2558H88.9245C91.1406 12.2558 93.0288 12.6176 94.5892 13.3413C96.1495 14.0423 97.348 15.0825 98.1847 16.4619C99.0214 17.8187 99.4737 19.5035 99.5415 21.5161C99.5641 22.511 99.5755 23.3817 99.5755 24.1279C99.5755 24.8742 99.5641 25.7335 99.5415 26.7059C99.4511 28.8089 98.9988 30.5501 98.1847 31.9296C97.3933 33.309 96.2287 34.3379 94.6909 35.0163C93.1758 35.6721 91.3102 36 89.0941 36H80.1052ZM85.329 31.1155H88.9245C89.8969 31.1155 90.6997 30.9685 91.3328 30.6745C91.9886 30.3579 92.4748 29.8717 92.7914 29.216C93.1306 28.5602 93.3115 27.7008 93.3341 26.638C93.3794 25.9822 93.402 25.3943 93.402 24.8742C93.4246 24.354 93.4246 23.8339 93.402 23.3138C93.402 22.7937 93.3794 22.2171 93.3341 21.5839C93.2889 20.0462 92.8819 18.9268 92.113 18.2258C91.3668 17.5022 90.2474 17.1403 88.7549 17.1403H85.329V31.1155ZM111.306 36.3392C108.637 36.3392 106.512 35.6156 104.929 34.1683C103.346 32.721 102.52 30.5728 102.453 27.7235C102.453 27.5652 102.453 27.3616 102.453 27.1129C102.453 26.8641 102.453 26.6719 102.453 26.5363C102.52 24.7498 102.916 23.2234 103.64 21.957C104.386 20.668 105.404 19.6957 106.693 19.0399C108.004 18.3615 109.531 18.0223 111.272 18.0223C113.262 18.0223 114.901 18.418 116.19 19.2095C117.502 20.001 118.486 21.0751 119.141 22.4319C119.797 23.7887 120.125 25.3377 120.125 27.079V27.8931C120.125 28.1418 120.035 28.3453 119.854 28.5036C119.695 28.6619 119.503 28.7411 119.277 28.7411H108.423C108.423 28.7637 108.423 28.7976 108.423 28.8428C108.423 28.8881 108.423 28.9333 108.423 28.9785C108.445 29.6343 108.558 30.2336 108.762 30.7763C108.965 31.319 109.282 31.7487 109.712 32.0653C110.141 32.3818 110.661 32.5401 111.272 32.5401C111.724 32.5401 112.097 32.4723 112.391 32.3366C112.708 32.1783 112.968 32.0087 113.171 31.8278C113.375 31.6243 113.533 31.4547 113.646 31.319C113.85 31.0929 114.008 30.9572 114.121 30.912C114.257 30.8441 114.46 30.8102 114.732 30.8102H118.938C119.164 30.8102 119.345 30.878 119.481 31.0137C119.639 31.1268 119.707 31.2964 119.684 31.5225C119.661 31.907 119.469 32.3705 119.107 32.9133C118.746 33.456 118.214 33.9987 117.513 34.5414C116.835 35.0615 115.975 35.4912 114.935 35.8304C113.895 36.1696 112.685 36.3392 111.306 36.3392ZM108.423 25.383H114.155V25.3151C114.155 24.5915 114.042 23.9583 113.816 23.4156C113.612 22.8729 113.284 22.4545 112.832 22.1605C112.403 21.8666 111.882 21.7196 111.272 21.7196C110.661 21.7196 110.141 21.8666 109.712 22.1605C109.304 22.4545 108.988 22.8729 108.762 23.4156C108.536 23.9583 108.423 24.5915 108.423 25.3151V25.383ZM128.918 36C128.579 36 128.33 35.9209 128.172 35.7626C128.013 35.5817 127.878 35.3781 127.765 35.152L121.354 19.413C121.308 19.3225 121.286 19.2208 121.286 19.1077C121.286 18.9042 121.354 18.7346 121.489 18.5989C121.648 18.4406 121.84 18.3615 122.066 18.3615H125.899C126.193 18.3615 126.419 18.4406 126.577 18.5989C126.736 18.7572 126.837 18.9155 126.883 19.0738L130.716 29.4873L134.582 19.0738C134.628 18.9155 134.729 18.7572 134.888 18.5989C135.046 18.4406 135.272 18.3615 135.566 18.3615H139.399C139.603 18.3615 139.784 18.4406 139.942 18.5989C140.1 18.7346 140.179 18.9042 140.179 19.1077C140.179 19.2208 140.157 19.3225 140.111 19.413L133.701 35.152C133.61 35.3781 133.474 35.5817 133.294 35.7626C133.135 35.9209 132.875 36 132.513 36H128.918ZM140.54 36C140.359 36 140.19 35.9322 140.031 35.7965C139.896 35.6382 139.828 35.4686 139.828 35.2877C139.828 35.1746 139.839 35.0728 139.862 34.9824L147.833 13.2056C147.901 12.9568 148.037 12.742 148.24 12.5611C148.466 12.3576 148.772 12.2558 149.156 12.2558H154.176C154.561 12.2558 154.855 12.3576 155.058 12.5611C155.284 12.742 155.431 12.9568 155.499 13.2056L163.436 34.9824C163.482 35.0728 163.504 35.1746 163.504 35.2877C163.504 35.4686 163.425 35.6382 163.267 35.7965C163.131 35.9322 162.962 36 162.758 36H158.586C158.247 36 157.987 35.9209 157.806 35.7626C157.647 35.5817 157.546 35.4234 157.5 35.2877L156.177 31.8278H147.121L145.832 35.2877C145.787 35.4234 145.685 35.5817 145.527 35.7626C145.368 35.9209 145.097 36 144.712 36H140.54ZM148.512 26.9433H154.821L151.632 17.9884L148.512 26.9433ZM173.064 36.3392C171.594 36.3392 170.339 36.1809 169.299 35.8643C168.281 35.5251 167.444 35.1181 166.788 34.6432C166.155 34.1683 165.68 33.6821 165.364 33.1846C165.047 32.6645 164.878 32.2235 164.855 31.8617C164.832 31.613 164.911 31.4095 165.092 31.2512C165.273 31.0703 165.466 30.9798 165.669 30.9798H169.536C169.604 30.9798 169.66 30.9911 169.706 31.0137C169.751 31.0363 169.819 31.0816 169.909 31.1494C170.203 31.3077 170.497 31.5112 170.791 31.76C171.085 31.9861 171.424 32.1896 171.809 32.3705C172.193 32.5514 172.657 32.6419 173.199 32.6419C173.833 32.6419 174.364 32.5175 174.794 32.2688C175.223 32.02 175.438 31.6469 175.438 31.1494C175.438 30.7876 175.336 30.4936 175.133 30.2675C174.929 30.0187 174.511 29.7813 173.878 29.5552C173.267 29.329 172.34 29.1029 171.096 28.8767C169.92 28.6054 168.891 28.2549 168.01 27.8252C167.128 27.373 166.449 26.7963 165.974 26.0953C165.499 25.3717 165.262 24.501 165.262 23.4834C165.262 22.5789 165.556 21.7083 166.144 20.8716C166.732 20.0349 167.591 19.3565 168.722 18.8364C169.853 18.2936 171.243 18.0223 172.894 18.0223C174.206 18.0223 175.336 18.1806 176.286 18.4972C177.258 18.7911 178.073 19.1756 178.728 19.6504C179.407 20.1253 179.916 20.6115 180.255 21.109C180.594 21.6065 180.775 22.0588 180.797 22.4658C180.82 22.692 180.752 22.8955 180.594 23.0764C180.436 23.2347 180.255 23.3138 180.051 23.3138H176.524C176.433 23.3138 176.343 23.3025 176.252 23.2799C176.162 23.2347 176.083 23.1895 176.015 23.1442C175.743 23.0085 175.472 22.8276 175.201 22.6015C174.929 22.3754 174.613 22.1718 174.251 21.9909C173.889 21.81 173.437 21.7196 172.894 21.7196C172.283 21.7196 171.809 21.8553 171.469 22.1266C171.13 22.398 170.961 22.7485 170.961 23.1781C170.961 23.4721 171.051 23.7435 171.232 23.9922C171.435 24.241 171.831 24.4671 172.419 24.6706C173.03 24.8742 173.968 25.1003 175.235 25.349C176.795 25.5978 178.039 26.0048 178.966 26.5702C179.893 27.1129 180.549 27.7574 180.933 28.5036C181.318 29.2273 181.51 29.9961 181.51 30.8102C181.51 31.8957 181.182 32.8567 180.526 33.6934C179.893 34.5301 178.943 35.1859 177.677 35.6608C176.41 36.1131 174.873 36.3392 173.064 36.3392ZM185.402 36C185.153 36 184.949 35.9209 184.791 35.7626C184.633 35.6043 184.554 35.4007 184.554 35.152V12.7646C184.554 12.5159 184.633 12.3124 184.791 12.1541C184.949 11.9958 185.153 11.9166 185.402 11.9166H189.336C189.562 11.9166 189.755 11.9958 189.913 12.1541C190.094 12.3124 190.184 12.5159 190.184 12.7646V24.1279L194.899 18.9381C195.035 18.7798 195.182 18.6441 195.34 18.5311C195.499 18.418 195.725 18.3615 196.019 18.3615H200.564C200.767 18.3615 200.937 18.4406 201.073 18.5989C201.231 18.7346 201.31 18.9042 201.31 19.1077C201.31 19.1982 201.288 19.2999 201.242 19.413C201.197 19.5261 201.129 19.6165 201.039 19.6844L194.933 26.2649L201.887 34.711C202.068 34.8919 202.158 35.0728 202.158 35.2538C202.158 35.4573 202.079 35.6382 201.921 35.7965C201.785 35.9322 201.604 36 201.378 36H196.731C196.392 36 196.143 35.9435 195.985 35.8304C195.826 35.6947 195.679 35.559 195.544 35.4234L190.184 28.9785V35.152C190.184 35.4007 190.094 35.6043 189.913 35.7626C189.755 35.9209 189.562 36 189.336 36H185.402Z" fill="#1D1DD8"/>
</svg>
