<svg width="193" height="76" viewBox="0 0 193 76" fill="none" xmlns="http://www.w3.org/2000/svg">
<path d="M77.1201 51.3453L84.8419 52.0014V59.6102C84.8419 59.6102 70.4139 76.0038 49.3906 56.594H56.5547L57.3487 49.1172C57.3487 49.1172 65.5246 58.69 77.1201 51.3453Z" fill="#0D2C40"/>
<path d="M50.9695 16.1953C50.9695 16.1953 35.2787 33.0489 48.126 54.6272L55.2975 55.4154L55.9807 47.4146C55.9807 47.4146 49.389 34.9533 57.9047 25.1163L50.2679 24.4347L50.9695 16.1953Z" fill="#0D2C40"/>
<path d="M52.673 15.0125C52.673 15.0125 72.245 0.455177 87.1235 18.0288L80.528 17.5048L79.8449 26.0253C79.8449 26.0253 72.341 15.5365 59.8371 23.6694L52.2188 23.2775L52.673 15.0125Z" fill="#0D2C40"/>
<path d="M81.5547 28.1327L82.0089 19.3438L88.9441 20.1319L109.864 47.0185H102.704L102.02 54.4953L81.5547 28.1327Z" fill="#0D2C40"/>
<path d="M79.0547 49.899L105.543 16.1875L112.593 16.9756L112.139 25.2406L86.1043 58.6837L86.2151 50.0268L79.0547 49.899Z" fill="#02D35F"/>
<path d="M106.562 14.9765L113.896 15.6666L113.387 23.7356C113.387 23.7356 124.214 15.7646 132.146 24.2255L139.901 24.6175L140.599 16.7615C140.599 16.7615 128.479 0.998521 106.562 14.9765Z" fill="#02D35F"/>
<path d="M133.255 25.5038L141.01 26.0278L141.609 18.125C141.609 18.125 158.577 39.9333 140.242 58.687L132.742 58.0863L133.425 49.1398C133.425 49.1398 143.573 36.0309 133.255 25.5038Z" fill="#02D35F"/>
<path d="M111.686 49.1163L103.854 48.3281L103.414 56.2991C103.414 56.2991 117.314 74.7929 138.289 60.0354L131.125 59.3665L131.808 50.8076C131.808 50.8076 122.683 59.2472 111.686 49.1163Z" fill="#02D35F"/>
<path d="M121.591 35.3338V38.316C121.569 38.4321 121.558 38.5507 121.558 38.6696C121.558 38.7899 121.569 38.9099 121.591 39.0275V43.833H119.656V35.3125L121.591 35.3338Z" fill="#0D2C40"/>
<path d="M123.295 35.3368C122.657 35.4319 122.062 35.7553 121.592 36.2612C121.268 36.5511 121 36.9156 120.805 37.3314C120.61 37.7473 120.492 38.2055 120.458 38.6768C120.487 39.1694 120.602 39.6501 120.797 40.0895C120.992 40.529 121.263 40.9181 121.592 41.233C122.004 41.6856 122.536 41.9635 123.103 42.0211C124.901 42.0722 125.787 40.2872 125.787 38.6811C125.787 37.0749 124.687 35.243 123.295 35.3368ZM122.707 40.1551C122.44 40.1415 122.184 40.023 121.983 39.8194C121.782 39.6157 121.646 39.3389 121.6 39.0347C121.577 38.9171 121.566 38.7971 121.566 38.6768C121.566 38.5579 121.577 38.4393 121.6 38.3232C121.646 38.019 121.782 37.7422 121.983 37.5385C122.184 37.3348 122.44 37.2164 122.707 37.2028C123.026 37.237 123.322 37.4073 123.538 37.6804C123.754 37.9534 123.873 38.3095 123.873 38.6789C123.873 39.0483 123.754 39.4044 123.538 39.6775C123.322 39.9505 123.026 40.1209 122.707 40.1551ZM129.635 37.8801C129.355 37.7779 128.317 37.5904 128.317 37.1389C128.317 36.8832 128.634 36.8534 128.789 36.8619C129.233 36.8619 129.897 37.4711 130.267 37.3561C130.595 37.2581 130.883 36.2783 131.005 35.946C130.072 35.3318 128.986 35.1034 127.925 35.2984C127.663 35.356 127.415 35.4785 127.198 35.6573C126.981 35.8361 126.8 36.0671 126.668 36.3343C126.536 36.6015 126.455 36.8987 126.432 37.2052C126.408 37.5118 126.443 37.8205 126.533 38.1102C127.002 39.5118 128.442 38.9622 129.17 39.8143C129.469 40.1722 128.852 40.3341 128.649 40.3255C128.025 40.2186 127.427 39.957 126.899 39.5587C126.718 39.8569 126.16 40.5684 126.227 40.939C126.293 41.3097 127.028 41.5866 127.335 41.6973C128.361 42.0808 129.945 42.2256 130.717 41.1478C131.681 39.8526 130.839 38.3317 129.635 37.8801ZM114.609 32.9766C113.806 32.9766 113.02 33.2514 112.352 33.7663C111.684 34.2813 111.164 35.0132 110.856 35.8695C110.549 36.7258 110.468 37.6681 110.625 38.5771C110.782 39.4862 111.169 40.3212 111.737 40.9766C112.305 41.632 113.029 42.0783 113.817 42.2591C114.604 42.4399 115.421 42.3471 116.164 41.9924C116.906 41.6377 117.54 41.0371 117.987 40.2664C118.433 39.4958 118.671 38.5897 118.671 37.6629C118.671 36.42 118.243 35.228 117.481 34.3492C116.72 33.4703 115.686 32.9766 114.609 32.9766ZM114.609 40.0529C114.197 40.052 113.795 39.9104 113.453 39.6459C113.111 39.3813 112.844 39.0058 112.687 38.5666C112.53 38.1275 112.49 37.6445 112.57 37.1787C112.651 36.7129 112.85 36.2852 113.141 35.9495C113.433 35.6139 113.804 35.3855 114.208 35.2932C114.612 35.2008 115.03 35.2486 115.411 35.4306C115.791 35.6126 116.116 35.9206 116.345 36.3156C116.573 36.7107 116.695 37.175 116.695 37.6501C116.695 37.9663 116.641 38.2795 116.536 38.5716C116.431 38.8636 116.277 39.1289 116.083 39.3521C115.889 39.5754 115.658 39.7522 115.405 39.8724C115.151 39.9927 114.879 40.054 114.605 40.0529H114.609Z" fill="#0D2C40"/>
<path d="M76.135 35.2312H73.8196L76.268 42.6185H77.3241V39.4701L76.135 35.2312ZM78.5169 35.244H80.8323L78.3803 42.6313H77.3241V39.4829L78.5169 35.244ZM64.894 34.1917C64.1164 33.5687 63.2141 33.1846 62.2721 33.0755C61.0239 32.9391 59.6871 33.1138 58.5312 33.1138V42.61H58.5866C58.8082 42.6398 59.0298 42.6653 59.255 42.6824C60.1426 42.7672 61.035 42.7587 61.9213 42.6568C63.6163 42.4395 64.7057 41.8048 65.3741 40.9783C65.9663 40.2091 66.3004 39.2207 66.3158 38.1921V37.9663V37.847C66.301 36.4965 65.9649 35.1374 64.894 34.1917ZM63.0107 39.9942C62.3127 40.4457 61.4634 40.335 60.6953 40.335V35.3888C61.5114 35.3888 62.4309 35.2652 63.1473 35.8446C64.3364 36.8117 64.2921 39.1591 62.9996 39.9942H63.0107ZM72.8041 40.7354C72.6157 40.5522 72.3757 40.2412 72.1209 40.1901C71.7147 40.1262 71.2088 40.7567 70.7582 40.8079C70.0566 40.8888 69.5507 40.3307 69.2811 39.6576H73.55C73.55 38.2943 73.4503 36.8586 72.4422 35.9213C70.5699 34.1576 67.4975 35.4612 67.154 38.2432C66.7847 41.1742 68.7826 43.0658 71.2161 42.6994C71.8196 42.6011 72.386 42.3054 72.8484 41.8474C73.0146 41.677 73.2583 41.4426 73.1364 41.1657C73.0494 41.0001 72.9367 40.8542 72.8041 40.7354ZM71.4414 38.3199H69.2626C69.3097 38.0262 69.4444 37.7608 69.6434 37.5698C69.8424 37.3787 70.0931 37.2742 70.352 37.2742C70.6109 37.2742 70.8616 37.3787 71.0606 37.5698C71.2596 37.7608 71.3943 38.0262 71.4414 38.3199Z" fill="#02D35F"/>
</svg>
