<svg width="25" height="26" viewBox="0 0 25 26" fill="none" xmlns="http://www.w3.org/2000/svg">
<path fill-rule="evenodd" clip-rule="evenodd" d="M8.01993 0.734375H17.2595C21.5112 0.734375 24.9591 4.18226 24.9591 8.43399V17.6735C24.9591 21.9253 21.5112 25.3731 17.2595 25.3731H8.01993C3.7682 25.3731 0.320312 21.9253 0.320312 17.6735V8.43399C0.320312 4.18226 3.7682 0.734375 8.01993 0.734375ZM17.2587 23.0633C20.2308 23.0633 22.6484 20.6456 22.6484 17.6735V8.43398C22.6484 5.46193 20.2308 3.04425 17.2587 3.04425H8.01916C5.04711 3.04425 2.62943 5.46193 2.62943 8.43398V17.6735C2.62943 20.6456 5.04711 23.0633 8.01916 23.0633H17.2587Z" fill="#FEFEFE"/>
<path fill-rule="evenodd" clip-rule="evenodd" d="M6.47656 13.0503C6.47656 9.64863 9.23457 6.89062 12.6363 6.89062C16.0379 6.89062 18.7959 9.64863 18.7959 13.0503C18.7959 16.452 16.0379 19.21 12.6363 19.21C9.23457 19.21 6.47656 16.452 6.47656 13.0503ZM8.78568 13.0503C8.78568 15.1723 10.5135 16.9001 12.6355 16.9001C14.7575 16.9001 16.4853 15.1723 16.4853 13.0503C16.4853 10.9268 14.7575 9.20051 12.6355 9.20051C10.5135 9.20051 8.78568 10.9268 8.78568 13.0503Z" fill="#FEFEFE"/>
<circle cx="19.2583" cy="6.43015" r="0.820779" fill="#FEFEFE"/>
</svg>
