<svg width="103" height="39" viewBox="0 0 103 39" fill="none" xmlns="http://www.w3.org/2000/svg">
<path d="M12.6218 8.0881L12.1117 10.9777H12.1797C12.3837 10.5804 12.6898 10.1831 13.1319 9.78575C13.574 9.38843 14.1181 8.99111 14.7302 8.66602C15.3424 8.34094 15.9885 8.05198 16.7026 7.83526C17.4168 7.61854 18.131 7.51017 18.8791 7.51017C19.9673 7.51017 20.8855 7.7269 21.7017 8.16034C22.4839 8.59378 23.13 9.17171 23.6401 9.93023C24.1502 10.6888 24.5243 11.5556 24.7284 12.567C24.9664 13.5784 25.0684 14.662 25.0684 15.8178C25.0684 18.0212 24.7624 20.0078 24.1162 21.8499C23.5041 23.6921 22.6539 25.2452 21.6337 26.5817C20.6135 27.9181 19.4572 28.9295 18.165 29.688C16.8727 30.4104 15.6144 30.8078 14.3221 30.8078C13.1319 30.8078 12.1457 30.6271 11.4315 30.2659C10.6833 29.9047 10.1392 29.5435 9.79916 29.1101H9.73114L8.26883 38.0318H0.0390625L5.00413 8.12422H12.6218V8.0881ZM14.1521 24.6312C14.5942 24.1616 15.0023 23.5476 15.3424 22.7529C15.6824 21.9583 15.9545 21.0553 16.1585 20.0078C16.3626 18.9603 16.4646 17.8406 16.4646 16.6486C16.4646 15.5289 16.3286 14.662 16.0225 14.0479C15.7164 13.4339 15.3083 13.1449 14.7642 13.1449C14.0841 13.1449 13.506 13.4339 12.9618 14.0118C12.4177 14.5897 12.0096 15.7456 11.7376 17.4433L11.0234 21.7054C10.7854 23.0419 10.8534 23.981 11.1595 24.4867C11.4655 25.0285 12.0096 25.2813 12.7238 25.2813C13.2339 25.3175 13.71 25.1007 14.1521 24.6312ZM27.2449 29.2185C26.1907 28.171 25.6466 26.8345 25.6466 25.173C25.6466 23.8727 25.9526 22.6807 26.5988 21.561C27.2449 20.4412 28.1291 19.5021 29.2853 18.6713C30.4416 17.8767 31.8019 17.2265 33.4002 16.757C34.9986 16.2874 36.7329 16.0707 38.6374 16.0707H40.6438L40.7798 15.3483C40.8138 15.276 40.8138 15.2038 40.8138 15.0954V14.8426C40.8138 14.3369 40.6778 13.8673 40.3717 13.4339C40.0657 13.0005 39.5896 12.7837 38.8414 12.7837C38.1953 12.7837 37.6852 12.856 37.2771 13.0005C36.869 13.1449 36.5289 13.3617 36.2909 13.6145C36.0188 13.8673 35.8148 14.1563 35.6787 14.4453C35.5427 14.7342 35.3727 15.0593 35.2366 15.3483L28.0951 14.3008C28.3671 13.3978 28.8092 12.5309 29.4214 11.7001C30.0335 10.8694 30.8497 10.147 31.8359 9.53291C32.8221 8.91887 34.0464 8.41318 35.4747 8.05198C36.903 7.69078 38.6033 7.51017 40.5758 7.51017C41.732 7.51017 42.8203 7.61854 43.8405 7.79914C44.8947 7.97974 45.8129 8.34094 46.5951 8.8105C47.3772 9.28007 48.0234 9.93023 48.4655 10.761C48.9076 11.5556 49.1456 12.6031 49.1456 13.8312C49.1456 14.1202 49.1456 14.4453 49.1116 14.7703C49.0776 15.0954 49.0436 15.4566 48.9756 15.7817L47.2072 26.3288C47.1052 26.9068 47.0372 27.4124 47.0032 27.882C46.9692 28.3516 46.9691 28.785 46.9691 29.1823C46.9691 29.6158 46.9692 30.0131 47.0032 30.3743H39.0454L39.1135 27.3041H39.0454C38.5013 28.2432 37.6171 29.074 36.4609 29.7241C35.3046 30.4104 33.7743 30.7355 31.8699 30.7355C29.8975 30.7716 28.3331 30.2298 27.2449 29.2185ZM37.3451 25.2813C37.6852 25.1369 37.9912 24.884 38.2973 24.5228C38.6033 24.1616 38.8754 23.6198 39.1475 22.9697C39.4195 22.3195 39.6916 21.4526 39.9636 20.4051L40.0317 20.08H39.2495C38.4333 20.08 37.7532 20.1884 37.175 20.4412C36.5969 20.6941 36.1208 20.983 35.7127 21.3442C35.3386 21.7054 35.0326 22.1028 34.8285 22.5362C34.6245 22.9697 34.5225 23.4392 34.5225 23.8727C34.5225 24.2339 34.5905 24.5228 34.7265 24.7034C34.8625 24.9201 34.9986 25.0646 35.1686 25.173C35.3386 25.2813 35.5427 25.3536 35.7467 25.3897C35.9508 25.4258 36.1208 25.462 36.2568 25.462C36.6309 25.4981 37.005 25.4258 37.3451 25.2813ZM49.1796 38.1763C48.7715 38.104 48.3975 38.0679 48.0574 37.9957L49.1116 31.6746C49.4857 31.7469 49.8598 31.783 50.2679 31.8552C50.6419 31.9275 51.016 31.9636 51.4921 31.9636C51.9682 31.9636 52.4103 31.9997 52.8524 31.9997C53.5666 31.9997 54.2467 31.8552 54.8588 31.6024C55.471 31.3496 55.8451 30.88 56.0151 30.2298L56.1511 29.8325L51.7642 8.12422H60.6741L62.1024 20.2245H62.1704L67.7476 8.12422H73.8349L62.6125 30.2298C61.8303 31.7469 61.0822 33.0111 60.334 34.0225C59.5859 35.0699 58.8037 35.9007 57.9875 36.5148C57.1373 37.1649 56.2531 37.5984 55.2669 37.8873C54.2807 38.1763 53.1585 38.3208 51.8662 38.3208C50.744 38.2846 49.8258 38.2485 49.1796 38.1763ZM84.4112 8.0881L80.7044 30.3743H72.4066L76.1134 8.0881H84.4112ZM90.4645 30.4827C89.7843 30.3021 89.2062 29.977 88.6621 29.5435C88.118 29.1101 87.7099 28.5322 87.3698 27.8459C87.0298 27.1596 86.8597 26.3288 86.8597 25.3536C86.8597 25.0285 86.8597 24.7034 86.8937 24.3422C86.9277 23.981 86.9617 23.6559 87.0298 23.3309L88.6621 13.5061H85.7035L86.6217 8.0881H89.5803L91.6547 1.00853L99.1704 0.25L97.8781 8.0881H102.061L101.143 13.5061H96.9599L95.4636 22.5001C95.4636 22.5362 95.4636 22.6085 95.4296 22.7168C95.4296 22.8252 95.3956 22.9335 95.3956 23.0419C95.3956 23.5476 95.5316 23.8727 95.8377 24.0533C96.1437 24.2339 96.5518 24.3061 97.0959 24.3061C97.64 24.3061 98.1501 24.27 98.6262 24.1616C98.8983 24.0894 99.1704 24.0533 99.3744 23.981L98.3882 30.2659L96.2117 30.5188C95.5996 30.591 94.9535 30.6271 94.2733 30.6994C93.5932 30.7716 92.981 30.7716 92.4029 30.7716C91.7908 30.7716 91.1446 30.6633 90.4645 30.4827Z" fill="#026CFD"/>
</svg>
