<svg width="118" height="32" viewBox="0 0 118 32" fill="none" xmlns="http://www.w3.org/2000/svg">
<path d="M26.0394 29.667C24.6107 29.667 23.492 29.2746 22.5625 28.2007L23.3886 27.2093C24.0599 28.0559 24.9722 28.3866 26.0223 28.3866C27.4163 28.3866 28.2771 27.7876 28.2771 26.5896C28.2771 25.7016 27.8465 25.206 26.8655 25.1025L25.4713 24.9581C23.819 24.7928 22.9412 23.9048 22.9412 22.2318C22.9412 20.3729 24.2492 19.2578 26.0566 19.2578C27.2614 19.2578 28.3458 19.609 29.1032 20.3521L28.2941 21.3228C27.6918 20.7655 26.9172 20.5174 26.0394 20.5174C24.8 20.5174 24.146 21.1579 24.146 22.1904C24.146 23.058 24.559 23.5744 25.6262 23.6775L26.9859 23.8219C28.4663 23.9874 29.4817 24.6687 29.4817 26.5692C29.4817 28.5311 28.0875 29.667 26.0394 29.667Z" fill="#0A0B09"/>
<path d="M33.2514 29.5458C31.8056 29.5458 31.0827 28.327 31.0827 26.8195V20.5822H30.0156V19.4461H31.0827V16.2656H32.322V19.4461H34.1292V20.5822H32.322V26.7781C32.322 27.7075 32.6835 28.2652 33.4752 28.2652H34.1292V29.5458H33.2514Z" fill="#0A0B09"/>
<path d="M40.5438 24.8548H38.1686C36.8947 24.8548 36.2751 25.4745 36.2751 26.6515C36.2751 27.8288 36.8776 28.3866 38.2201 28.3866C38.9431 28.3866 39.5798 28.3244 40.1134 27.7049C40.406 27.3746 40.5438 26.7963 40.5438 25.9493V24.8548ZM40.5438 29.5432V28.5723C39.8553 29.3987 39.2356 29.667 38.0997 29.667C36.9293 29.667 36.2407 29.3987 35.707 28.7378C35.2941 28.2418 35.0703 27.4778 35.0703 26.6723C35.0703 24.8962 36.103 23.7393 37.9963 23.7393H40.5438V22.7687C40.5438 21.2819 39.9241 20.5382 38.375 20.5382C37.2908 20.5382 36.7398 20.8481 36.2407 21.6948L35.3973 20.7655C36.1547 19.5882 37.0153 19.2578 38.3923 19.2578C40.6642 19.2578 41.7829 20.4348 41.7829 22.6446V29.5432H40.5438Z" fill="#0A0B09"/>
<path d="M46.6351 29.667C44.5008 29.667 42.8828 27.932 42.8828 24.4624C42.8828 20.9926 44.5008 19.2578 46.6351 19.2578C47.8055 19.2578 48.5455 19.6294 49.4233 20.7655L48.58 21.7154C47.9432 20.8686 47.444 20.5796 46.6351 20.5796C45.8088 20.5796 45.1204 20.9718 44.6729 21.7362C44.277 22.3971 44.1221 23.182 44.1221 24.4624C44.1221 25.7428 44.277 26.5278 44.6729 27.1887C45.1204 27.9528 45.8088 28.3452 46.6351 28.3452C47.444 28.3452 47.9432 28.0355 48.58 27.1887L49.4233 28.1595C48.5455 29.2951 47.8055 29.667 46.6351 29.667Z" fill="#0A0B09"/>
<path d="M56.2018 29.5415L53.5166 24.3367L51.8643 26.6086V29.5415H50.625V14.8359H51.8643V24.6671L55.6854 19.3798H57.2345L54.3601 23.2626L57.7335 29.5415H56.2018Z" fill="#0A0B09"/>
<path d="M62.7324 21.9749C62.4876 21.6813 62.1612 21.5247 61.7372 21.5247C61.313 21.5247 61.0032 21.6813 60.7584 21.9749C60.3178 22.5033 60.269 23.3841 60.269 24.4413C60.269 25.4982 60.3178 26.3987 60.7584 26.9269C61.0032 27.2206 61.313 27.3773 61.7372 27.3773C62.1612 27.3773 62.4876 27.2206 62.7324 26.9269C63.1725 26.3987 63.2217 25.4982 63.2217 24.4413C63.2217 23.3841 63.1725 22.5033 62.7324 21.9749ZM64.3799 28.4147C63.8577 29.0803 62.9932 29.6675 61.7372 29.6675C60.4812 29.6675 59.6329 29.0803 59.1109 28.4147C58.3442 27.4556 58.1484 26.3006 58.1484 24.4413C58.1484 22.6013 58.3442 21.4464 59.1109 20.4871C59.6329 19.8217 60.4812 19.2344 61.7372 19.2344C62.9932 19.2344 63.8577 19.8217 64.3799 20.4871C65.1464 21.4464 65.3423 22.6013 65.3423 24.4413C65.3423 26.3006 65.1464 27.4556 64.3799 28.4147Z" fill="#0A0B09"/>
<path d="M70.1084 29.5496H68.4445L65.3125 19.3516H67.5473L69.2765 25.6545L70.9892 19.3516H73.224L70.1084 29.5496Z" fill="#0A0B09"/>
<path d="M78.2472 22.4055C78.0189 21.7986 77.5457 21.3486 76.8278 21.3486C76.1102 21.3486 75.637 21.7986 75.4089 22.4055C75.2782 22.7774 75.2291 23.0512 75.213 23.5016H78.4429C78.4265 23.0512 78.3777 22.7774 78.2472 22.4055ZM75.213 25.2436C75.213 26.5551 75.8818 27.5142 77.0725 27.5142C78.0025 27.5142 78.4592 27.2012 78.9976 26.5551L80.2864 28.0623C79.4217 29.0997 78.5897 29.6675 77.0564 29.6675C75.0498 29.6675 73.125 28.5715 73.125 24.4413C73.125 21.1135 74.6257 19.2344 76.8278 19.2344C79.1932 19.2344 80.5309 21.3093 80.5309 24.1084V25.2436H75.213Z" fill="#0A0B09"/>
<path d="M86.2026 22.1313C85.8762 21.7398 85.599 21.5247 85.077 21.5247C84.4245 21.5247 83.7066 22.1118 83.7066 23.4038V29.5499H81.5859V19.3519H83.6578V20.3305C84.0654 19.7432 84.8813 19.2344 85.7946 19.2344C86.6266 19.2344 87.2139 19.4888 87.8012 20.1936L86.2026 22.1313Z" fill="#0A0B09"/>
<path d="M96.446 29.5467C94.7006 29.5467 93.9665 28.0788 93.9665 26.6302V15.1758H96.0872V26.4734C96.0872 27.0804 96.2993 27.3934 96.8374 27.3934H97.6529V29.5467H96.446ZM91.3921 21.2907V29.5467H89.2714V21.2907H88.3906V19.353H89.2714V18.0804C89.2714 16.6322 90.0217 15.1641 91.7509 15.1641H92.9581V17.3171H92.1424C91.6368 17.3171 91.3921 17.6498 91.3921 18.2371V19.353H92.9581V21.2907H91.3921Z" fill="#0A0B09"/>
<path d="M102.537 21.9749C102.292 21.6813 101.966 21.5247 101.542 21.5247C101.118 21.5247 100.808 21.6813 100.563 21.9749C100.123 22.5033 100.074 23.3841 100.074 24.4413C100.074 25.4982 100.123 26.3987 100.563 26.9269C100.808 27.2206 101.118 27.3773 101.542 27.3773C101.966 27.3773 102.292 27.2206 102.537 26.9269C102.977 26.3987 103.026 25.4982 103.026 24.4413C103.026 23.3841 102.977 22.5033 102.537 21.9749ZM104.185 28.4147C103.663 29.0803 102.798 29.6675 101.542 29.6675C100.286 29.6675 99.4378 29.0803 98.9158 28.4147C98.149 27.4556 97.9531 26.3006 97.9531 24.4413C97.9531 22.6013 98.149 21.4464 98.9158 20.4871C99.4378 19.8217 100.286 19.2344 101.542 19.2344C102.798 19.2344 103.663 19.8217 104.185 20.4871C104.951 21.4464 105.147 22.6013 105.147 24.4413C105.147 26.3006 104.951 27.4556 104.185 28.4147Z" fill="#0A0B09"/>
<path d="M114.672 29.5496H112.927L111.149 23.149L109.371 29.5496H107.626L105.016 19.3516H107.267L108.637 25.6545L110.366 19.3516H111.916L113.661 25.6545L115.032 19.3516H117.266L114.672 29.5496Z" fill="#0A0B09"/>
<path d="M14.673 20.7579L4.74219 17.8676L5.22395 15.4844L15.1547 18.3745L14.673 20.7579Z" fill="#B58F52"/>
<path d="M15.3418 17.9117L6.24219 12.3322L7.17211 10.1484L16.2717 15.7279L15.3418 17.9117Z" fill="#C78431"/>
<path d="M16.7423 14.9532L9.04688 6.8858L10.3914 5.03906L18.0869 13.1063L16.7423 14.9532Z" fill="#E9812C"/>
<path d="M18.8635 12.3588L13.125 2.21308L14.8161 0.835938L20.5546 10.9817L18.8635 12.3588Z" fill="#E5712A"/>
<path d="M14.516 23.7424L4.3125 23.0739L4.42386 20.625L14.6274 21.2937L14.516 23.7424Z" fill="#9D8469"/>
<path d="M16.6304 29.5063V19.3466H18.6723L18.6738 31.9591H0.203125L0.203577 19.3359H2.24727V29.5063H16.6304Z" fill="#797B7B"/>
<path d="M4.28125 24.6172H14.5693V27.0695H4.28125V24.6172Z" fill="#797B7B"/>
</svg>
