<svg width="141" height="124" viewBox="0 0 141 124" fill="none" xmlns="http://www.w3.org/2000/svg">
<g clip-path="url(#clip0_708_27968)">
<path fill-rule="evenodd" clip-rule="evenodd" d="M141 108.5C141 117.059 133.107 124 123.375 124H17.625C7.89306 124 0 117.059 0 108.5V15.5C0 6.94142 7.89306 0 17.625 0H123.375C133.107 0 141 6.94142 141 15.5V108.5Z" fill="url(#paint0_linear_708_27968)"/>
<path d="M118.179 34.6525C114.889 35.9364 111.356 36.8044 107.64 37.1945C111.432 35.195 114.337 32.033 115.709 28.2639C112.166 30.1136 108.239 31.4569 104.053 32.1803C100.707 29.0441 95.9366 27.0859 90.6579 27.0859C80.5264 27.0859 72.3102 34.3089 72.3102 43.224C72.3102 44.4899 72.4718 45.7195 72.7832 46.9027C57.5317 46.2284 44.0104 39.8011 34.9599 30.0387C33.3796 32.4231 32.4748 35.195 32.4748 38.1529C32.4748 43.751 35.7149 48.6929 40.6381 51.5837C37.6301 51.501 34.8013 50.7751 32.325 49.5661C32.325 49.6333 32.325 49.703 32.325 49.7702C32.325 57.5874 38.6494 64.1103 47.0448 65.5931C45.5026 65.9625 43.8841 66.1589 42.2097 66.1589C41.0259 66.1589 39.8773 66.0607 38.7552 65.8747C41.0905 72.2814 47.8673 76.9494 55.8955 77.0812C49.6151 81.4083 41.7015 83.9916 33.1064 83.9916C31.6259 83.9916 30.163 83.9141 28.7266 83.7617C36.8488 88.3419 46.4926 91.0157 56.8561 91.0157C90.6079 91.0157 109.067 66.4249 109.067 45.0995C109.067 44.3994 109.05 43.7045 109.011 43.0096C112.607 40.7311 115.721 37.8894 118.179 34.6525Z" fill="#29AAE1"/>
<path d="M118.179 32.9078C114.889 34.1917 111.356 35.0597 107.64 35.4497C111.432 33.4528 114.337 30.2883 115.709 26.5218C112.166 28.3714 108.239 29.7148 104.053 30.4381C100.707 27.3019 95.9366 25.3438 90.6579 25.3438C80.5264 25.3438 72.3102 32.5668 72.3102 41.4818C72.3102 42.7451 72.4718 43.9773 72.7832 45.1605C57.5317 44.4862 44.0104 38.0615 34.9599 28.2991C33.3796 30.6835 32.4748 33.4554 32.4748 36.4133C32.4748 42.0114 35.7149 46.9508 40.6381 49.8441C37.6301 49.7614 34.8013 49.0355 32.325 47.8265C32.325 47.8937 32.325 47.9608 32.325 48.0306C32.325 55.8503 38.6494 62.3707 47.0448 63.8535C45.5026 64.2255 43.8841 64.4193 42.2097 64.4193C41.0259 64.4193 39.8773 64.3211 38.7552 64.1351C41.0905 70.5443 47.8673 75.2098 55.8955 75.3416C49.6151 79.6712 41.7015 82.252 33.1064 82.252C31.6259 82.252 30.163 82.1745 28.7266 82.0221C36.8488 86.6023 46.4926 89.2761 56.8561 89.2761C90.6079 89.2761 109.067 64.6853 109.067 43.3599C109.067 42.6598 109.05 41.9649 109.011 41.2726C112.607 38.9863 115.721 36.1447 118.179 32.9078Z" fill="white"/>
</g>
<defs>
<linearGradient id="paint0_linear_708_27968" x1="70.4985" y1="0" x2="70.4985" y2="124.001" gradientUnits="userSpaceOnUse">
<stop stop-color="#4BD0EF"/>
<stop offset="1" stop-color="#29AAE1"/>
</linearGradient>
<clipPath id="clip0_708_27968">
<rect width="141" height="124" fill="white"/>
</clipPath>
</defs>
</svg>
