<svg width="60" height="54" viewBox="0 0 60 54" fill="none" xmlns="http://www.w3.org/2000/svg">
<path fill-rule="evenodd" clip-rule="evenodd" d="M44.4379 0.0859375L14.3717 0.43125L0 25.605L13.7715 53.7721L44.6744 53.9112L60 27.0666L44.4379 0.0859375ZM51.1865 40.6016L58.6435 27.5399L46.7245 27.4862L39.1751 40.7098L51.1865 40.6016ZM50.6405 41.558L44.1326 52.9573L32.2137 52.9037L38.6292 41.6662L50.6405 41.558ZM37.5372 41.676L31.1301 52.8988L14.877 52.8256L21.1581 41.8235L37.5372 41.676ZM20.3458 41.3435L14.0964 52.29L6.82973 37.4274L12.7002 27.1446L20.3458 41.3435ZM13.2515 26.1789L20.8971 40.3778L28.5755 26.9281L20.8444 13.0238L20.7609 13.0252L13.2515 26.1789ZM12.1729 26.1653L6.32858 36.4024L1.0665 25.6398L6.63643 15.8834L12.1729 26.1653ZM7.18771 14.9177L12.7242 25.1997L20.2125 12.083L20.3203 12.0812L14.6397 1.86472L7.18771 14.9177ZM21.7041 40.8672L38.0832 40.7196L45.641 27.4813L29.3878 27.4081L21.7041 40.8672ZM45.4971 26.5293L29.3928 26.4567L21.9136 13.0056L37.5435 12.7397L45.4971 26.5293ZM37 11.7974L21.3895 12.063L15.4442 1.37041L30.8835 1.19309L37 11.7974ZM31.9655 1.18067L38.0785 11.7791L49.9765 11.5767L43.9011 1.04358L31.9655 1.18067ZM50.52 12.519L38.622 12.7214L46.5891 26.5342L58.6351 26.5884L50.52 12.519Z" fill="url(#paint0_linear_6044_16800)"/>
<defs>
<linearGradient id="paint0_linear_6044_16800" x1="13.566" y1="0.328594" x2="44.6675" y2="55.2128" gradientUnits="userSpaceOnUse">
<stop stop-color="#8C68CA"/>
<stop offset="1" stop-color="#492B7C"/>
</linearGradient>
</defs>
</svg>
