<svg width="146" height="36" viewBox="0 0 146 36" fill="none" xmlns="http://www.w3.org/2000/svg">
<path d="M18.6809 1.06614C17.3753 0.0945247 15.7341 -0.19373 14.1754 0.273771L3.6322 3.43667C1.46018 4.08868 0 6.04963 0 8.31821V30.8527C0 32.4799 0.748576 33.97 2.05404 34.94C3.35974 35.9118 5.00275 36.1999 6.55961 35.7325L14.4302 33.3707C14.1841 32.559 14.0594 31.7119 14.0594 30.8527V20.6187C14.0594 18.4697 14.8431 16.4172 16.2699 14.8428C17.3172 13.6829 18.6756 12.8273 20.1938 12.3704L20.735 12.2158V5.15519C20.735 3.52797 19.9865 2.03788 18.6808 1.06614H18.6809Z" fill="#492B7C"/>
<path d="M38.3055 17.4522V27.6861C38.3055 29.953 36.847 31.9158 34.6733 32.566L24.13 35.729C23.6416 35.8765 23.1443 35.9487 22.6523 35.9487C21.575 35.9487 20.5207 35.6043 19.6245 34.9365C19.215 34.6308 18.8601 34.2775 18.5684 33.8822C18.2135 33.4078 17.9481 32.8789 17.7811 32.3112C17.7794 32.3112 17.7777 32.3112 17.7759 32.3129L17.7794 32.3094C17.6441 31.8437 17.5703 31.3535 17.5703 30.8491V20.6152C17.5703 19.5644 17.8831 18.5786 18.435 17.7597C18.9867 16.9408 19.7774 16.2872 20.7333 15.8988C20.8863 15.8373 21.0426 15.7809 21.2026 15.7337L22.4924 15.3471L31.746 12.5706C33.3045 12.1031 34.9459 12.3914 36.2514 13.3631C37.5571 14.3349 38.3056 15.825 38.3056 17.4522H38.3055Z" fill="#8C68CA"/>
<path d="M56.1865 26.5C55.5225 26.5 55.0117 26.3212 54.6542 25.9637C54.2967 25.6062 54.1179 25.0954 54.1179 24.4314V10.5642C54.1179 9.90017 54.2967 9.3894 54.6542 9.03187C55.0117 8.67434 55.5225 8.49557 56.1865 8.49557H61.1664C64.2481 8.49557 66.6231 9.27874 68.2916 10.8451C69.9771 12.3944 70.8199 14.6077 70.8199 17.485C70.8199 18.9322 70.5986 20.2176 70.1559 21.3413C69.7303 22.4479 69.1088 23.3843 68.2916 24.1505C67.4744 24.9166 66.4699 25.504 65.2781 25.9126C64.0863 26.3042 62.7158 26.5 61.1664 26.5H56.1865ZM58.0763 23.2566H60.9366C61.9071 23.2566 62.7498 23.1375 63.4649 22.8991C64.18 22.6608 64.7758 22.3032 65.2526 21.8265C65.7293 21.3498 66.0868 20.7539 66.3252 20.0388C66.5635 19.3067 66.6827 18.4555 66.6827 17.485C66.6827 15.5441 66.1975 14.1055 65.227 13.1691C64.2736 12.2156 62.8435 11.7389 60.9366 11.7389H58.0763V23.2566ZM80.0753 26.7809C78.5941 26.7809 77.3172 26.517 76.2446 25.9892C75.189 25.4444 74.3718 24.6868 73.7929 23.7163C73.231 22.7289 72.9501 21.5711 72.9501 20.2431C72.9501 18.9492 73.2225 17.817 73.7674 16.8466C74.3122 15.8591 75.0698 15.0929 76.0403 14.5481C77.0277 13.9863 78.1429 13.7054 79.3858 13.7054C80.2881 13.7054 81.1053 13.8586 81.8374 14.165C82.5695 14.4545 83.1995 14.8801 83.7272 15.442C84.255 15.9868 84.6551 16.6593 84.9275 17.4595C85.2 18.2426 85.3362 19.1195 85.3362 20.0899C85.3362 20.4134 85.234 20.6603 85.0297 20.8305C84.8254 20.9837 84.5274 21.0604 84.1359 21.0604H76.1169V19.0684H82.5525L82.1439 19.4259C82.1439 18.7279 82.0417 18.149 81.8374 17.6893C81.6331 17.2126 81.3352 16.8551 80.9436 16.6167C80.569 16.3784 80.1008 16.2592 79.539 16.2592C78.909 16.2592 78.3727 16.4039 77.9301 16.6933C77.4874 16.9828 77.1469 17.3999 76.9085 17.9447C76.6702 18.4895 76.551 19.145 76.551 19.9111V20.1154C76.551 21.4094 76.849 22.3628 77.4449 22.9757C78.0578 23.5886 78.9601 23.8951 80.1519 23.8951C80.5605 23.8951 81.0287 23.844 81.5565 23.7419C82.0843 23.6397 82.578 23.478 83.0377 23.2566C83.4293 23.0694 83.7783 23.0098 84.0848 23.0779C84.3912 23.129 84.6296 23.2652 84.7999 23.4865C84.9701 23.7078 85.0637 23.9632 85.0808 24.2526C85.1148 24.5421 85.0552 24.8315 84.902 25.1209C84.7488 25.3933 84.4934 25.6232 84.1359 25.8105C83.557 26.134 82.9015 26.3723 82.1694 26.5255C81.4543 26.6958 80.7563 26.7809 80.0753 26.7809ZM92.6666 26.7298C92.1729 26.7298 91.7387 26.6022 91.3642 26.3468C90.9896 26.0744 90.6917 25.6743 90.4703 25.1465L86.6141 16.2592C86.4268 15.8165 86.3587 15.4079 86.4098 15.0333C86.4608 14.6418 86.6396 14.3353 86.9461 14.114C87.2695 13.8756 87.7122 13.7564 88.274 13.7564C88.7337 13.7564 89.1083 13.8671 89.3977 14.0884C89.6872 14.2927 89.9425 14.6928 90.1639 15.2887L93.1774 22.9502H92.3602L95.5014 15.2632C95.7397 14.6843 96.0036 14.2927 96.293 14.0884C96.5825 13.8671 96.9826 13.7564 97.4933 13.7564C97.936 13.7564 98.285 13.8756 98.5404 14.114C98.8128 14.3353 98.9746 14.6332 99.0256 15.0078C99.0937 15.3824 99.0256 15.791 98.8213 16.2336L94.8884 25.1465C94.6671 25.6913 94.3692 26.0914 93.9946 26.3468C93.6371 26.6022 93.1944 26.7298 92.6666 26.7298ZM101.839 26.7298C101.363 26.7298 100.971 26.6192 100.665 26.3978C100.375 26.1765 100.188 25.8786 100.103 25.504C100.035 25.1294 100.111 24.7123 100.333 24.2526L106.87 9.92571C107.143 9.34684 107.466 8.92972 107.841 8.67434C108.215 8.40193 108.65 8.26572 109.143 8.26572C109.637 8.26572 110.071 8.40193 110.446 8.67434C110.82 8.92972 111.135 9.34684 111.391 9.92571L117.98 24.2526C118.201 24.7123 118.278 25.138 118.209 25.5295C118.158 25.9041 117.988 26.2021 117.699 26.4234C117.409 26.6277 117.035 26.7298 116.575 26.7298C115.996 26.7298 115.545 26.5936 115.221 26.3212C114.915 26.0488 114.643 25.6232 114.404 25.0443L112.872 21.4945L114.455 22.5927H103.806L105.389 21.4945L103.882 25.0443C103.627 25.6402 103.355 26.0744 103.065 26.3468C102.793 26.6022 102.384 26.7298 101.839 26.7298ZM109.092 12.7094L105.823 20.4985L105.134 19.5025H113.127L112.438 20.4985L109.143 12.7094H109.092ZM124.802 26.7809C124.053 26.7809 123.278 26.7128 122.478 26.5766C121.695 26.4404 120.98 26.2106 120.333 25.8871C119.992 25.7168 119.745 25.504 119.592 25.2486C119.456 24.9762 119.396 24.7038 119.413 24.4314C119.43 24.159 119.515 23.9121 119.669 23.6908C119.839 23.4695 120.052 23.3248 120.307 23.2566C120.58 23.1715 120.877 23.1971 121.201 23.3333C121.899 23.6227 122.537 23.827 123.116 23.9462C123.695 24.0654 124.266 24.1249 124.827 24.1249C125.559 24.1249 126.087 24.0143 126.411 23.793C126.751 23.5546 126.922 23.2481 126.922 22.8736C126.922 22.5331 126.811 22.2777 126.59 22.1074C126.368 21.9372 126.045 21.818 125.619 21.7499L122.938 21.2647C121.882 21.0774 121.065 20.6943 120.486 20.1154C119.924 19.5196 119.643 18.7619 119.643 17.8425C119.643 16.9913 119.881 16.2592 120.358 15.6463C120.835 15.0163 121.49 14.5396 122.325 14.2161C123.176 13.8756 124.138 13.7054 125.21 13.7054C125.977 13.7054 126.683 13.7735 127.33 13.9097C127.977 14.0459 128.599 14.2672 129.194 14.5737C129.501 14.7269 129.714 14.9312 129.833 15.1866C129.969 15.442 130.012 15.7059 129.961 15.9783C129.927 16.2507 129.824 16.4975 129.654 16.7189C129.484 16.9402 129.263 17.0849 128.99 17.153C128.735 17.2211 128.437 17.1871 128.096 17.0509C127.551 16.7955 127.049 16.6167 126.59 16.5146C126.13 16.3954 125.687 16.3358 125.262 16.3358C124.495 16.3358 123.942 16.4635 123.602 16.7189C123.261 16.9572 123.091 17.2637 123.091 17.6382C123.091 17.9277 123.184 18.1745 123.372 18.3789C123.576 18.5661 123.882 18.6938 124.291 18.7619L126.973 19.2472C128.079 19.4344 128.922 19.809 129.501 20.3708C130.08 20.9156 130.369 21.6648 130.369 22.6182C130.369 23.9121 129.858 24.9337 128.837 25.6828C127.832 26.4149 126.487 26.7809 124.802 26.7809ZM134.511 26.7298C133.881 26.7298 133.396 26.5596 133.055 26.2191C132.732 25.8786 132.57 25.3933 132.57 24.7634V10.2322C132.57 9.5852 132.732 9.09997 133.055 8.77649C133.396 8.43598 133.881 8.26572 134.511 8.26572C135.124 8.26572 135.592 8.43598 135.916 8.77649C136.256 9.09997 136.427 9.5852 136.427 10.2322V19.145H136.478L140.181 15.0333C140.555 14.6077 140.896 14.2927 141.202 14.0884C141.526 13.8671 141.951 13.7564 142.479 13.7564C143.007 13.7564 143.407 13.8926 143.679 14.165C143.969 14.4375 144.114 14.7695 144.114 15.161C144.131 15.5356 143.969 15.9187 143.628 16.3103L139.721 20.6773V19.2216L144.062 24.2271C144.386 24.6187 144.522 25.0103 144.471 25.4019C144.437 25.7934 144.267 26.1169 143.96 26.3723C143.654 26.6107 143.262 26.7298 142.786 26.7298C142.207 26.7298 141.738 26.6192 141.381 26.3978C141.04 26.1765 140.691 25.836 140.334 25.3763L136.478 21.0859H136.427V24.7634C136.427 26.0744 135.788 26.7298 134.511 26.7298Z" fill="#0A0A48"/>
</svg>
