<svg width="70" height="64" viewBox="0 0 70 64" fill="none" xmlns="http://www.w3.org/2000/svg">
<path fill-rule="evenodd" clip-rule="evenodd" d="M35.4787 63.66L70 39.1395L56.7481 0H13.2519L0 39.1395L0.5 39.4947V39.6175H0.672897L35 64L35.4703 63.666L35.4761 63.6678L35.4787 63.66ZM34.769 62.6448L42.4902 39.6175H2.34984L34.769 62.6448ZM1.21301 38.6613H26.2361L13.7374 1.67056L1.21301 38.6613ZM14.5469 0.956171H55.0526L22.1972 23.5978L14.5469 0.956171ZM56.1611 1.37087L35.8551 15.3644L68.5209 37.8755L56.1611 1.37087ZM68.4815 39.027L36.003 62.0965L48.3826 25.1762L68.4815 39.027ZM22.5203 24.5539L27.287 38.6613H42.8108L47.5296 24.5883L34.9999 15.9537L22.5203 24.5539Z" fill="url(#paint0_radial_6044_16765)"/>
<defs>
<radialGradient id="paint0_radial_6044_16765" cx="0" cy="0" r="1" gradientUnits="userSpaceOnUse" gradientTransform="translate(35 28) rotate(53.7751) scale(53.3034 58.3006)">
<stop stop-color="#492B7C"/>
<stop offset="1" stop-color="#8C68CA"/>
</radialGradient>
</defs>
</svg>
