<svg width="38" height="32" viewBox="0 0 38 32" fill="none" xmlns="http://www.w3.org/2000/svg">
<rect width="38" height="32" rx="2" fill="#E2D9F2"/>
<path d="M11.5 14.5C10.675 14.5 10 15.175 10 16C10 16.825 10.675 17.5 11.5 17.5C12.325 17.5 13 16.825 13 16C13 15.175 12.325 14.5 11.5 14.5ZM26.5 14.5C25.675 14.5 25 15.175 25 16C25 16.825 25.675 17.5 26.5 17.5C27.325 17.5 28 16.825 28 16C28 15.175 27.325 14.5 26.5 14.5ZM19 14.5C18.175 14.5 17.5 15.175 17.5 16C17.5 16.825 18.175 17.5 19 17.5C19.825 17.5 20.5 16.825 20.5 16C20.5 15.175 19.825 14.5 19 14.5Z" fill="#492B7C"/>
</svg>
