<svg width="34" height="31" viewBox="0 0 34 31" fill="none" xmlns="http://www.w3.org/2000/svg">
<path d="M16.1117 0.872347C14.9857 0.0343583 13.5702 -0.214252 12.2259 0.188953L3.13265 2.91685C1.25936 3.47919 0 5.17044 0 7.12702V26.5623C0 27.9657 0.645623 29.2509 1.77154 30.0875C2.89767 30.9256 4.31471 31.1741 5.65746 30.771L12.4456 28.734C12.2333 28.0339 12.1258 27.3034 12.1258 26.5623V17.7358C12.1258 15.8824 12.8017 14.1122 14.0323 12.7542C14.9355 11.7539 16.1071 11.0159 17.4165 10.6219L17.8833 10.4886V4.39902C17.8833 2.9956 17.2377 1.71044 16.1116 0.872347H16.1117Z" fill="#C47AFF"/>
<path d="M33.0387 15.0079V23.8344C33.0387 25.7895 31.7808 27.4823 29.906 28.0431L20.8128 30.7711C20.3916 30.8984 19.9627 30.9606 19.5383 30.9606C18.6092 30.9606 17.6999 30.6636 16.9269 30.0876C16.5738 29.8239 16.2677 29.5193 16.0161 29.1783C15.71 28.7691 15.4811 28.313 15.3371 27.8234C15.3356 27.8234 15.3341 27.8234 15.3326 27.8248L15.3356 27.8218C15.2189 27.4202 15.1553 26.9974 15.1553 26.5624V17.736C15.1553 16.8296 15.425 15.9795 15.901 15.2732C16.3769 14.5669 17.0588 14.0032 17.8833 13.6682C18.0152 13.6152 18.1501 13.5665 18.288 13.5258L19.4004 13.1923L27.3813 10.7978C28.7255 10.3946 30.1411 10.6432 31.2672 11.4813C32.3933 12.3194 33.0388 13.6045 33.0388 15.0079H33.0387Z" fill="white"/>
</svg>
