<svg width="17" height="15" viewBox="0 0 17 15" fill="none" xmlns="http://www.w3.org/2000/svg">
<path d="M0.166016 1.24998C0.166016 0.973713 0.275763 0.708761 0.471113 0.51341C0.666463 0.31806 0.931415 0.208313 1.20768 0.208313H15.791C16.0673 0.208313 16.3322 0.31806 16.5276 0.51341C16.7229 0.708761 16.8327 0.973713 16.8327 1.24998C16.8327 1.52625 16.7229 1.7912 16.5276 1.98655C16.3322 2.1819 16.0673 2.29165 15.791 2.29165H1.20768C0.931415 2.29165 0.666463 2.1819 0.471113 1.98655C0.275763 1.7912 0.166016 1.52625 0.166016 1.24998ZM0.166016 13.75C0.166016 13.4737 0.275763 13.2088 0.471113 13.0134C0.666463 12.8181 0.931415 12.7083 1.20768 12.7083H15.791C16.0673 12.7083 16.3322 12.8181 16.5276 13.0134C16.7229 13.2088 16.8327 13.4737 16.8327 13.75C16.8327 14.0262 16.7229 14.2912 16.5276 14.4866C16.3322 14.6819 16.0673 14.7916 15.791 14.7916H1.20768C0.931415 14.7916 0.666463 14.6819 0.471113 14.4866C0.275763 14.2912 0.166016 14.0262 0.166016 13.75ZM1.20768 6.45831C0.931415 6.45831 0.666463 6.56806 0.471113 6.76341C0.275763 6.95876 0.166016 7.22371 0.166016 7.49998C0.166016 7.77625 0.275763 8.0412 0.471113 8.23655C0.666463 8.4319 0.931415 8.54165 1.20768 8.54165H9.54102C9.81728 8.54165 10.0822 8.4319 10.2776 8.23655C10.4729 8.0412 10.5827 7.77625 10.5827 7.49998C10.5827 7.22371 10.4729 6.95876 10.2776 6.76341C10.0822 6.56806 9.81728 6.45831 9.54102 6.45831H1.20768Z" fill="#181818"/>
</svg>
