<svg width="22" height="21" viewBox="0 0 22 21" fill="none" xmlns="http://www.w3.org/2000/svg">
<path d="M19.0402 5.32006L13.2802 1.29006C11.7102 0.19006 9.30023 0.25006 7.79023 1.42006L2.78023 5.33006C1.78023 6.11006 0.990234 7.71006 0.990234 8.97006V15.8701C0.990234 18.4201 3.06023 20.5001 5.61023 20.5001H16.3902C18.9402 20.5001 21.0102 18.4301 21.0102 15.8801V9.10006C21.0102 7.75006 20.1402 6.09006 19.0402 5.32006ZM11.7502 16.5001C11.7502 16.9101 11.4102 17.2501 11.0002 17.2501C10.5902 17.2501 10.2502 16.9101 10.2502 16.5001V13.5001C10.2502 13.0901 10.5902 12.7501 11.0002 12.7501C11.4102 12.7501 11.7502 13.0901 11.7502 13.5001V16.5001Z" fill="currentColor"/>
</svg>
