<svg width="36" height="36" viewBox="0 0 36 36" fill="none" xmlns="http://www.w3.org/2000/svg">
<path d="M30.9937 16.7166C30.9937 23.8479 25.8167 30.5271 18.7437 32.4812C18.2625 32.6125 17.7375 32.6125 17.2562 32.4812C10.1833 30.5271 5.00623 23.8479 5.00623 16.7166V10.3145C5.00623 9.11871 5.91041 7.76246 7.03333 7.31038L15.1562 3.98542C16.9791 3.24167 19.0354 3.24167 20.8583 3.98542L28.9812 7.31038C30.0896 7.76246 31.0083 9.11871 31.0083 10.3145L30.9937 16.7166Z" stroke="#1D1DD8" stroke-width="2" stroke-linecap="round" stroke-linejoin="round"/>
<path d="M18 18.7292C19.6109 18.7292 20.9167 17.4234 20.9167 15.8125C20.9167 14.2017 19.6109 12.8959 18 12.8959C16.3892 12.8959 15.0834 14.2017 15.0834 15.8125C15.0834 17.4234 16.3892 18.7292 18 18.7292Z" stroke="#1D1DD8" stroke-width="2" stroke-miterlimit="10" stroke-linecap="round" stroke-linejoin="round"/>
<path d="M18 18.7292V23.1042" stroke="#1D1DD8" stroke-width="2" stroke-miterlimit="10" stroke-linecap="round" stroke-linejoin="round"/>
</svg>
