<svg width="35" height="33" viewBox="0 0 35 33" fill="none" xmlns="http://www.w3.org/2000/svg">
<path d="M16.9169 1.16594C15.7346 0.286075 14.2483 0.0250405 12.8369 0.448396L3.28921 3.31263C1.32229 3.90307 0 5.67884 0 7.73321V28.1398C0 29.6133 0.677889 30.9627 1.86008 31.8412C3.04248 32.7211 4.53035 32.9821 5.9402 32.5588L13.0676 30.4201C12.8447 29.685 12.7318 28.9179 12.7318 28.1398V18.8722C12.7318 16.9261 13.4415 15.0674 14.7336 13.6417C15.6819 12.5913 16.9121 11.8165 18.287 11.4028L18.7771 11.2628V4.86887C18.7771 3.39531 18.0992 2.04592 16.9168 1.16594H16.9169Z" fill="#492B7C"/>
<path d="M34.6912 16.0096V25.2772C34.6912 27.33 33.3705 29.1074 31.402 29.6962L21.8544 32.5606C21.412 32.6942 20.9617 32.7595 20.5161 32.7595C19.5406 32.7595 18.5859 32.4476 17.7742 31.8429C17.4034 31.566 17.0821 31.2462 16.8179 30.8882C16.4965 30.4585 16.2562 29.9796 16.105 29.4655C16.1034 29.4655 16.1018 29.4655 16.1002 29.467L16.1034 29.4639C15.9809 29.0422 15.9141 28.5982 15.9141 28.1415V18.8739C15.9141 17.9223 16.1973 17.0297 16.6971 16.2881C17.1967 15.5465 17.9127 14.9546 18.7784 14.6029C18.9169 14.5472 19.0585 14.4962 19.2034 14.4534L20.3714 14.1033L28.7511 11.589C30.1625 11.1657 31.6489 11.4267 32.8312 12.3067C34.0136 13.1867 34.6913 14.536 34.6913 16.0096H34.6912Z" fill="#8C68CA"/>
</svg>
