<svg width="36" height="36" viewBox="0 0 36 36" fill="none" xmlns="http://www.w3.org/2000/svg">
<path d="M29.4624 12.2979C29.4624 12.9104 29.4187 13.5084 29.3458 14.0771C28.675 13.7854 27.9458 13.625 27.1729 13.625C25.3937 13.625 23.8187 14.4854 22.8416 15.7979C21.85 14.4854 20.275 13.625 18.4958 13.625C15.5062 13.625 13.0854 16.0604 13.0854 19.0792C13.0854 22.9875 15.1562 25.9771 17.4604 28.0042C17.3875 28.0479 17.3146 28.0626 17.2416 28.0917C16.8041 28.2521 16.075 28.2521 15.6375 28.0917C11.8604 26.7938 3.41663 21.4271 3.41663 12.2979C3.41663 8.27294 6.65411 5.02087 10.6499 5.02087C13.027 5.02087 15.127 6.15836 16.4395 7.92294C17.7666 6.15836 19.8666 5.02087 22.2291 5.02087C26.225 5.02087 29.4624 8.27294 29.4624 12.2979Z" stroke="#1D1DD8" stroke-width="2" stroke-linecap="round" stroke-linejoin="round"/>
<path d="M32.5832 19.0792C32.5832 25.9042 26.2687 29.9292 23.4395 30.8917C23.1041 31.0083 22.5645 31.0083 22.2291 30.8917C21.0186 30.4833 19.1666 29.5062 17.4603 28.0041C15.1562 25.9771 13.0853 22.9875 13.0853 19.0792C13.0853 16.0604 15.5061 13.625 18.4957 13.625C20.2749 13.625 21.8499 14.4854 22.8416 15.7979C23.8187 14.4854 25.3937 13.625 27.1728 13.625C27.9457 13.625 28.6749 13.7854 29.3457 14.0771C31.2562 14.9229 32.5832 16.8333 32.5832 19.0792Z" stroke="#1D1DD8" stroke-width="2" stroke-linecap="round" stroke-linejoin="round"/>
</svg>
