<svg width="26" height="21" viewBox="0 0 26 21" fill="none" xmlns="http://www.w3.org/2000/svg">
<path d="M25.5353 2.45002C24.619 2.85194 23.6427 3.11835 22.6248 3.2477C23.672 2.62249 24.4712 1.64002 24.8469 0.455819C23.8706 1.03791 22.7927 1.44907 21.6439 1.67852C20.7168 0.691428 19.3956 0.0800781 17.9542 0.0800781C15.1577 0.0800781 12.9063 2.34993 12.9063 5.13257C12.9063 5.53295 12.9402 5.91793 13.0234 6.28443C8.82401 6.07962 5.10817 4.06694 2.61196 1.00095C2.17616 1.75705 1.92053 2.62249 1.92053 3.55415C1.92053 5.3035 2.82139 6.8542 4.1642 7.75198C3.35266 7.73658 2.55652 7.50097 1.88204 7.12985C1.88204 7.14525 1.88204 7.16527 1.88204 7.18529C1.88204 9.63992 3.63293 11.6788 5.92895 12.1485C5.51779 12.2609 5.06968 12.3148 4.60462 12.3148C4.28124 12.3148 3.95477 12.2963 3.64833 12.2285C4.30279 14.2289 6.15994 15.6995 8.36819 15.7473C6.64964 17.0916 4.46757 17.9016 2.10532 17.9016C1.69108 17.9016 1.29378 17.8831 0.896484 17.8323C3.13399 19.2752 5.78574 20.0991 8.64538 20.0991C17.9404 20.0991 23.0221 12.3995 23.0221 5.72544C23.0221 5.50215 23.0144 5.28656 23.0036 5.07251C24.0061 4.36107 24.8485 3.47253 25.5353 2.45002Z" fill="#FEFEFE"/>
</svg>
