<svg width="107" height="25" viewBox="0 0 107 25" fill="none" xmlns="http://www.w3.org/2000/svg">
<path d="M12.8716 0.696915C11.972 0.0274488 10.8412 -0.171165 9.76721 0.150954L2.50267 2.33027C1.0061 2.77952 0 4.13065 0 5.69376V21.2205C0 22.3417 0.515786 23.3684 1.41528 24.0368C2.31494 24.7064 3.44701 24.9049 4.51972 24.5829L9.94273 22.9555C9.77314 22.3962 9.68723 21.8126 9.68723 21.2205V14.1691C9.68723 12.6884 10.2273 11.2742 11.2104 10.1893C11.9319 9.39017 12.8679 8.80059 13.914 8.48581L14.2869 8.37929V3.51436C14.2869 2.39317 13.7711 1.36646 12.8715 0.696915H12.8716Z" fill="#C47AFF"/>
<path d="M26.3964 11.991V19.0424C26.3964 20.6044 25.3914 21.9567 23.8937 22.4048L16.6292 24.5842C16.2926 24.6858 15.95 24.7355 15.611 24.7355C14.8687 24.7355 14.1423 24.4982 13.5247 24.0381C13.2426 23.8275 12.9981 23.5841 12.7971 23.3117C12.5525 22.9848 12.3697 22.6204 12.2546 22.2292C12.2534 22.2292 12.2523 22.2292 12.251 22.2304L12.2534 22.228C12.1602 21.9071 12.1094 21.5693 12.1094 21.2218V14.1704C12.1094 13.4464 12.3249 12.7672 12.7051 12.2029C13.0853 11.6386 13.6301 11.1883 14.2888 10.9207C14.3941 10.8783 14.5019 10.8395 14.6121 10.8069L15.5008 10.5405L21.8767 8.62751C22.9506 8.30539 24.0815 8.50401 24.9811 9.17356C25.8808 9.84311 26.3965 10.8698 26.3965 11.991H26.3964Z" fill="white"/>
<path d="M41.3123 18.8672C41.1832 18.8672 41.0777 18.8261 40.9955 18.744C40.9134 18.6619 40.8724 18.5563 40.8724 18.4273V6.98961C40.8724 6.86057 40.9134 6.75499 40.9955 6.67287C41.0777 6.59075 41.1832 6.5497 41.3123 6.5497H45.8874C47.037 6.5497 48.0165 6.73739 48.826 7.11278C49.6354 7.47644 50.2571 8.01606 50.6912 8.73165C51.1252 9.43551 51.3598 10.3095 51.395 11.3535C51.4068 11.8697 51.4126 12.3213 51.4126 12.7084C51.4126 13.0956 51.4068 13.5413 51.395 14.0458C51.3481 15.1367 51.1135 16.04 50.6912 16.7556C50.2806 17.4712 49.6764 18.005 48.8787 18.3569C48.0928 18.6971 47.125 18.8672 45.9753 18.8672H41.3123ZM44.0221 16.3333H45.8874C46.3918 16.3333 46.8082 16.2571 47.1367 16.1046C47.4769 15.9403 47.7291 15.6881 47.8933 15.3479C48.0693 15.0077 48.1632 14.5619 48.1749 14.0106C48.1983 13.6704 48.2101 13.3654 48.2101 13.0956C48.2218 12.8258 48.2218 12.5559 48.2101 12.2861C48.2101 12.0163 48.1983 11.7172 48.1749 11.3887C48.1514 10.591 47.9403 10.0103 47.5414 9.64667C47.1543 9.27128 46.5736 9.08358 45.7994 9.08358H44.0221V16.3333ZM57.4978 19.0432C56.1136 19.0432 55.0109 18.6678 54.1897 17.917C53.3685 17.1662 52.9404 16.0518 52.9052 14.5737C52.9052 14.4915 52.9052 14.386 52.9052 14.2569C52.9052 14.1279 52.9052 14.0282 52.9052 13.9578C52.9404 13.031 53.1456 12.2392 53.521 11.5823C53.9082 10.9136 54.436 10.4092 55.1047 10.069C55.7851 9.71705 56.5769 9.54109 57.4802 9.54109C58.5126 9.54109 59.363 9.74638 60.0317 10.157C60.7121 10.5675 61.2224 11.1248 61.5626 11.8286C61.9028 12.5325 62.0729 13.336 62.0729 14.2393V14.6616C62.0729 14.7907 62.026 14.8963 61.9321 14.9784C61.85 15.0605 61.7503 15.1016 61.633 15.1016H56.0021C56.0021 15.1133 56.0021 15.1309 56.0021 15.1543C56.0021 15.1778 56.0021 15.2013 56.0021 15.2247C56.0139 15.5649 56.0725 15.8758 56.1781 16.1573C56.2837 16.4389 56.4479 16.6618 56.6708 16.826C56.8937 16.9902 57.1635 17.0724 57.4802 17.0724C57.7148 17.0724 57.9084 17.0372 58.0609 16.9668C58.2251 16.8847 58.36 16.7967 58.4656 16.7028C58.5712 16.5973 58.6533 16.5093 58.712 16.4389C58.8176 16.3216 58.8997 16.2512 58.9583 16.2277C59.0287 16.1925 59.1343 16.1749 59.2751 16.1749H61.457C61.5743 16.1749 61.6682 16.2101 61.7386 16.2805C61.8207 16.3392 61.8559 16.4272 61.8441 16.5445C61.8324 16.7439 61.7327 16.9844 61.545 17.2659C61.3573 17.5475 61.0816 17.829 60.718 18.1105C60.366 18.3804 59.9203 18.6032 59.3806 18.7792C58.841 18.9552 58.2134 19.0432 57.4978 19.0432ZM56.0021 13.3595H58.9759V13.3243C58.9759 12.9489 58.9173 12.6205 58.8 12.3389C58.6944 12.0574 58.5243 11.8404 58.2897 11.6878C58.0668 11.5353 57.797 11.4591 57.4802 11.4591C57.1635 11.4591 56.8937 11.5353 56.6708 11.6878C56.4596 11.8404 56.2954 12.0574 56.1781 12.3389C56.0608 12.6205 56.0021 12.9489 56.0021 13.3243V13.3595ZM66.6342 18.8672C66.4582 18.8672 66.3292 18.8261 66.2471 18.744C66.165 18.6502 66.0946 18.5446 66.0359 18.4273L62.7102 10.2625C62.6867 10.2156 62.675 10.1628 62.675 10.1042C62.675 9.99859 62.7102 9.91061 62.7806 9.84023C62.8627 9.75811 62.9624 9.71705 63.0797 9.71705H65.0681C65.2206 9.71705 65.3379 9.75811 65.4201 9.84023C65.5022 9.92234 65.555 10.0045 65.5784 10.0866L67.5668 15.4887L69.5728 10.0866C69.5963 10.0045 69.6491 9.92234 69.7312 9.84023C69.8133 9.75811 69.9306 9.71705 70.0831 9.71705H72.0715C72.1771 9.71705 72.2709 9.75811 72.353 9.84023C72.4352 9.91061 72.4762 9.99859 72.4762 10.1042C72.4762 10.1628 72.4645 10.2156 72.441 10.2625L69.1153 18.4273C69.0684 18.5446 68.998 18.6502 68.9041 18.744C68.822 18.8261 68.6871 18.8672 68.4994 18.8672H66.6342ZM72.6635 18.8672C72.5696 18.8672 72.4816 18.832 72.3995 18.7616C72.3291 18.6795 72.2939 18.5915 72.2939 18.4977C72.2939 18.439 72.2998 18.3862 72.3115 18.3393L76.4467 7.0424C76.4819 6.91336 76.5523 6.80191 76.6578 6.70806C76.7752 6.60249 76.9335 6.5497 77.1329 6.5497H79.7372C79.9366 6.5497 80.0891 6.60249 80.1947 6.70806C80.312 6.80191 80.3883 6.91336 80.4235 7.0424L84.541 18.3393C84.5645 18.3862 84.5762 18.439 84.5762 18.4977C84.5762 18.5915 84.5352 18.6795 84.4531 18.7616C84.3827 18.832 84.2947 18.8672 84.1891 18.8672H82.0248C81.8488 18.8672 81.7139 18.8261 81.62 18.744C81.5379 18.6502 81.4851 18.568 81.4617 18.4977L80.7754 16.7028H76.0772L75.4085 18.4977C75.385 18.568 75.3322 18.6502 75.2501 18.744C75.168 18.8261 75.0272 18.8672 74.8278 18.8672H72.6635ZM76.7986 14.1689H80.0716L78.4175 9.52349L76.7986 14.1689ZM89.5353 19.0432C88.7727 19.0432 88.1217 18.961 87.5821 18.7968C87.0542 18.6208 86.6201 18.4097 86.2799 18.1633C85.9515 17.917 85.7051 17.6648 85.5409 17.4067C85.3766 17.1369 85.2887 16.9081 85.2769 16.7204C85.2652 16.5914 85.3063 16.4858 85.4001 16.4037C85.4939 16.3098 85.5937 16.2629 85.6992 16.2629H87.7052C87.7404 16.2629 87.7698 16.2688 87.7932 16.2805C87.8167 16.2922 87.8519 16.3157 87.8988 16.3509C88.0513 16.433 88.2038 16.5386 88.3563 16.6676C88.5088 16.7849 88.6848 16.8905 88.8842 16.9844C89.0836 17.0782 89.3241 17.1251 89.6056 17.1251C89.9341 17.1251 90.2098 17.0606 90.4327 16.9316C90.6556 16.8025 90.767 16.609 90.767 16.3509C90.767 16.1632 90.7142 16.0107 90.6086 15.8934C90.5031 15.7644 90.286 15.6412 89.9576 15.5239C89.6408 15.4066 89.1599 15.2892 88.5147 15.1719C87.9047 15.0312 87.3709 14.8493 86.9134 14.6265C86.4559 14.3918 86.104 14.0927 85.8576 13.729C85.6113 13.3536 85.4881 12.902 85.4881 12.3741C85.4881 11.9049 85.6406 11.4532 85.9456 11.0192C86.2506 10.5851 86.6964 10.2332 87.2829 9.9634C87.8695 9.68186 88.5909 9.54109 89.4473 9.54109C90.1277 9.54109 90.7142 9.6232 91.2069 9.78744C91.7113 9.93994 92.1337 10.1394 92.4739 10.3857C92.8258 10.6321 93.0897 10.8843 93.2657 11.1424C93.4417 11.4004 93.5355 11.6351 93.5472 11.8462C93.559 11.9635 93.5238 12.0691 93.4417 12.163C93.3595 12.2451 93.2657 12.2861 93.1601 12.2861H91.3301C91.2832 12.2861 91.2362 12.2803 91.1893 12.2685C91.1424 12.2451 91.1013 12.2216 91.0661 12.1981C90.9254 12.1278 90.7846 12.0339 90.6438 11.9166C90.5031 11.7993 90.3388 11.6937 90.1511 11.5999C89.9634 11.506 89.7288 11.4591 89.4473 11.4591C89.1305 11.4591 88.8842 11.5295 88.7082 11.6703C88.5323 11.811 88.4443 11.9929 88.4443 12.2157C88.4443 12.3682 88.4912 12.509 88.5851 12.6381C88.6906 12.7671 88.8959 12.8844 89.2009 12.99C89.5177 13.0956 90.0045 13.2129 90.6614 13.3419C91.4709 13.471 92.1161 13.6821 92.597 13.9754C93.078 14.2569 93.4182 14.5913 93.6176 14.9784C93.8171 15.3538 93.9168 15.7526 93.9168 16.1749C93.9168 16.738 93.7467 17.2366 93.4065 17.6706C93.078 18.1047 92.5853 18.4449 91.9284 18.6912C91.2714 18.9258 90.4737 19.0432 89.5353 19.0432ZM95.9357 18.8672C95.8066 18.8672 95.7011 18.8261 95.6189 18.744C95.5368 18.6619 95.4958 18.5563 95.4958 18.4273V6.81364C95.4958 6.6846 95.5368 6.57902 95.6189 6.49691C95.7011 6.41479 95.8066 6.37373 95.9357 6.37373H97.9769C98.0942 6.37373 98.1939 6.41479 98.276 6.49691C98.3699 6.57902 98.4168 6.6846 98.4168 6.81364V12.7084L100.863 10.0162C100.933 9.93407 101.009 9.86369 101.091 9.80503C101.174 9.74638 101.291 9.71705 101.443 9.71705H103.801C103.907 9.71705 103.995 9.75811 104.065 9.84023C104.147 9.91061 104.188 9.99859 104.188 10.1042C104.188 10.1511 104.177 10.2039 104.153 10.2625C104.13 10.3212 104.095 10.3681 104.048 10.4033L100.88 13.817L104.488 18.1985C104.581 18.2924 104.628 18.3862 104.628 18.4801C104.628 18.5856 104.587 18.6795 104.505 18.7616C104.435 18.832 104.341 18.8672 104.224 18.8672H101.813C101.637 18.8672 101.508 18.8379 101.426 18.7792C101.344 18.7088 101.267 18.6384 101.197 18.568L98.4168 15.2247V18.4273C98.4168 18.5563 98.3699 18.6619 98.276 18.744C98.1939 18.8261 98.0942 18.8672 97.9769 18.8672H95.9357Z" fill="#FEFEFE"/>
</svg>
