<svg width="107" height="36" viewBox="0 0 107 36" fill="none" xmlns="http://www.w3.org/2000/svg">
<g clip-path="url(#clip0_708_28098)">
<path d="M14.702 13.2696H21.0786V29.8205H0.8125V13.2696H7.18913V21.528H14.6788V13.2696H14.702ZM36.2666 21.7319C36.2666 24.5527 35.0144 26.184 33.2753 26.184C31.5826 26.184 30.3073 24.5187 30.3073 21.7319V8.40964H27.4784V21.698C27.4784 26.9317 30.0291 30.2623 33.2985 30.2623C36.5912 30.2623 39.1187 26.9317 39.1187 21.698V8.40964H36.2898V21.7319H36.2666ZM46.3996 14.561C45.3098 14.561 44.104 15.2407 43.478 16.804V14.9688H40.8346V29.8205H43.5707V21.2561C43.5707 19.5229 44.2663 18.1635 45.4721 18.1635C46.7938 18.1635 47.3503 19.4549 47.3503 21.1202V29.7865H50.0865V20.4405C50.0633 17.1779 48.9039 14.561 46.3996 14.561ZM56.4399 20.8143C56.4399 20.8143 55.5124 20.5424 54.9327 20.3725C54.353 20.2026 54.0052 19.7608 54.0052 19.0471C54.0052 18.1975 54.5153 17.5857 55.2341 17.5857C56.2544 17.5857 56.6486 18.3334 56.7413 19.251H59.1065C59.0833 17.2119 57.9935 14.561 55.2805 14.561C53.1009 14.561 51.5009 16.7701 51.5009 19.4209C51.5009 21.494 52.382 23.2273 54.3298 23.839L55.7211 24.2808C56.5095 24.5187 56.8109 25.0625 56.8109 25.7422C56.8109 26.5239 56.324 27.2036 55.4196 27.2036C54.3298 27.2036 53.7269 26.286 53.5878 25.2324H51.1531C51.2922 27.4415 52.3821 30.2623 55.4428 30.2623C58.0862 30.2623 59.4311 27.7814 59.4311 25.3684C59.4543 23.1933 58.4341 21.4261 56.4399 20.8143ZM71.0946 22.3437C71.0946 26.8298 69.17 30.1603 66.3179 30.1603C64.9266 30.1603 63.8832 29.3447 63.3962 28.3591V35.53H60.6601V14.9688H63.3035V16.804C63.7672 15.6485 64.8802 14.629 66.4106 14.629C69.3787 14.629 71.0946 17.9596 71.0946 22.3437ZM68.4048 22.3777C68.4048 19.7608 67.2918 18.2314 65.9005 18.2314C64.5092 18.2314 63.373 19.7608 63.373 22.3777C63.373 24.9945 64.5092 26.5579 65.9005 26.5579C67.2918 26.5579 68.4048 25.0285 68.4048 22.3777ZM84.1725 14.9688H86.8159V29.8205H84.0797V27.9853C83.616 29.1748 82.5493 30.1603 81.158 30.1603C78.306 30.1603 76.3814 26.8298 76.3814 22.3437C76.3814 17.9256 78.0973 14.629 81.0421 14.629C82.5725 14.629 83.6623 15.6485 84.1493 16.804V14.9688H84.1725ZM84.1261 22.3777C84.1261 19.7608 82.9899 18.2314 81.5986 18.2314C80.2073 18.2314 79.0943 19.7608 79.0943 22.3777C79.0943 25.0285 80.2073 26.5579 81.5986 26.5579C82.9899 26.5579 84.1261 24.9945 84.1261 22.3777ZM72.3699 29.7865H75.106V8.40964H72.3699V29.7865ZM103.07 14.561C102.097 14.561 100.984 15.0368 100.334 16.1923V8.40964H97.5982V29.7865H100.334V21.0862C100.404 19.4549 101.076 18.1975 102.236 18.1975C103.557 18.1975 104.114 19.4889 104.114 21.1542V29.8205H106.85V20.4745C106.827 17.1779 105.644 14.561 103.07 14.561ZM93.3316 20.8143C93.3316 20.8143 92.4041 20.5424 91.8244 20.3725C91.2447 20.2026 90.8969 19.7608 90.8969 19.0471C90.8969 18.1975 91.407 17.5857 92.1258 17.5857C93.1461 17.5857 93.5403 18.3334 93.633 19.251H95.9982C95.975 17.2119 94.8852 14.561 92.1722 14.561C89.9926 14.561 88.3926 16.7701 88.3926 19.4209C88.3926 21.494 89.2738 23.2273 91.2215 23.839L92.6128 24.2808C93.4012 24.5187 93.7026 25.0625 93.7026 25.7422C93.7026 26.5239 93.2157 27.2036 92.3114 27.2036C91.2215 27.2036 90.6187 26.286 90.4795 25.2324H88.0448C88.1839 27.4415 89.2738 30.2623 92.3345 30.2623C94.9779 30.2623 96.3228 27.7814 96.3228 25.3684C96.346 23.1933 95.3258 21.4261 93.3316 20.8143ZM14.702 0.117188H7.18913V8.40964H14.6788V0.117188H14.702Z" fill="black"/>
</g>
<defs>
<clipPath id="clip0_708_28098">
<rect width="106.014" height="35.4128" fill="white" transform="translate(0.8125 0.117188)"/>
</clipPath>
</defs>
</svg>
