<svg width="36" height="36" viewBox="0 0 36 36" fill="none" xmlns="http://www.w3.org/2000/svg">
<path d="M18.0291 4.74377C13.202 4.74377 9.27911 8.66669 9.27911 13.4938V17.7084C9.27911 18.5979 8.89994 19.9542 8.44786 20.7125L6.77078 23.4979C5.73536 25.2188 6.44995 27.1292 8.34578 27.7709C14.6312 29.8709 21.4124 29.8709 27.6979 27.7709C29.4624 27.1875 30.2354 25.1021 29.2729 23.4979L27.5958 20.7125C27.1583 19.9542 26.7791 18.5979 26.7791 17.7084V13.4938C26.7791 8.68127 22.8416 4.74377 18.0291 4.74377Z" stroke="#1D1DD8" stroke-width="2" stroke-miterlimit="10" stroke-linecap="round"/>
<path d="M20.7271 5.16672C20.275 5.03547 19.8084 4.93339 19.3271 4.87506C17.9271 4.70006 16.5855 4.80214 15.3313 5.16672C15.7542 4.08756 16.8042 3.32922 18.0292 3.32922C19.2542 3.32922 20.3042 4.08756 20.7271 5.16672Z" stroke="#1D1DD8" stroke-width="2" stroke-miterlimit="10" stroke-linecap="round" stroke-linejoin="round"/>
<path d="M22.4042 28.2958C22.4042 30.702 20.4354 32.6708 18.0292 32.6708C16.8333 32.6708 15.725 32.1749 14.9375 31.3874C14.15 30.5999 13.6542 29.4916 13.6542 28.2958" stroke="#1D1DD8" stroke-width="2" stroke-miterlimit="10"/>
</svg>
