<svg width="203" height="48" viewBox="0 0 203 48" fill="none" xmlns="http://www.w3.org/2000/svg">
<path d="M24.8123 1.50359C23.0782 0.213069 20.8983 -0.169795 18.828 0.451147L4.82434 4.65216C1.93943 5.51817 0 8.12273 0 11.1359V41.0665C0 43.2278 0.99427 45.207 2.7282 46.4954C4.46246 47.7861 6.64473 48.1688 8.71258 47.548L19.1664 44.411C18.8395 43.3329 18.6739 42.2078 18.6739 41.0665V27.4736C18.6739 24.6193 19.7149 21.8931 21.61 19.8019C23.0009 18.2614 24.8053 17.1249 26.8218 16.5181L27.5406 16.3127V6.93472C27.5406 4.77343 26.5463 2.79426 24.8121 1.50359H24.8123Z" fill="#C47AFF"/>
<path d="M50.8806 23.2728V36.8656C50.8806 39.8766 48.9434 42.4835 46.0563 43.3471L32.0526 47.5483C31.4038 47.7443 30.7433 47.8401 30.0898 47.8401C28.6589 47.8401 27.2586 47.3827 26.0682 46.4957C25.5243 46.0896 25.053 45.6205 24.6655 45.0954C24.1941 44.4652 23.8416 43.7627 23.6199 43.0088C23.6175 43.0088 23.6153 43.0088 23.6129 43.011L23.6175 43.0064C23.4379 42.3878 23.3398 41.7367 23.3398 41.0668V27.4739C23.3398 26.0782 23.7553 24.7689 24.4883 23.6812C25.2211 22.5935 26.2713 21.7254 27.541 21.2095C27.7441 21.1278 27.9519 21.053 28.1643 20.9902L29.8775 20.4767L42.1682 16.789C44.2383 16.1681 46.4183 16.551 48.1524 17.8416C49.8867 19.1323 50.8808 21.1115 50.8808 23.2728H50.8806Z" fill="#1D1DD8"/>
<path d="M80.1033 36C79.8545 36 79.651 35.9209 79.4927 35.7626C79.3344 35.6043 79.2553 35.4007 79.2553 35.152V13.1038C79.2553 12.8551 79.3344 12.6516 79.4927 12.4933C79.651 12.335 79.8545 12.2558 80.1033 12.2558H88.9225C91.1387 12.2558 93.0269 12.6176 94.5872 13.3413C96.1476 14.0423 97.3461 15.0825 98.1828 16.4619C99.0195 17.8187 99.4717 19.5035 99.5396 21.5161C99.5622 22.511 99.5735 23.3817 99.5735 24.1279C99.5735 24.8742 99.5622 25.7335 99.5396 26.7059C99.4491 28.8089 98.9969 30.5501 98.1828 31.9296C97.3913 33.309 96.2267 34.3379 94.689 35.0163C93.1739 35.6721 91.3083 36 89.0921 36H80.1033ZM85.327 31.1155H88.9225C89.8949 31.1155 90.6977 30.9685 91.3309 30.6745C91.9867 30.3579 92.4729 29.8717 92.7895 29.216C93.1287 28.5602 93.3096 27.7008 93.3322 26.638C93.3774 25.9822 93.4 25.3943 93.4 24.8742C93.4226 24.354 93.4226 23.8339 93.4 23.3138C93.4 22.7937 93.3774 22.2171 93.3322 21.5839C93.287 20.0462 92.8799 18.9268 92.111 18.2258C91.3648 17.5022 90.2454 17.1403 88.7529 17.1403H85.327V31.1155ZM111.304 36.3392C108.635 36.3392 106.51 35.6156 104.927 34.1683C103.344 32.721 102.518 30.5728 102.451 27.7235C102.451 27.5652 102.451 27.3616 102.451 27.1129C102.451 26.8641 102.451 26.6719 102.451 26.5363C102.518 24.7498 102.914 23.2234 103.638 21.957C104.384 20.668 105.402 19.6957 106.691 19.0399C108.002 18.3615 109.529 18.0223 111.27 18.0223C113.26 18.0223 114.899 18.418 116.188 19.2095C117.5 20.001 118.484 21.0751 119.139 22.4319C119.795 23.7887 120.123 25.3377 120.123 27.079V27.8931C120.123 28.1418 120.033 28.3453 119.852 28.5036C119.693 28.6619 119.501 28.7411 119.275 28.7411H108.421C108.421 28.7637 108.421 28.7976 108.421 28.8428C108.421 28.8881 108.421 28.9333 108.421 28.9785C108.443 29.6343 108.556 30.2336 108.76 30.7763C108.963 31.319 109.28 31.7487 109.71 32.0653C110.139 32.3818 110.659 32.5401 111.27 32.5401C111.722 32.5401 112.095 32.4723 112.389 32.3366C112.706 32.1783 112.966 32.0087 113.169 31.8278C113.373 31.6243 113.531 31.4547 113.644 31.319C113.848 31.0929 114.006 30.9572 114.119 30.912C114.255 30.8441 114.458 30.8102 114.73 30.8102H118.936C119.162 30.8102 119.343 30.878 119.479 31.0137C119.637 31.1268 119.705 31.2964 119.682 31.5225C119.659 31.907 119.467 32.3705 119.105 32.9133C118.744 33.456 118.212 33.9987 117.511 34.5414C116.833 35.0615 115.973 35.4912 114.933 35.8304C113.893 36.1696 112.683 36.3392 111.304 36.3392ZM108.421 25.383H114.153V25.3151C114.153 24.5915 114.04 23.9583 113.814 23.4156C113.61 22.8729 113.282 22.4545 112.83 22.1605C112.401 21.8666 111.88 21.7196 111.27 21.7196C110.659 21.7196 110.139 21.8666 109.71 22.1605C109.303 22.4545 108.986 22.8729 108.76 23.4156C108.534 23.9583 108.421 24.5915 108.421 25.3151V25.383ZM128.916 36C128.577 36 128.328 35.9209 128.17 35.7626C128.011 35.5817 127.876 35.3781 127.763 35.152L121.352 19.413C121.306 19.3225 121.284 19.2208 121.284 19.1077C121.284 18.9042 121.352 18.7346 121.487 18.5989C121.646 18.4406 121.838 18.3615 122.064 18.3615H125.897C126.191 18.3615 126.417 18.4406 126.575 18.5989C126.734 18.7572 126.835 18.9155 126.881 19.0738L130.714 29.4873L134.581 19.0738C134.626 18.9155 134.728 18.7572 134.886 18.5989C135.044 18.4406 135.27 18.3615 135.564 18.3615H139.397C139.601 18.3615 139.782 18.4406 139.94 18.5989C140.098 18.7346 140.177 18.9042 140.177 19.1077C140.177 19.2208 140.155 19.3225 140.11 19.413L133.699 35.152C133.608 35.3781 133.472 35.5817 133.292 35.7626C133.133 35.9209 132.873 36 132.511 36H128.916ZM140.538 36C140.357 36 140.188 35.9322 140.029 35.7965C139.894 35.6382 139.826 35.4686 139.826 35.2877C139.826 35.1746 139.837 35.0728 139.86 34.9824L147.831 13.2056C147.899 12.9568 148.035 12.742 148.238 12.5611C148.464 12.3576 148.77 12.2558 149.154 12.2558H154.174C154.559 12.2558 154.853 12.3576 155.056 12.5611C155.282 12.742 155.429 12.9568 155.497 13.2056L163.434 34.9824C163.48 35.0728 163.502 35.1746 163.502 35.2877C163.502 35.4686 163.423 35.6382 163.265 35.7965C163.129 35.9322 162.96 36 162.756 36H158.584C158.245 36 157.985 35.9209 157.804 35.7626C157.645 35.5817 157.544 35.4234 157.498 35.2877L156.176 31.8278H147.119L145.83 35.2877C145.785 35.4234 145.683 35.5817 145.525 35.7626C145.366 35.9209 145.095 36 144.71 36H140.538ZM148.51 26.9433H154.819L151.63 17.9884L148.51 26.9433ZM173.062 36.3392C171.592 36.3392 170.337 36.1809 169.297 35.8643C168.279 35.5251 167.442 35.1181 166.786 34.6432C166.153 34.1683 165.678 33.6821 165.362 33.1846C165.045 32.6645 164.876 32.2235 164.853 31.8617C164.83 31.613 164.91 31.4095 165.09 31.2512C165.271 31.0703 165.464 30.9798 165.667 30.9798H169.534C169.602 30.9798 169.658 30.9911 169.704 31.0137C169.749 31.0363 169.817 31.0816 169.907 31.1494C170.201 31.3077 170.495 31.5112 170.789 31.76C171.083 31.9861 171.422 32.1896 171.807 32.3705C172.191 32.5514 172.655 32.6419 173.197 32.6419C173.831 32.6419 174.362 32.5175 174.792 32.2688C175.221 32.02 175.436 31.6469 175.436 31.1494C175.436 30.7876 175.334 30.4936 175.131 30.2675C174.927 30.0187 174.509 29.7813 173.876 29.5552C173.265 29.329 172.338 29.1029 171.094 28.8767C169.918 28.6054 168.89 28.2549 168.008 27.8252C167.126 27.373 166.447 26.7963 165.972 26.0953C165.497 25.3717 165.26 24.501 165.26 23.4834C165.26 22.5789 165.554 21.7083 166.142 20.8716C166.73 20.0349 167.589 19.3565 168.72 18.8364C169.851 18.2936 171.241 18.0223 172.892 18.0223C174.204 18.0223 175.334 18.1806 176.284 18.4972C177.257 18.7911 178.071 19.1756 178.726 19.6504C179.405 20.1253 179.914 20.6115 180.253 21.109C180.592 21.6065 180.773 22.0588 180.796 22.4658C180.818 22.692 180.75 22.8955 180.592 23.0764C180.434 23.2347 180.253 23.3138 180.049 23.3138H176.522C176.431 23.3138 176.341 23.3025 176.25 23.2799C176.16 23.2347 176.081 23.1895 176.013 23.1442C175.741 23.0085 175.47 22.8276 175.199 22.6015C174.927 22.3754 174.611 22.1718 174.249 21.9909C173.887 21.81 173.435 21.7196 172.892 21.7196C172.282 21.7196 171.807 21.8553 171.467 22.1266C171.128 22.398 170.959 22.7485 170.959 23.1781C170.959 23.4721 171.049 23.7435 171.23 23.9922C171.434 24.241 171.829 24.4671 172.417 24.6706C173.028 24.8742 173.966 25.1003 175.233 25.349C176.793 25.5978 178.037 26.0048 178.964 26.5702C179.891 27.1129 180.547 27.7574 180.931 28.5036C181.316 29.2273 181.508 29.9961 181.508 30.8102C181.508 31.8957 181.18 32.8567 180.524 33.6934C179.891 34.5301 178.941 35.1859 177.675 35.6608C176.409 36.1131 174.871 36.3392 173.062 36.3392ZM185.4 36C185.151 36 184.947 35.9209 184.789 35.7626C184.631 35.6043 184.552 35.4007 184.552 35.152V12.7646C184.552 12.5159 184.631 12.3124 184.789 12.1541C184.947 11.9958 185.151 11.9166 185.4 11.9166H189.334C189.561 11.9166 189.753 11.9958 189.911 12.1541C190.092 12.3124 190.182 12.5159 190.182 12.7646V24.1279L194.897 18.9381C195.033 18.7798 195.18 18.6441 195.338 18.5311C195.497 18.418 195.723 18.3615 196.017 18.3615H200.562C200.766 18.3615 200.935 18.4406 201.071 18.5989C201.229 18.7346 201.308 18.9042 201.308 19.1077C201.308 19.1982 201.286 19.2999 201.24 19.413C201.195 19.5261 201.127 19.6165 201.037 19.6844L194.931 26.2649L201.885 34.711C202.066 34.8919 202.156 35.0728 202.156 35.2538C202.156 35.4573 202.077 35.6382 201.919 35.7965C201.783 35.9322 201.602 36 201.376 36H196.729C196.39 36 196.141 35.9435 195.983 35.8304C195.824 35.6947 195.677 35.559 195.542 35.4234L190.182 28.9785V35.152C190.182 35.4007 190.092 35.6043 189.911 35.7626C189.753 35.9209 189.561 36 189.334 36H185.4Z" fill="#1D1DD8"/>
</svg>
