<svg width="203" height="48" viewBox="0 0 203 48" fill="none" xmlns="http://www.w3.org/2000/svg">
<path d="M24.8123 1.38835C23.0782 0.0978343 20.8983 -0.28503 18.828 0.335912L4.82434 4.53693C1.93943 5.40294 0 8.00749 0 11.0207V40.9513C0 43.1126 0.99427 45.0917 2.7282 46.3802C4.46246 47.6709 6.64473 48.0536 8.71258 47.4328L19.1664 44.2958C18.8395 43.2176 18.6739 42.0926 18.6739 40.9513V27.3584C18.6739 24.504 19.7149 21.7779 21.61 19.6867C23.0009 18.1462 24.8053 17.0096 26.8218 16.4028L27.5406 16.1975V6.81949C27.5406 4.65819 26.5463 2.67903 24.8121 1.38835H24.8123Z" fill="#C47AFF"/>
<path d="M50.8806 23.1575V36.7504C50.8806 39.7613 48.9434 42.3683 46.0563 43.2319L32.0526 47.4331C31.4038 47.629 30.7433 47.7249 30.0898 47.7249C28.6589 47.7249 27.2586 47.2675 26.0682 46.3805C25.5243 45.9744 25.053 45.5053 24.6655 44.9801C24.1941 44.35 23.8416 43.6475 23.6199 42.8935C23.6175 42.8935 23.6153 42.8935 23.6129 42.8958L23.6175 42.8912C23.4379 42.2726 23.3398 41.6215 23.3398 40.9516V27.3587C23.3398 25.963 23.7553 24.6537 24.4883 23.566C25.2211 22.4783 26.2713 21.6102 27.541 21.0943C27.7441 21.0126 27.9519 20.9377 28.1643 20.875L29.8775 20.3615L42.1682 16.6738C44.2383 16.0529 46.4183 16.4357 48.1524 17.7264C49.8867 19.0171 50.8808 20.9962 50.8808 23.1575H50.8806Z" fill="white"/>
<path d="M79.6306 35.8848C79.3819 35.8848 79.1784 35.8056 79.0201 35.6473C78.8618 35.489 78.7826 35.2855 78.7826 35.0368V12.9886C78.7826 12.7399 78.8618 12.5363 79.0201 12.378C79.1784 12.2197 79.3819 12.1406 79.6306 12.1406H88.4499C90.666 12.1406 92.5542 12.5024 94.1146 13.226C95.6749 13.9271 96.8734 14.9673 97.7101 16.3467C98.5468 17.7035 98.9991 19.3882 99.0669 21.4008C99.0895 22.3958 99.1008 23.2664 99.1008 24.0127C99.1008 24.7589 99.0895 25.6182 99.0669 26.5906C98.9765 28.6937 98.5242 30.4349 97.7101 31.8143C96.9186 33.1938 95.754 34.2227 94.2163 34.9011C92.7012 35.5569 90.8356 35.8848 88.6195 35.8848H79.6306ZM84.8543 31.0003H88.4499C89.4223 31.0003 90.225 30.8533 90.8582 30.5593C91.514 30.2427 92.0002 29.7565 92.3168 29.1007C92.656 28.4449 92.8369 27.5856 92.8595 26.5228C92.9047 25.867 92.9274 25.279 92.9274 24.7589C92.95 24.2388 92.95 23.7187 92.9274 23.1986C92.9274 22.6785 92.9047 22.1018 92.8595 21.4687C92.8143 19.9309 92.4073 18.8116 91.6384 18.1106C90.8921 17.3869 89.7728 17.0251 88.2803 17.0251H84.8543V31.0003ZM110.831 36.224C108.163 36.224 106.037 35.5003 104.454 34.0531C102.871 32.6058 102.046 30.4575 101.978 27.6082C101.978 27.4499 101.978 27.2464 101.978 26.9977C101.978 26.7489 101.978 26.5567 101.978 26.421C102.046 24.6346 102.442 23.1081 103.165 21.8418C103.911 20.5528 104.929 19.5804 106.218 18.9246C107.53 18.2462 109.056 17.907 110.797 17.907C112.787 17.907 114.427 18.3028 115.716 19.0942C117.027 19.8857 118.011 20.9599 118.667 22.3167C119.323 23.6735 119.65 25.2225 119.65 26.9637V27.7778C119.65 28.0266 119.56 28.2301 119.379 28.3884C119.221 28.5467 119.029 28.6258 118.802 28.6258H107.948C107.948 28.6484 107.948 28.6824 107.948 28.7276C107.948 28.7728 107.948 28.818 107.948 28.8633C107.971 29.5191 108.084 30.1183 108.287 30.661C108.491 31.2038 108.807 31.6334 109.237 31.95C109.667 32.2666 110.187 32.4249 110.797 32.4249C111.25 32.4249 111.623 32.3571 111.917 32.2214C112.233 32.0631 112.493 31.8935 112.697 31.7126C112.9 31.5091 113.059 31.3395 113.172 31.2038C113.375 30.9776 113.533 30.842 113.647 30.7967C113.782 30.7289 113.986 30.695 114.257 30.695H118.463C118.689 30.695 118.87 30.7628 119.006 30.8985C119.164 31.0116 119.232 31.1812 119.209 31.4073C119.187 31.7917 118.995 32.2553 118.633 32.798C118.271 33.3407 117.74 33.8835 117.039 34.4262C116.36 34.9463 115.501 35.376 114.461 35.7152C113.42 36.0544 112.211 36.224 110.831 36.224ZM107.948 25.2677H113.68V25.1999C113.68 24.4763 113.567 23.8431 113.341 23.3004C113.138 22.7576 112.81 22.3393 112.358 22.0453C111.928 21.7513 111.408 21.6043 110.797 21.6043C110.187 21.6043 109.667 21.7513 109.237 22.0453C108.83 22.3393 108.513 22.7576 108.287 23.3004C108.061 23.8431 107.948 24.4763 107.948 25.1999V25.2677ZM128.443 35.8848C128.104 35.8848 127.855 35.8056 127.697 35.6473C127.539 35.4664 127.403 35.2629 127.29 35.0368L120.879 19.2978C120.834 19.2073 120.811 19.1056 120.811 18.9925C120.811 18.789 120.879 18.6194 121.015 18.4837C121.173 18.3254 121.365 18.2462 121.591 18.2462H125.424C125.718 18.2462 125.944 18.3254 126.103 18.4837C126.261 18.642 126.363 18.8003 126.408 18.9586L130.241 29.3721L134.108 18.9586C134.153 18.8003 134.255 18.642 134.413 18.4837C134.571 18.3254 134.798 18.2462 135.092 18.2462H138.925C139.128 18.2462 139.309 18.3254 139.467 18.4837C139.626 18.6194 139.705 18.789 139.705 18.9925C139.705 19.1056 139.682 19.2073 139.637 19.2978L133.226 35.0368C133.135 35.2629 133 35.4664 132.819 35.6473C132.661 35.8056 132.401 35.8848 132.039 35.8848H128.443ZM140.066 35.8848C139.885 35.8848 139.715 35.8169 139.557 35.6812C139.421 35.5229 139.353 35.3533 139.353 35.1724C139.353 35.0594 139.365 34.9576 139.387 34.8672L147.358 13.0904C147.426 12.8416 147.562 12.6268 147.766 12.4459C147.992 12.2424 148.297 12.1406 148.681 12.1406H153.702C154.086 12.1406 154.38 12.2424 154.583 12.4459C154.81 12.6268 154.957 12.8416 155.024 13.0904L162.962 34.8672C163.007 34.9576 163.03 35.0594 163.03 35.1724C163.03 35.3533 162.95 35.5229 162.792 35.6812C162.657 35.8169 162.487 35.8848 162.283 35.8848H158.111C157.772 35.8848 157.512 35.8056 157.331 35.6473C157.173 35.4664 157.071 35.3081 157.026 35.1724L155.703 31.7126H146.646L145.357 35.1724C145.312 35.3081 145.21 35.4664 145.052 35.6473C144.894 35.8056 144.622 35.8848 144.238 35.8848H140.066ZM148.037 26.8281H154.346L151.158 17.8731L148.037 26.8281ZM172.589 36.224C171.119 36.224 169.864 36.0657 168.824 35.7491C167.806 35.4099 166.97 35.0028 166.314 34.528C165.681 34.0531 165.206 33.5669 164.889 33.0694C164.573 32.5493 164.403 32.1083 164.38 31.7465C164.358 31.4977 164.437 31.2942 164.618 31.1359C164.799 30.955 164.991 30.8646 165.194 30.8646H169.061C169.129 30.8646 169.186 30.8759 169.231 30.8985C169.276 30.9211 169.344 30.9663 169.434 31.0342C169.728 31.1925 170.022 31.396 170.316 31.6447C170.61 31.8709 170.95 32.0744 171.334 32.2553C171.718 32.4362 172.182 32.5267 172.725 32.5267C173.358 32.5267 173.889 32.4023 174.319 32.1535C174.749 31.9048 174.963 31.5317 174.963 31.0342C174.963 30.6724 174.862 30.3784 174.658 30.1522C174.455 29.9035 174.036 29.6661 173.403 29.4399C172.793 29.2138 171.865 28.9876 170.622 28.7615C169.446 28.4902 168.417 28.1396 167.535 27.71C166.653 27.2577 165.975 26.6811 165.5 25.9801C165.025 25.2564 164.787 24.3858 164.787 23.3682C164.787 22.4637 165.081 21.593 165.669 20.7563C166.257 19.9196 167.117 19.2412 168.247 18.7211C169.378 18.1784 170.769 17.907 172.419 17.907C173.731 17.907 174.862 18.0653 175.811 18.3819C176.784 18.6759 177.598 19.0603 178.254 19.5352C178.932 20.0101 179.441 20.4963 179.78 20.9938C180.119 21.4913 180.3 21.9435 180.323 22.3506C180.345 22.5767 180.278 22.7802 180.119 22.9612C179.961 23.1194 179.78 23.1986 179.577 23.1986H176.049C175.958 23.1986 175.868 23.1873 175.778 23.1647C175.687 23.1194 175.608 23.0742 175.54 23.029C175.269 22.8933 174.997 22.7124 174.726 22.4863C174.455 22.2601 174.138 22.0566 173.776 21.8757C173.414 21.6948 172.962 21.6043 172.419 21.6043C171.809 21.6043 171.334 21.74 170.995 22.0114C170.656 22.2827 170.486 22.6333 170.486 23.0629C170.486 23.3569 170.576 23.6283 170.757 23.877C170.961 24.1257 171.357 24.3519 171.945 24.5554C172.555 24.7589 173.494 24.9851 174.76 25.2338C176.32 25.4826 177.564 25.8896 178.491 26.4549C179.418 26.9977 180.074 27.6421 180.459 28.3884C180.843 29.112 181.035 29.8809 181.035 30.695C181.035 31.7804 180.707 32.7415 180.052 33.5782C179.418 34.4149 178.469 35.0707 177.202 35.5456C175.936 35.9978 174.398 36.224 172.589 36.224ZM184.927 35.8848C184.678 35.8848 184.475 35.8056 184.316 35.6473C184.158 35.489 184.079 35.2855 184.079 35.0368V12.6494C184.079 12.4006 184.158 12.1971 184.316 12.0388C184.475 11.8805 184.678 11.8014 184.927 11.8014H188.862C189.088 11.8014 189.28 11.8805 189.438 12.0388C189.619 12.1971 189.71 12.4006 189.71 12.6494V24.0127L194.425 18.8229C194.56 18.6646 194.707 18.5289 194.866 18.4158C195.024 18.3028 195.25 18.2462 195.544 18.2462H200.089C200.293 18.2462 200.462 18.3254 200.598 18.4837C200.756 18.6194 200.836 18.789 200.836 18.9925C200.836 19.0829 200.813 19.1847 200.768 19.2978C200.723 19.4108 200.655 19.5013 200.564 19.5691L194.459 26.1497L201.412 34.5958C201.593 34.7767 201.684 34.9576 201.684 35.1385C201.684 35.342 201.604 35.5229 201.446 35.6812C201.31 35.8169 201.13 35.8848 200.903 35.8848H196.256C195.917 35.8848 195.668 35.8282 195.51 35.7152C195.352 35.5795 195.205 35.4438 195.069 35.3081L189.71 28.8633V35.0368C189.71 35.2855 189.619 35.489 189.438 35.6473C189.28 35.8056 189.088 35.8848 188.862 35.8848H184.927Z" fill="#FEFEFE"/>
</svg>
