<svg width="25" height="26" viewBox="0 0 25 26" fill="none" xmlns="http://www.w3.org/2000/svg">
<path fill-rule="evenodd" clip-rule="evenodd" d="M8.01798 0.77002H17.2575C21.5092 0.77002 24.9571 4.21791 24.9571 8.46964V17.7092C24.9571 21.9609 21.5092 25.4088 17.2575 25.4088H8.01798C3.76625 25.4088 0.318359 21.9609 0.318359 17.7092V8.46964C0.318359 4.21791 3.76625 0.77002 8.01798 0.77002ZM17.2567 23.0989C20.2288 23.0989 22.6465 20.6812 22.6465 17.7092V8.46963C22.6465 5.49758 20.2288 3.0799 17.2567 3.0799H8.01721C5.04515 3.0799 2.62747 5.49758 2.62747 8.46963V17.7092C2.62747 20.6812 5.04515 23.0989 8.01721 23.0989H17.2567Z" fill="#FEFEFE"/>
<path fill-rule="evenodd" clip-rule="evenodd" d="M6.47852 13.0894C6.47852 9.68769 9.23652 6.92969 12.6382 6.92969C16.0399 6.92969 18.7979 9.68769 18.7979 13.0894C18.7979 16.4911 16.0399 19.2491 12.6382 19.2491C9.23652 19.2491 6.47852 16.4911 6.47852 13.0894ZM8.78763 13.0894C8.78763 15.2114 10.5154 16.9392 12.6374 16.9392C14.7595 16.9392 16.4873 15.2114 16.4873 13.0894C16.4873 10.9658 14.7595 9.23956 12.6374 9.23956C10.5154 9.23956 8.78763 10.9658 8.78763 13.0894Z" fill="#FEFEFE"/>
<circle cx="19.2602" cy="6.46775" r="0.820779" fill="#FEFEFE"/>
</svg>
