<svg width="121" height="60" viewBox="0 0 121 60" fill="none" xmlns="http://www.w3.org/2000/svg">
<path d="M18.0979 53.8326C22.4812 53.8326 26.0396 50.2742 26.0396 45.8909V37.9492H18.0979C13.7146 37.9492 10.1562 41.5076 10.1562 45.8909C10.1562 50.2742 13.7146 53.8326 18.0979 53.8326Z" fill="#FEFEFE"/>
<path d="M10.1484 30.0003C10.1484 25.6169 13.7068 22.0586 18.0901 22.0586H26.0318V37.9503H18.0901C13.7068 37.9503 10.1484 34.3919 10.1484 30.0086V30.0003Z" fill="#FEFEFE"/>
<path d="M10.1484 14.1096C10.1484 9.7263 13.7068 6.16797 18.0901 6.16797H26.0318V22.0596H18.0901C13.7068 22.0596 10.1484 18.5013 10.1484 14.118V14.1096Z" fill="#FEFEFE"/>
<path d="M25.9609 6.16797H33.9026C38.2859 6.16797 41.8443 9.7263 41.8443 14.1096C41.8443 18.493 38.2859 22.0513 33.9026 22.0513H25.9609V6.16797Z" fill="#FEFEFE"/>
<path d="M41.9276 30.0003C41.9276 34.3836 38.3693 37.9419 33.9859 37.9419C29.6026 37.9419 25.9609 34.3836 25.9609 30.0003C25.9609 25.6169 29.5193 22.0586 33.9026 22.0586C38.2859 22.0586 41.8443 25.6169 41.8443 30.0003H41.9276Z" fill="#FEFEFE"/>
<path d="M50.6094 19.332V35.982H52.751V28.032H57.901V25.9654H52.751V21.4154H59.4427V19.332H50.6094ZM63.3177 22.7154C64.0927 22.7154 64.7177 22.0904 64.7177 21.3154C64.7177 20.5404 64.0844 19.9987 63.3177 19.9987C62.551 19.9987 61.9177 20.6237 61.9177 21.3987C61.9177 21.7737 62.0677 22.1237 62.3344 22.3987C62.601 22.6737 62.951 22.8154 63.3344 22.8154L63.3177 22.7154ZM62.2344 24.8154V35.982H64.2927V24.8154H62.1677H62.2344ZM72.3344 24.482C69.4844 24.482 67.501 26.982 67.501 29.7487C67.501 32.5154 69.501 34.9987 72.3344 34.9987C72.9239 35.009 73.5092 34.8966 74.0529 34.6684C74.5967 34.4403 75.087 34.1016 75.4927 33.6737V35.157C75.4867 36.0483 75.141 36.9036 74.526 37.5487C74.2154 37.8657 73.8445 38.1174 73.4352 38.2891C73.026 38.4608 72.5865 38.5491 72.1427 38.5487C71.4612 38.5272 70.8008 38.307 70.2427 37.9154L69.1594 39.7737C69.9913 40.3087 70.9522 40.6095 71.9407 40.6444C72.9292 40.6792 73.9088 40.4468 74.7764 39.9717C75.6439 39.4965 76.3673 38.7962 76.8703 37.9445C77.3732 37.0928 77.6372 36.1212 77.6344 35.132V24.7987H75.4927V25.7987C75.087 25.3708 74.5967 25.0321 74.0529 24.804C73.5092 24.5758 72.9239 24.4634 72.3344 24.4737V24.482ZM69.651 29.7487C69.6022 29.2069 69.7059 28.6623 69.9504 28.1763C70.1948 27.6904 70.5703 27.2825 71.0344 26.9987C71.9844 26.4154 73.176 26.4154 74.1177 26.9987C75.0594 27.582 75.5927 28.6487 75.501 29.7487C75.5498 30.2905 75.4462 30.8351 75.2017 31.3211C74.9573 31.807 74.5818 32.2149 74.1177 32.4987C73.1677 33.082 71.976 33.082 71.0344 32.4987C70.0927 31.9154 69.5594 30.8487 69.651 29.7487Z" fill="#FEFEFE"/>
<path d="M85.3651 26.6649C84.7491 26.6671 84.1591 26.9127 83.7235 27.3483C83.288 27.7838 83.0423 28.3739 83.0401 28.9899V36.0566H80.8984V24.8899H83.0401V25.8316C83.6901 24.9649 84.7234 24.4649 85.8068 24.4816C87.1734 24.4482 88.4484 25.1816 89.1234 26.3732C89.9568 25.2066 91.1568 24.4982 92.4568 24.4816C94.8984 24.4816 96.4151 26.4482 96.4234 28.8816V35.9899H94.2818V28.9066C94.3445 28.4653 94.2796 28.0153 94.0947 27.6098C93.9098 27.2043 93.6126 26.8603 93.2383 26.6183C92.864 26.3764 92.4283 26.2467 91.9826 26.2446C91.5369 26.2425 91.1 26.3681 90.7234 26.6066C90.349 26.8507 90.0525 27.1972 89.8693 27.605C89.6862 28.0127 89.6239 28.4645 89.6901 28.9066V35.9732H87.6318V28.9149C87.6296 28.2989 87.3839 27.7088 86.9484 27.2733C86.5128 26.8377 85.9227 26.5921 85.3068 26.5899L85.3651 26.6649ZM107.865 26.0816C107.378 25.5729 106.791 25.1693 106.142 24.8956C105.493 24.6219 104.795 24.4838 104.09 24.4899C100.898 24.4899 98.6734 27.1899 98.6734 30.3232C98.6734 33.4566 100.923 36.1566 104.09 36.1566C104.795 36.1627 105.493 36.0246 106.142 35.7509C106.791 35.4772 107.378 35.0736 107.865 34.5649V35.8316H110.007V24.6649H107.865V26.0816ZM100.782 30.4149C100.673 29.0816 101.323 27.7982 102.465 27.0982C103.607 26.3982 104.965 26.3982 106.182 27.0982C106.739 27.4441 107.191 27.9362 107.487 28.5211C107.784 29.1059 107.915 29.7609 107.865 30.4149C107.973 31.7482 107.323 33.0316 106.182 33.7316C105.04 34.4316 103.682 34.4316 102.465 33.7316C101.908 33.3857 101.456 32.8936 101.159 32.3087C100.863 31.7239 100.732 31.0688 100.782 30.4149Z" fill="#FEFEFE"/>
</svg>
