<svg width="121" height="60" viewBox="0 0 121 60" fill="none" xmlns="http://www.w3.org/2000/svg">
<path d="M6.41406 21.4766H12.1141V27.1066H17.3271V21.4766H23.0271V38.5266H17.3271V32.8266H12.1141V38.5266H6.41406V21.4766V21.4766ZM30.5211 27.1316H25.4941V21.4776H41.2301V27.1316H36.2101V38.5286H30.5101V27.1316H30.5211ZM43.7281 21.4766H49.6711L53.3271 27.4766L56.9791 21.4766H62.9141V38.5266H57.2381V30.0746L53.3181 36.1376H53.2201L49.3141 30.0756V38.5276H43.7381L43.7281 21.4766ZM65.7581 21.4766H71.4581V32.9016H79.4731V38.5376H65.7591L65.7581 21.4766Z" fill="#FEFEFE"/>
<path d="M82.1875 12.0586H113.825L110.942 44.3466L97.9875 47.9386L85.0675 44.3516L82.1875 12.0586Z" fill="#535353"/>
<path d="M108.476 42.2912L110.939 14.6992H98.0156V45.1932L108.476 42.2912Z" fill="#535353"/>
<path d="M92.7659 26.6762L92.4039 22.6202H98.0159V18.6602H88.0859L89.1539 30.6372H98.0159V26.6772L92.7659 26.6762ZM89.3199 32.6182L89.8749 38.8382L97.9879 41.0902L98.0059 41.0852V36.9652L97.9889 36.9702L93.5889 35.7702L93.3069 32.6102H91.1639L89.3199 32.6182Z" fill="#FEFEFE"/>
<path d="M107.101 27.7403L107.198 26.6763H97.9922V30.6363H102.869L102.409 35.7733L97.9922 36.9653V41.0853L106.112 38.8353L106.172 38.1653L107.101 27.7403ZM98.0012 22.6223H107.568L107.923 18.6523H98.0012V22.6023V22.6223Z" fill="#FEFEFE"/>
</svg>
