<svg width="170" height="170" viewBox="0 0 170 170" fill="none" xmlns="http://www.w3.org/2000/svg">
<path d="M170 85C170 131.944 131.944 170 85 170C38.0558 170 0 131.944 0 85C0 38.0558 38.0558 0 85 0C131.944 0 170 38.0558 170 85ZM13.1719 85C13.1719 124.67 45.3304 156.828 85 156.828C124.67 156.828 156.828 124.67 156.828 85C156.828 45.3304 124.67 13.1719 85 13.1719C45.3304 13.1719 13.1719 45.3304 13.1719 85Z" fill="#E2D9F2"/>
<path d="M85 0C69.3011 -1.87207e-07 53.9089 4.34766 40.53 12.561C27.151 20.7742 16.308 32.5323 9.20312 46.5314C2.09825 60.5305 -0.990891 76.2238 0.27819 91.8713C1.54727 107.519 7.12499 122.509 16.3929 135.18C25.6609 147.852 38.257 157.709 52.7846 163.659C67.3123 169.609 83.204 171.419 98.6977 168.889C114.191 166.359 128.682 159.588 140.562 149.326C152.443 139.064 161.249 125.712 166.005 110.751L153.361 106.732C149.348 119.358 141.916 130.625 131.89 139.285C121.863 147.945 109.635 153.66 96.5596 155.795C83.4843 157.93 70.0732 156.402 57.8131 151.381C45.5531 146.36 34.9231 138.041 27.1018 127.348C19.2805 116.654 14.5734 104.004 13.5024 90.7988C12.4314 77.5937 15.0384 64.35 21.0343 52.536C27.0301 40.722 36.1807 30.7992 47.4713 23.868C58.7619 16.9367 71.7516 13.2677 85 13.2677L85 0Z" fill="#8C68CA"/>
</svg>
