<svg width="270" height="60" viewBox="0 0 270 60" fill="none" xmlns="http://www.w3.org/2000/svg">
<g clip-path="url(#clip0_1460_21565)">
<path d="M59.3743 55.5896C56.0905 55.5896 53.5191 54.8371 51.3828 52.7773L53.2815 50.8758C54.8245 52.4995 56.9214 53.1339 59.3348 53.1339C62.5389 53.1339 64.5173 51.9849 64.5173 49.6872C64.5173 47.984 63.5277 47.0334 61.273 46.835L58.0685 46.5579C54.2707 46.2409 52.2532 44.5377 52.2532 41.329C52.2532 37.7638 55.2596 35.625 59.4137 35.625C62.1828 35.625 64.6752 36.2985 66.416 37.7239L64.5564 39.5856C63.172 38.5167 61.3918 38.0409 59.3743 38.0409C56.5255 38.0409 55.0223 39.2693 55.0223 41.2496C55.0223 42.9136 55.9717 43.9041 58.4246 44.1018L61.5497 44.3789C64.9523 44.6962 67.286 46.003 67.286 49.648C67.286 53.411 64.0816 55.5896 59.3743 55.5896Z" fill="#FEFEFE"/>
<path d="M75.9451 55.3538C72.6218 55.3538 70.9604 53.0163 70.9604 50.1249V38.1619H68.5078V35.9829H70.9604V29.8828H73.8088V35.9829H77.9626V38.1619H73.8088V50.0455C73.8088 51.8281 74.6397 52.8977 76.4594 52.8977H77.9626V55.3538H75.9451Z" fill="#FEFEFE"/>
<path d="M92.6975 46.3599H87.2382C84.3105 46.3599 82.8863 47.5484 82.8863 49.8058C82.8863 52.0639 84.271 53.1339 87.3567 53.1339C89.0185 53.1339 90.4819 53.0145 91.7083 51.8264C92.3809 51.1927 92.6975 50.0836 92.6975 48.4592V46.3599ZM92.6975 55.3521V53.49C91.115 55.075 89.6908 55.5896 87.08 55.5896C84.3898 55.5896 82.8073 55.075 81.5805 53.8074C80.6315 52.8561 80.1172 51.3908 80.1172 49.8457C80.1172 46.4393 82.4908 44.2204 86.8424 44.2204H92.6975V42.3587C92.6975 39.5072 91.2733 38.0808 87.7127 38.0808C85.2207 38.0808 83.9545 38.6752 82.8073 40.299L80.8688 38.5167C82.6096 36.2586 84.5876 35.625 87.7526 35.625C92.9742 35.625 95.5456 37.8824 95.5456 42.1208V55.3521H92.6975Z" fill="#FEFEFE"/>
<path d="M106.702 55.5896C101.797 55.5896 98.0781 52.262 98.0781 45.6073C98.0781 38.9523 101.797 35.625 106.702 35.625C109.392 35.625 111.093 36.3377 113.111 38.5167L111.173 40.3385C109.709 38.7144 108.562 38.1602 106.702 38.1602C104.803 38.1602 103.221 38.9124 102.192 40.3784C101.283 41.646 100.927 43.1515 100.927 45.6073C100.927 48.0631 101.283 49.5686 102.192 50.8362C103.221 52.3018 104.803 53.0544 106.702 53.0544C108.562 53.0544 109.709 52.4603 111.173 50.8362L113.111 52.6983C111.093 54.8762 109.392 55.5896 106.702 55.5896Z" fill="#FEFEFE"/>
<path d="M128.701 55.3533L122.529 45.3707L118.731 49.728V55.3533H115.883V27.1484H118.731V46.0043L127.514 35.8635H131.074L124.468 43.3106L132.221 55.3533H128.701Z" fill="#FEFEFE"/>
<path d="M143.715 40.8383C143.153 40.2751 142.403 39.9748 141.428 39.9748C140.453 39.9748 139.741 40.2751 139.179 40.8383C138.166 41.8517 138.054 43.541 138.054 45.5689C138.054 47.596 138.166 49.3231 139.179 50.3362C139.741 50.8994 140.453 51.2001 141.428 51.2001C142.403 51.2001 143.153 50.8994 143.715 50.3362C144.727 49.3231 144.84 47.596 144.84 45.5689C144.84 43.541 144.727 41.8517 143.715 40.8383ZM147.502 53.1897C146.302 54.4663 144.315 55.5924 141.428 55.5924C138.541 55.5924 136.592 54.4663 135.392 53.1897C133.63 51.3502 133.18 49.1348 133.18 45.5689C133.18 42.0397 133.63 39.8246 135.392 37.9848C136.592 36.7085 138.541 35.582 141.428 35.582C144.315 35.582 146.302 36.7085 147.502 37.9848C149.264 39.8246 149.714 42.0397 149.714 45.5689C149.714 49.1348 149.264 51.3502 147.502 53.1897Z" fill="#FEFEFE"/>
<path d="M160.664 55.3642H156.839L149.641 35.8047H154.777L158.751 47.8935L162.688 35.8047H167.825L160.664 55.3642Z" fill="#FEFEFE"/>
<path d="M179.382 41.6641C178.858 40.5002 177.77 39.637 176.12 39.637C174.471 39.637 173.383 40.5002 172.859 41.6641C172.558 42.3775 172.446 42.9026 172.408 43.7665H179.832C179.794 42.9026 179.682 42.3775 179.382 41.6641ZM172.408 47.1077C172.408 49.6231 173.946 51.4626 176.682 51.4626C178.82 51.4626 179.87 50.8623 181.107 49.6231L184.069 52.5138C182.082 54.5035 180.17 55.5924 176.645 55.5924C172.033 55.5924 167.609 53.4904 167.609 45.5689C167.609 39.1861 171.059 35.582 176.12 35.582C181.557 35.582 184.631 39.5617 184.631 44.9304V47.1077H172.408Z" fill="#FEFEFE"/>
<path d="M197.666 41.1383C196.915 40.3875 196.278 39.9748 195.079 39.9748C193.579 39.9748 191.929 41.1009 191.929 43.5788V55.367H187.055V35.8075H191.817V37.6844C192.754 36.558 194.629 35.582 196.728 35.582C198.64 35.582 199.99 36.07 201.34 37.4219L197.666 41.1383Z" fill="#FEFEFE"/>
<path d="M221.202 55.3668C217.19 55.3668 215.503 52.5513 215.503 49.773V27.8038H220.378V49.4723C220.378 50.6366 220.865 51.2369 222.102 51.2369H223.976V55.3668H221.202ZM209.586 39.532V55.3668H204.712V39.532H202.688V35.8155H204.712V33.3746C204.712 30.597 206.436 27.7812 210.411 27.7812H213.186V31.9108H211.311C210.149 31.9108 209.586 32.5489 209.586 33.6753V35.8155H213.186V39.532H209.586Z" fill="#FEFEFE"/>
<path d="M235.215 40.8383C234.653 40.2751 233.903 39.9748 232.928 39.9748C231.953 39.9748 231.241 40.2751 230.679 40.8383C229.666 41.8517 229.554 43.541 229.554 45.5689C229.554 47.596 229.666 49.3231 230.679 50.3362C231.241 50.8994 231.953 51.2001 232.928 51.2001C233.903 51.2001 234.653 50.8994 235.215 50.3362C236.227 49.3231 236.34 47.596 236.34 45.5689C236.34 43.541 236.227 41.8517 235.215 40.8383ZM239.002 53.1897C237.802 54.4663 235.815 55.5924 232.928 55.5924C230.041 55.5924 228.092 54.4663 226.892 53.1897C225.13 51.3502 224.68 49.1348 224.68 45.5689C224.68 42.0397 225.13 39.8246 226.892 37.9848C228.092 36.7085 230.041 35.582 232.928 35.582C235.815 35.582 237.802 36.7085 239.002 37.9848C240.764 39.8246 241.215 42.0397 241.215 45.5689C241.215 49.1348 240.764 51.3502 239.002 53.1897Z" fill="#FEFEFE"/>
<path d="M263.086 55.3642H259.075L254.988 43.0881L250.901 55.3642H246.889L240.891 35.8047H246.065L249.214 47.8935L253.189 35.8047H256.75L260.762 47.8935L263.911 35.8047H269.048L263.086 55.3642Z" fill="#FEFEFE"/>
<path d="M33.2626 38.5129L10.4375 32.9694L11.5448 28.3984L34.3699 33.9415L33.2626 38.5129Z" fill="#FEFEFE"/>
<path d="M34.7896 33.046L13.875 22.3447L16.0124 18.1562L36.927 28.8575L34.7896 33.046Z" fill="#FEFEFE"/>
<path d="M38.0076 27.3823L20.3203 11.9092L23.4105 8.36719L41.0981 23.8399L38.0076 27.3823Z" fill="#FEFEFE"/>
<path d="M42.877 22.4014L29.6875 2.94211L33.5743 0.300781L46.7638 19.7601L42.877 22.4014Z" fill="#FEFEFE"/>
<path d="M32.8973 44.233L9.44531 42.9508L9.70127 38.2539L33.1533 39.5364L32.8973 44.233Z" fill="#FEFEFE"/>
<path d="M37.7568 55.2956V35.8095H42.4499L42.4534 60.0001H0L0.00103906 35.7891H4.6983V55.2956H37.7568Z" fill="#FEFEFE"/>
<path d="M9.375 45.9062H33.0213V50.6097H9.375V45.9062Z" fill="#FEFEFE"/>
</g>
<defs>
<clipPath id="clip0_1460_21565">
<rect width="269.118" height="60" fill="white"/>
</clipPath>
</defs>
</svg>
