<svg width="121" height="60" viewBox="0 0 121 60" fill="none" xmlns="http://www.w3.org/2000/svg">
<path d="M99.1793 34.2269C99.1653 34.2299 99.1513 34.2289 99.1373 34.2309L99.2093 34.2209C99.1993 34.2219 99.1893 34.2269 99.1793 34.2289V34.2269ZM50.7572 37.6269C50.7601 37.853 50.7165 38.0772 50.6291 38.2857C50.5417 38.4942 50.4124 38.6825 50.2492 38.8389C50.0915 39.0015 49.9022 39.1302 49.6929 39.2171C49.4836 39.3039 49.2588 39.3471 49.0322 39.3439H45.6152C44.9377 39.3543 44.2653 39.2261 43.6391 38.9671C43.013 38.7082 42.4464 38.3239 41.9743 37.8379C40.9663 36.8329 40.4743 35.6239 40.4743 34.2079V27.3249C40.4743 26.8399 40.6412 26.4329 40.9772 26.1019C41.3132 25.7709 41.7232 25.6069 42.2072 25.6069C42.4325 25.6036 42.656 25.6467 42.8638 25.7336C43.0717 25.8205 43.2594 25.9493 43.4152 26.1119C43.7512 26.4479 43.9202 26.8519 43.9202 27.3239V29.8169H48.7723C49.2123 29.8169 49.5903 29.9729 49.9053 30.2849C50.2203 30.5969 50.3773 30.9709 50.3773 31.4089C50.3801 31.6185 50.3398 31.8264 50.2589 32.0197C50.1781 32.2131 50.0584 32.3877 49.9072 32.5329C49.7605 32.6835 49.5846 32.8026 49.3904 32.8831C49.1961 32.9635 48.9875 33.0036 48.7772 33.0009H43.9202V34.2069C43.9202 34.6799 44.0852 35.0819 44.4172 35.4129C44.7492 35.7439 45.1512 35.9089 45.6252 35.9089H49.0252C49.4982 35.9089 49.9052 36.0789 50.2422 36.4149C50.4054 36.5714 50.5347 36.7597 50.6221 36.9681C50.7095 37.1766 50.7531 37.4009 50.7502 37.6269H50.7572ZM90.6732 37.6269C90.6762 37.8529 90.6328 38.0771 90.5456 38.2855C90.4584 38.494 90.3293 38.6824 90.1663 38.8389C90.0087 39.0015 89.8195 39.1301 89.6104 39.217C89.4013 39.3038 89.1766 39.347 88.9502 39.3439H87.4023C86.7246 39.3545 86.0519 39.2263 85.4256 38.9673C84.7993 38.7083 84.2325 38.324 83.7602 37.8379C83.2735 37.3684 82.8883 36.804 82.6286 36.1796C82.3688 35.5552 82.2401 34.8841 82.2503 34.2079V27.3249C82.2503 26.8399 82.4173 26.4329 82.7533 26.1019C83.0893 25.7709 83.4982 25.6069 83.9832 25.6069C84.2085 25.6036 84.432 25.6467 84.6398 25.7336C84.8477 25.8205 85.0354 25.9493 85.1912 26.1119C85.3537 26.2687 85.4823 26.4572 85.569 26.6656C85.6556 26.8741 85.6986 27.0982 85.6953 27.3239V29.8169H88.6882C88.8988 29.8139 89.1078 29.8539 89.3024 29.9343C89.4971 30.0148 89.6733 30.1341 89.8203 30.2849C90.1353 30.5969 90.2923 30.9709 90.2923 31.4089C90.2951 31.6185 90.2548 31.8264 90.174 32.0197C90.0931 32.2131 89.9734 32.3877 89.8223 32.5329C89.6755 32.6835 89.4996 32.8026 89.3054 32.8831C89.1111 32.9635 88.9025 33.0036 88.6923 33.0009H85.6953V34.2069C85.6953 34.6799 85.8603 35.0819 86.1923 35.4129C86.5243 35.7439 86.9263 35.9089 87.4003 35.9089H88.9502C89.4232 35.9089 89.8303 36.0789 90.1673 36.4149C90.3303 36.5714 90.4594 36.7598 90.5466 36.9683C90.6338 37.1768 90.6772 37.4009 90.6742 37.6269H90.6732ZM81.6732 37.6269C81.6732 38.0969 81.5033 38.5019 81.1663 38.8389C81.0085 39.0016 80.8192 39.1303 80.6099 39.2172C80.4006 39.304 80.1758 39.3471 79.9492 39.3439H78.4013C76.9813 39.3439 75.7683 38.8419 74.7613 37.8379C74.2741 37.3686 73.8886 36.8042 73.6285 36.1798C73.3684 35.5554 73.2393 34.8842 73.2493 34.2079V27.3249C73.2442 27.0974 73.2863 26.8713 73.3729 26.6608C73.4594 26.4503 73.5886 26.2601 73.7523 26.1019C74.0883 25.7719 74.4982 25.6069 74.9822 25.6069C75.2075 25.6036 75.431 25.6467 75.6388 25.7336C75.8467 25.8205 76.0344 25.9493 76.1902 26.1119C76.5262 26.4479 76.6953 26.8519 76.6953 27.3239V29.8169H79.6872C80.1272 29.8169 80.5053 29.9729 80.8203 30.2849C80.9721 30.4296 81.0923 30.6042 81.1733 30.7976C81.2544 30.9911 81.2945 31.1992 81.2913 31.4089C81.2941 31.6185 81.2538 31.8264 81.173 32.0197C81.0921 32.2131 80.9724 32.3877 80.8213 32.5329C80.5083 32.8329 80.1213 33.0009 79.6933 33.0009H76.6852V34.2069C76.6852 34.6799 76.8503 35.0819 77.1823 35.4129C77.5143 35.7439 77.9163 35.9089 78.3903 35.9089H79.9402C80.4132 35.9089 80.8202 36.0789 81.1572 36.4149C81.3203 36.5714 81.4494 36.7598 81.5366 36.9683C81.6238 37.1768 81.6673 37.4009 81.6643 37.6269H81.6732ZM67.3753 34.5389C67.3753 35.8639 66.9053 36.9949 65.9613 37.9349C65.52 38.3899 64.9902 38.7496 64.4046 38.9919C63.819 39.2343 63.1899 39.354 62.5563 39.3439C61.3423 39.3439 60.2733 38.9439 59.3493 38.1139C58.4835 38.9165 57.3428 39.3564 56.1623 39.3429C55.5285 39.3526 54.8994 39.2326 54.3137 38.9903C53.728 38.748 53.198 38.3885 52.7562 37.9339C52.3007 37.4948 51.9403 36.9668 51.6972 36.3826C51.4542 35.7984 51.3337 35.1706 51.3433 34.5379V31.1829C51.3382 30.9697 51.3777 30.7578 51.4593 30.5608C51.541 30.3638 51.6629 30.186 51.8172 30.0389C52.1322 29.7389 52.5123 29.5749 52.9543 29.5749C53.1653 29.5713 53.3749 29.6106 53.5703 29.6903C53.7658 29.7701 53.943 29.8887 54.0913 30.0389C54.4073 30.3389 54.5653 30.7389 54.5653 31.1839V34.5409C54.5615 34.7504 54.6009 34.9585 54.6808 35.1522C54.7608 35.3459 54.8798 35.5211 55.0303 35.6669C55.1778 35.8161 55.3539 35.934 55.5481 36.0136C55.7422 36.0931 55.9504 36.1327 56.1602 36.1299C56.5902 36.1299 56.9603 35.9769 57.2603 35.6669C57.4106 35.521 57.5293 35.3458 57.6091 35.1521C57.6889 34.9584 57.7281 34.7504 57.7243 34.5409V31.2009C57.7243 30.7609 57.8842 30.3789 58.1992 30.0569C58.3489 29.9009 58.5292 29.7774 58.7288 29.6943C58.9284 29.6112 59.1431 29.5702 59.3592 29.5739C59.5714 29.5711 59.782 29.6115 59.978 29.6929C60.174 29.7742 60.3514 29.8947 60.4992 30.0469C60.8162 30.3629 60.9743 30.7409 60.9743 31.1829V34.5399C60.9661 34.7487 61.0009 34.957 61.0763 35.1518C61.1518 35.3467 61.2664 35.5241 61.413 35.6729C61.5597 35.8218 61.7352 35.9391 61.9289 36.0175C62.1226 36.0959 62.3303 36.1338 62.5392 36.1289C62.9822 36.1289 63.3593 35.9759 63.6693 35.6659C63.8197 35.5201 63.9387 35.3449 64.0187 35.1512C64.0986 34.9575 64.138 34.7494 64.1342 34.5399V31.1829C64.1342 30.7409 64.2922 30.3629 64.6082 30.0469C64.7554 29.8946 64.9322 29.7741 65.1278 29.6927C65.3233 29.6114 65.5335 29.5709 65.7452 29.5739C66.1882 29.5739 66.5672 29.7319 66.8832 30.0469C67.1992 30.3619 67.3562 30.7399 67.3562 31.1819V34.5369L67.3753 34.5389ZM72.0303 26.9389C72.0334 27.165 71.99 27.3894 71.9028 27.5981C71.8156 27.8068 71.6864 27.9953 71.5232 28.1519C71.3656 28.3145 71.1765 28.4431 70.9674 28.53C70.7583 28.6168 70.5336 28.66 70.3073 28.6569C70.0808 28.6597 69.8561 28.6163 69.6468 28.5295C69.4376 28.4427 69.2482 28.3142 69.0902 28.1519C68.9275 27.9952 68.7987 27.8068 68.7116 27.5984C68.6246 27.3899 68.5812 27.1658 68.5843 26.9399C68.5843 26.4679 68.7542 26.0639 69.0902 25.7279C69.248 25.5652 69.4373 25.4365 69.6466 25.3497C69.8559 25.2628 70.0807 25.2197 70.3073 25.2229C70.5337 25.2197 70.7583 25.2628 70.9675 25.3497C71.1766 25.4365 71.3657 25.5652 71.5232 25.7279C71.8612 26.0639 72.0303 26.4679 72.0303 26.9399V26.9389ZM72.0303 37.6159C72.0329 37.8421 71.9893 38.0665 71.9022 38.2753C71.815 38.484 71.686 38.6728 71.5232 38.8299C71.3657 38.9926 71.1766 39.1213 70.9675 39.2081C70.7583 39.295 70.5337 39.3381 70.3073 39.3349C69.8343 39.3349 69.4292 39.1669 69.0902 38.8299C68.9274 38.6729 68.7985 38.4841 68.7115 38.2753C68.6244 38.0665 68.5811 37.8421 68.5843 37.6159V31.2859C68.5843 30.8139 68.7542 30.4089 69.0902 30.0729C69.2479 29.91 69.4372 29.7811 69.6464 29.6941C69.8557 29.6071 70.0806 29.5638 70.3073 29.5669C70.5337 29.5638 70.7585 29.6071 70.9676 29.6941C71.1767 29.7812 71.3658 29.9101 71.5232 30.0729C71.8612 30.4089 72.0303 30.8129 72.0303 31.2859V37.6159ZM111.165 31.3989C111.165 31.8359 111.008 32.2109 110.693 32.5229C110.547 32.6738 110.371 32.7932 110.177 32.8737C109.983 32.9542 109.774 32.9941 109.564 32.9909H107.212C106.772 32.9909 106.399 33.1449 106.092 33.4509C105.943 33.5954 105.824 33.7691 105.745 33.9613C105.665 34.1535 105.626 34.36 105.63 34.5679V37.7379C105.63 38.1759 105.474 38.5519 105.16 38.8649C105.014 39.0159 104.839 39.1356 104.645 39.2164C104.452 39.2972 104.243 39.3375 104.033 39.3349C103.596 39.3349 103.218 39.1789 102.905 38.8649C102.754 38.7195 102.634 38.5447 102.554 38.3512C102.473 38.1577 102.432 37.9496 102.435 37.7399V34.5699C102.426 33.9429 102.545 33.3206 102.786 32.7416C103.027 32.1626 103.384 31.6392 103.835 31.2039C104.273 30.7529 104.799 30.3962 105.38 30.1557C105.961 29.9153 106.585 29.7963 107.213 29.8059H109.563C109.774 29.8029 109.983 29.843 110.177 29.9238C110.371 30.0047 110.547 30.1245 110.693 30.2759C110.845 30.4202 110.966 30.5946 111.046 30.7879C111.127 30.9813 111.167 31.1894 111.163 31.3989H111.165ZM96.0683 39.3339C94.7123 39.3339 93.4342 38.8179 92.4262 37.7879C91.4182 36.7579 91.0312 35.6349 91.0312 34.1819C91.0312 34.1819 90.9332 29.5639 96.1572 29.5639C100.244 29.5639 101.487 32.4339 101.487 33.8519C101.487 34.9779 100.972 35.3779 99.7992 35.3779H94.5752C94.5752 35.3779 94.3753 36.5729 96.7753 36.5729H99.7552C99.9365 36.5729 100.116 36.6086 100.283 36.678C100.451 36.7473 100.603 36.849 100.731 36.9771C100.859 37.1052 100.961 37.2574 101.03 37.4248C101.1 37.5922 101.135 37.7717 101.135 37.9529C101.135 38.1341 101.1 38.3136 101.03 38.481C100.961 38.6484 100.859 38.8006 100.731 38.9287C100.603 39.0569 100.451 39.1585 100.283 39.2279C100.116 39.2972 99.9365 39.3329 99.7552 39.3329H96.0752L96.0683 39.3339ZM94.6103 33.1989H98.0403C98.0403 32.0719 96.3343 32.0719 96.3343 32.0719C96.3343 32.0719 94.6103 32.0719 94.6103 33.1989ZM35.6953 29.1409C34.6283 29.3229 33.0822 29.1329 32.2622 28.7909C33.9652 28.6509 35.1182 27.8769 35.5622 26.8259C34.9482 27.2039 33.0423 27.6259 31.9923 27.2229L31.8242 26.5269C31.0242 23.5809 28.2773 21.2069 25.4023 21.4939L26.1073 21.2319C26.4223 21.1189 28.2802 20.8159 27.9872 20.1619C27.7402 19.5839 25.4702 20.5959 25.0432 20.7289C25.6072 20.5289 26.5412 20.1529 26.6402 19.5039C25.7571 19.6347 24.9328 20.0253 24.2722 20.6259C24.5102 20.3709 24.6892 20.0609 24.7272 19.7259C22.4212 21.2009 21.0743 24.1719 19.9853 27.0559C19.1293 26.2259 18.3692 25.5709 17.6892 25.2059C15.7812 24.1829 13.4892 23.1139 9.91625 21.7819C9.81625 22.9689 10.5023 24.5469 12.5163 25.5959C12.0823 25.5359 11.2882 25.6679 10.6542 25.8189C10.9122 27.1789 11.7572 28.2989 14.0462 28.8389C13.0002 28.9089 12.4592 29.1389 11.9702 29.6589C12.4462 30.6059 13.6103 31.7189 15.7003 31.4889C13.3743 32.4929 14.7502 34.3509 16.6442 34.0739C13.4172 37.4119 8.32825 37.1739 5.40625 34.3739C13.0342 44.7809 29.6193 40.5279 32.0893 30.5039C33.9433 30.5189 35.0293 29.8619 35.7043 29.1379L35.6953 29.1409Z" fill="#FEFEFE"/>
</svg>
